ISO-10303-21;
HEADER;
/* Generated by software containing ST-Developer
 * from STEP Tools, Inc. (www.steptools.com) 
 */

FILE_DESCRIPTION(
/* description */ (''),
/* implementation_level */ '2;1');

FILE_NAME(
/* name */ 'battery_pack.step',
/* time_stamp */ '2026-07-04T18:01:17+05:30',
/* author */ (''),
/* organization */ (''),
/* preprocessor_version */ 'ST-DEVELOPER v20.1',
/* originating_system */ 'Autodesk Translation Framework v15.8.0.0',
/* authorisation */ '');

FILE_SCHEMA (('AUTOMOTIVE_DESIGN { 1 0 10303 214 3 1 1 }'));
ENDSEC;

DATA;
#10=MECHANICAL_DESIGN_GEOMETRIC_PRESENTATION_REPRESENTATION('',(#13),#659);
#11=SHAPE_REPRESENTATION_RELATIONSHIP('SRR','None',#666,#12);
#12=ADVANCED_BREP_SHAPE_REPRESENTATION('',(#14),#658);
#13=STYLED_ITEM('',(#676),#14);
#14=MANIFOLD_SOLID_BREP('Body1',#407);
#15=FACE_BOUND('',#55,.T.);
#16=FACE_BOUND('',#63,.T.);
#17=FACE_OUTER_BOUND('',#41,.T.);
#18=FACE_OUTER_BOUND('',#42,.T.);
#19=FACE_OUTER_BOUND('',#43,.T.);
#20=FACE_OUTER_BOUND('',#44,.T.);
#21=FACE_OUTER_BOUND('',#45,.T.);
#22=FACE_OUTER_BOUND('',#46,.T.);
#23=FACE_OUTER_BOUND('',#47,.T.);
#24=FACE_OUTER_BOUND('',#48,.T.);
#25=FACE_OUTER_BOUND('',#49,.T.);
#26=FACE_OUTER_BOUND('',#50,.T.);
#27=FACE_OUTER_BOUND('',#51,.T.);
#28=FACE_OUTER_BOUND('',#52,.T.);
#29=FACE_OUTER_BOUND('',#53,.T.);
#30=FACE_OUTER_BOUND('',#54,.T.);
#31=FACE_OUTER_BOUND('',#56,.T.);
#32=FACE_OUTER_BOUND('',#57,.T.);
#33=FACE_OUTER_BOUND('',#58,.T.);
#34=FACE_OUTER_BOUND('',#59,.T.);
#35=FACE_OUTER_BOUND('',#60,.T.);
#36=FACE_OUTER_BOUND('',#61,.T.);
#37=FACE_OUTER_BOUND('',#62,.T.);
#38=FACE_OUTER_BOUND('',#64,.T.);
#39=FACE_OUTER_BOUND('',#65,.T.);
#40=FACE_OUTER_BOUND('',#66,.T.);
#41=EDGE_LOOP('',(#255,#256,#257,#258));
#42=EDGE_LOOP('',(#259,#260,#261,#262));
#43=EDGE_LOOP('',(#263,#264,#265,#266));
#44=EDGE_LOOP('',(#267,#268,#269,#270));
#45=EDGE_LOOP('',(#271,#272,#273,#274));
#46=EDGE_LOOP('',(#275,#276,#277,#278));
#47=EDGE_LOOP('',(#279,#280,#281,#282));
#48=EDGE_LOOP('',(#283,#284,#285,#286));
#49=EDGE_LOOP('',(#287,#288,#289,#290));
#50=EDGE_LOOP('',(#291,#292,#293,#294));
#51=EDGE_LOOP('',(#295,#296,#297,#298));
#52=EDGE_LOOP('',(#299,#300,#301,#302));
#53=EDGE_LOOP('',(#303,#304,#305,#306));
#54=EDGE_LOOP('',(#307,#308,#309,#310));
#55=EDGE_LOOP('',(#311,#312,#313,#314));
#56=EDGE_LOOP('',(#315,#316,#317,#318));
#57=EDGE_LOOP('',(#319,#320,#321,#322));
#58=EDGE_LOOP('',(#323,#324,#325,#326));
#59=EDGE_LOOP('',(#327,#328,#329,#330));
#60=EDGE_LOOP('',(#331,#332,#333,#334));
#61=EDGE_LOOP('',(#335,#336,#337,#338));
#62=EDGE_LOOP('',(#339,#340,#341,#342));
#63=EDGE_LOOP('',(#343,#344,#345,#346));
#64=EDGE_LOOP('',(#347,#348,#349,#350));
#65=EDGE_LOOP('',(#351,#352,#353,#354));
#66=EDGE_LOOP('',(#355,#356,#357,#358));
#67=LINE('',#551,#119);
#68=LINE('',#553,#120);
#69=LINE('',#555,#121);
#70=LINE('',#556,#122);
#71=LINE('',#559,#123);
#72=LINE('',#561,#124);
#73=LINE('',#562,#125);
#74=LINE('',#565,#126);
#75=LINE('',#567,#127);
#76=LINE('',#568,#128);
#77=LINE('',#570,#129);
#78=LINE('',#571,#130);
#79=LINE('',#576,#131);
#80=LINE('',#578,#132);
#81=LINE('',#580,#133);
#82=LINE('',#581,#134);
#83=LINE('',#584,#135);
#84=LINE('',#586,#136);
#85=LINE('',#587,#137);
#86=LINE('',#590,#138);
#87=LINE('',#592,#139);
#88=LINE('',#593,#140);
#89=LINE('',#595,#141);
#90=LINE('',#596,#142);
#91=LINE('',#599,#143);
#92=LINE('',#601,#144);
#93=LINE('',#602,#145);
#94=LINE('',#605,#146);
#95=LINE('',#606,#147);
#96=LINE('',#609,#148);
#97=LINE('',#610,#149);
#98=LINE('',#612,#150);
#99=LINE('',#617,#151);
#100=LINE('',#619,#152);
#101=LINE('',#621,#153);
#102=LINE('',#622,#154);
#103=LINE('',#625,#155);
#104=LINE('',#627,#156);
#105=LINE('',#628,#157);
#106=LINE('',#631,#158);
#107=LINE('',#633,#159);
#108=LINE('',#634,#160);
#109=LINE('',#636,#161);
#110=LINE('',#637,#162);
#111=LINE('',#640,#163);
#112=LINE('',#642,#164);
#113=LINE('',#643,#165);
#114=LINE('',#646,#166);
#115=LINE('',#647,#167);
#116=LINE('',#651,#168);
#117=LINE('',#652,#169);
#118=LINE('',#654,#170);
#119=VECTOR('',#449,10.);
#120=VECTOR('',#450,10.);
#121=VECTOR('',#451,10.);
#122=VECTOR('',#452,10.);
#123=VECTOR('',#455,10.);
#124=VECTOR('',#456,10.);
#125=VECTOR('',#457,10.);
#126=VECTOR('',#460,10.);
#127=VECTOR('',#461,10.);
#128=VECTOR('',#462,10.);
#129=VECTOR('',#465,10.);
#130=VECTOR('',#466,10.);
#131=VECTOR('',#471,10.);
#132=VECTOR('',#472,10.);
#133=VECTOR('',#473,10.);
#134=VECTOR('',#474,10.);
#135=VECTOR('',#477,10.);
#136=VECTOR('',#478,10.);
#137=VECTOR('',#479,10.);
#138=VECTOR('',#482,10.);
#139=VECTOR('',#483,10.);
#140=VECTOR('',#484,10.);
#141=VECTOR('',#487,10.);
#142=VECTOR('',#488,10.);
#143=VECTOR('',#491,10.);
#144=VECTOR('',#492,10.);
#145=VECTOR('',#493,10.);
#146=VECTOR('',#496,10.);
#147=VECTOR('',#497,10.);
#148=VECTOR('',#500,10.);
#149=VECTOR('',#501,10.);
#150=VECTOR('',#504,10.);
#151=VECTOR('',#509,10.);
#152=VECTOR('',#510,10.);
#153=VECTOR('',#511,10.);
#154=VECTOR('',#512,10.);
#155=VECTOR('',#515,10.);
#156=VECTOR('',#516,10.);
#157=VECTOR('',#517,10.);
#158=VECTOR('',#520,10.);
#159=VECTOR('',#521,10.);
#160=VECTOR('',#522,10.);
#161=VECTOR('',#525,10.);
#162=VECTOR('',#526,10.);
#163=VECTOR('',#529,10.);
#164=VECTOR('',#530,10.);
#165=VECTOR('',#531,10.);
#166=VECTOR('',#534,10.);
#167=VECTOR('',#535,10.);
#168=VECTOR('',#540,10.);
#169=VECTOR('',#541,10.);
#170=VECTOR('',#544,10.);
#171=VERTEX_POINT('',#549);
#172=VERTEX_POINT('',#550);
#173=VERTEX_POINT('',#552);
#174=VERTEX_POINT('',#554);
#175=VERTEX_POINT('',#558);
#176=VERTEX_POINT('',#560);
#177=VERTEX_POINT('',#564);
#178=VERTEX_POINT('',#566);
#179=VERTEX_POINT('',#574);
#180=VERTEX_POINT('',#575);
#181=VERTEX_POINT('',#577);
#182=VERTEX_POINT('',#579);
#183=VERTEX_POINT('',#583);
#184=VERTEX_POINT('',#585);
#185=VERTEX_POINT('',#589);
#186=VERTEX_POINT('',#591);
#187=VERTEX_POINT('',#598);
#188=VERTEX_POINT('',#600);
#189=VERTEX_POINT('',#604);
#190=VERTEX_POINT('',#608);
#191=VERTEX_POINT('',#615);
#192=VERTEX_POINT('',#616);
#193=VERTEX_POINT('',#618);
#194=VERTEX_POINT('',#620);
#195=VERTEX_POINT('',#624);
#196=VERTEX_POINT('',#626);
#197=VERTEX_POINT('',#630);
#198=VERTEX_POINT('',#632);
#199=VERTEX_POINT('',#639);
#200=VERTEX_POINT('',#641);
#201=VERTEX_POINT('',#645);
#202=VERTEX_POINT('',#650);
#203=EDGE_CURVE('',#171,#172,#67,.T.);
#204=EDGE_CURVE('',#171,#173,#68,.T.);
#205=EDGE_CURVE('',#174,#173,#69,.T.);
#206=EDGE_CURVE('',#172,#174,#70,.T.);
#207=EDGE_CURVE('',#172,#175,#71,.T.);
#208=EDGE_CURVE('',#176,#174,#72,.T.);
#209=EDGE_CURVE('',#175,#176,#73,.T.);
#210=EDGE_CURVE('',#175,#177,#74,.T.);
#211=EDGE_CURVE('',#178,#176,#75,.T.);
#212=EDGE_CURVE('',#177,#178,#76,.T.);
#213=EDGE_CURVE('',#177,#171,#77,.T.);
#214=EDGE_CURVE('',#173,#178,#78,.T.);
#215=EDGE_CURVE('',#179,#180,#79,.T.);
#216=EDGE_CURVE('',#179,#181,#80,.F.);
#217=EDGE_CURVE('',#182,#181,#81,.T.);
#218=EDGE_CURVE('',#180,#182,#82,.T.);
#219=EDGE_CURVE('',#180,#183,#83,.T.);
#220=EDGE_CURVE('',#184,#182,#84,.T.);
#221=EDGE_CURVE('',#183,#184,#85,.T.);
#222=EDGE_CURVE('',#183,#185,#86,.T.);
#223=EDGE_CURVE('',#186,#184,#87,.T.);
#224=EDGE_CURVE('',#185,#186,#88,.T.);
#225=EDGE_CURVE('',#181,#186,#89,.T.);
#226=EDGE_CURVE('',#185,#179,#90,.T.);
#227=EDGE_CURVE('',#187,#186,#91,.T.);
#228=EDGE_CURVE('',#187,#188,#92,.T.);
#229=EDGE_CURVE('',#188,#181,#93,.F.);
#230=EDGE_CURVE('',#188,#189,#94,.T.);
#231=EDGE_CURVE('',#189,#182,#95,.F.);
#232=EDGE_CURVE('',#189,#190,#96,.T.);
#233=EDGE_CURVE('',#190,#184,#97,.F.);
#234=EDGE_CURVE('',#190,#187,#98,.T.);
#235=EDGE_CURVE('',#191,#192,#99,.T.);
#236=EDGE_CURVE('',#192,#193,#100,.T.);
#237=EDGE_CURVE('',#193,#194,#101,.T.);
#238=EDGE_CURVE('',#191,#194,#102,.T.);
#239=EDGE_CURVE('',#192,#195,#103,.T.);
#240=EDGE_CURVE('',#195,#196,#104,.T.);
#241=EDGE_CURVE('',#196,#193,#105,.T.);
#242=EDGE_CURVE('',#195,#197,#106,.T.);
#243=EDGE_CURVE('',#197,#198,#107,.T.);
#244=EDGE_CURVE('',#198,#196,#108,.T.);
#245=EDGE_CURVE('',#194,#198,#109,.T.);
#246=EDGE_CURVE('',#197,#191,#110,.T.);
#247=EDGE_CURVE('',#199,#194,#111,.T.);
#248=EDGE_CURVE('',#200,#199,#112,.T.);
#249=EDGE_CURVE('',#200,#198,#113,.T.);
#250=EDGE_CURVE('',#201,#193,#114,.T.);
#251=EDGE_CURVE('',#199,#201,#115,.T.);
#252=EDGE_CURVE('',#202,#196,#116,.T.);
#253=EDGE_CURVE('',#201,#202,#117,.T.);
#254=EDGE_CURVE('',#202,#200,#118,.T.);
#255=ORIENTED_EDGE('',*,*,#203,.F.);
#256=ORIENTED_EDGE('',*,*,#204,.T.);
#257=ORIENTED_EDGE('',*,*,#205,.F.);
#258=ORIENTED_EDGE('',*,*,#206,.F.);
#259=ORIENTED_EDGE('',*,*,#207,.F.);
#260=ORIENTED_EDGE('',*,*,#206,.T.);
#261=ORIENTED_EDGE('',*,*,#208,.F.);
#262=ORIENTED_EDGE('',*,*,#209,.F.);
#263=ORIENTED_EDGE('',*,*,#210,.F.);
#264=ORIENTED_EDGE('',*,*,#209,.T.);
#265=ORIENTED_EDGE('',*,*,#211,.F.);
#266=ORIENTED_EDGE('',*,*,#212,.F.);
#267=ORIENTED_EDGE('',*,*,#213,.F.);
#268=ORIENTED_EDGE('',*,*,#212,.T.);
#269=ORIENTED_EDGE('',*,*,#214,.F.);
#270=ORIENTED_EDGE('',*,*,#204,.F.);
#271=ORIENTED_EDGE('',*,*,#214,.T.);
#272=ORIENTED_EDGE('',*,*,#211,.T.);
#273=ORIENTED_EDGE('',*,*,#208,.T.);
#274=ORIENTED_EDGE('',*,*,#205,.T.);
#275=ORIENTED_EDGE('',*,*,#215,.F.);
#276=ORIENTED_EDGE('',*,*,#216,.T.);
#277=ORIENTED_EDGE('',*,*,#217,.F.);
#278=ORIENTED_EDGE('',*,*,#218,.F.);
#279=ORIENTED_EDGE('',*,*,#219,.F.);
#280=ORIENTED_EDGE('',*,*,#218,.T.);
#281=ORIENTED_EDGE('',*,*,#220,.F.);
#282=ORIENTED_EDGE('',*,*,#221,.F.);
#283=ORIENTED_EDGE('',*,*,#222,.F.);
#284=ORIENTED_EDGE('',*,*,#221,.T.);
#285=ORIENTED_EDGE('',*,*,#223,.F.);
#286=ORIENTED_EDGE('',*,*,#224,.F.);
#287=ORIENTED_EDGE('',*,*,#225,.F.);
#288=ORIENTED_EDGE('',*,*,#216,.F.);
#289=ORIENTED_EDGE('',*,*,#226,.F.);
#290=ORIENTED_EDGE('',*,*,#224,.T.);
#291=ORIENTED_EDGE('',*,*,#225,.T.);
#292=ORIENTED_EDGE('',*,*,#227,.F.);
#293=ORIENTED_EDGE('',*,*,#228,.T.);
#294=ORIENTED_EDGE('',*,*,#229,.T.);
#295=ORIENTED_EDGE('',*,*,#217,.T.);
#296=ORIENTED_EDGE('',*,*,#229,.F.);
#297=ORIENTED_EDGE('',*,*,#230,.T.);
#298=ORIENTED_EDGE('',*,*,#231,.T.);
#299=ORIENTED_EDGE('',*,*,#220,.T.);
#300=ORIENTED_EDGE('',*,*,#231,.F.);
#301=ORIENTED_EDGE('',*,*,#232,.T.);
#302=ORIENTED_EDGE('',*,*,#233,.T.);
#303=ORIENTED_EDGE('',*,*,#223,.T.);
#304=ORIENTED_EDGE('',*,*,#233,.F.);
#305=ORIENTED_EDGE('',*,*,#234,.T.);
#306=ORIENTED_EDGE('',*,*,#227,.T.);
#307=ORIENTED_EDGE('',*,*,#228,.F.);
#308=ORIENTED_EDGE('',*,*,#234,.F.);
#309=ORIENTED_EDGE('',*,*,#232,.F.);
#310=ORIENTED_EDGE('',*,*,#230,.F.);
#311=ORIENTED_EDGE('',*,*,#203,.T.);
#312=ORIENTED_EDGE('',*,*,#207,.T.);
#313=ORIENTED_EDGE('',*,*,#210,.T.);
#314=ORIENTED_EDGE('',*,*,#213,.T.);
#315=ORIENTED_EDGE('',*,*,#235,.T.);
#316=ORIENTED_EDGE('',*,*,#236,.T.);
#317=ORIENTED_EDGE('',*,*,#237,.T.);
#318=ORIENTED_EDGE('',*,*,#238,.F.);
#319=ORIENTED_EDGE('',*,*,#239,.T.);
#320=ORIENTED_EDGE('',*,*,#240,.T.);
#321=ORIENTED_EDGE('',*,*,#241,.T.);
#322=ORIENTED_EDGE('',*,*,#236,.F.);
#323=ORIENTED_EDGE('',*,*,#242,.T.);
#324=ORIENTED_EDGE('',*,*,#243,.T.);
#325=ORIENTED_EDGE('',*,*,#244,.T.);
#326=ORIENTED_EDGE('',*,*,#240,.F.);
#327=ORIENTED_EDGE('',*,*,#245,.T.);
#328=ORIENTED_EDGE('',*,*,#243,.F.);
#329=ORIENTED_EDGE('',*,*,#246,.T.);
#330=ORIENTED_EDGE('',*,*,#238,.T.);
#331=ORIENTED_EDGE('',*,*,#245,.F.);
#332=ORIENTED_EDGE('',*,*,#247,.F.);
#333=ORIENTED_EDGE('',*,*,#248,.F.);
#334=ORIENTED_EDGE('',*,*,#249,.T.);
#335=ORIENTED_EDGE('',*,*,#237,.F.);
#336=ORIENTED_EDGE('',*,*,#250,.F.);
#337=ORIENTED_EDGE('',*,*,#251,.F.);
#338=ORIENTED_EDGE('',*,*,#247,.T.);
#339=ORIENTED_EDGE('',*,*,#235,.F.);
#340=ORIENTED_EDGE('',*,*,#246,.F.);
#341=ORIENTED_EDGE('',*,*,#242,.F.);
#342=ORIENTED_EDGE('',*,*,#239,.F.);
#343=ORIENTED_EDGE('',*,*,#215,.T.);
#344=ORIENTED_EDGE('',*,*,#219,.T.);
#345=ORIENTED_EDGE('',*,*,#222,.T.);
#346=ORIENTED_EDGE('',*,*,#226,.T.);
#347=ORIENTED_EDGE('',*,*,#241,.F.);
#348=ORIENTED_EDGE('',*,*,#252,.F.);
#349=ORIENTED_EDGE('',*,*,#253,.F.);
#350=ORIENTED_EDGE('',*,*,#250,.T.);
#351=ORIENTED_EDGE('',*,*,#244,.F.);
#352=ORIENTED_EDGE('',*,*,#249,.F.);
#353=ORIENTED_EDGE('',*,*,#254,.F.);
#354=ORIENTED_EDGE('',*,*,#252,.T.);
#355=ORIENTED_EDGE('',*,*,#248,.T.);
#356=ORIENTED_EDGE('',*,*,#251,.T.);
#357=ORIENTED_EDGE('',*,*,#253,.T.);
#358=ORIENTED_EDGE('',*,*,#254,.T.);
#359=PLANE('',#421);
#360=PLANE('',#422);
#361=PLANE('',#423);
#362=PLANE('',#424);
#363=PLANE('',#425);
#364=PLANE('',#426);
#365=PLANE('',#427);
#366=PLANE('',#428);
#367=PLANE('',#429);
#368=PLANE('',#430);
#369=PLANE('',#431);
#370=PLANE('',#432);
#371=PLANE('',#433);
#372=PLANE('',#434);
#373=PLANE('',#435);
#374=PLANE('',#436);
#375=PLANE('',#437);
#376=PLANE('',#438);
#377=PLANE('',#439);
#378=PLANE('',#440);
#379=PLANE('',#441);
#380=PLANE('',#442);
#381=PLANE('',#443);
#382=PLANE('',#444);
#383=ADVANCED_FACE('',(#17),#359,.T.);
#384=ADVANCED_FACE('',(#18),#360,.T.);
#385=ADVANCED_FACE('',(#19),#361,.T.);
#386=ADVANCED_FACE('',(#20),#362,.T.);
#387=ADVANCED_FACE('',(#21),#363,.T.);
#388=ADVANCED_FACE('',(#22),#364,.F.);
#389=ADVANCED_FACE('',(#23),#365,.F.);
#390=ADVANCED_FACE('',(#24),#366,.F.);
#391=ADVANCED_FACE('',(#25),#367,.F.);
#392=ADVANCED_FACE('',(#26),#368,.F.);
#393=ADVANCED_FACE('',(#27),#369,.F.);
#394=ADVANCED_FACE('',(#28),#370,.F.);
#395=ADVANCED_FACE('',(#29),#371,.F.);
#396=ADVANCED_FACE('',(#30,#15),#372,.T.);
#397=ADVANCED_FACE('',(#31),#373,.T.);
#398=ADVANCED_FACE('',(#32),#374,.T.);
#399=ADVANCED_FACE('',(#33),#375,.T.);
#400=ADVANCED_FACE('',(#34),#376,.T.);
#401=ADVANCED_FACE('',(#35),#377,.T.);
#402=ADVANCED_FACE('',(#36),#378,.T.);
#403=ADVANCED_FACE('',(#37,#16),#379,.T.);
#404=ADVANCED_FACE('',(#38),#380,.T.);
#405=ADVANCED_FACE('',(#39),#381,.T.);
#406=ADVANCED_FACE('',(#40),#382,.F.);
#407=CLOSED_SHELL('',(#383,#384,#385,#386,#387,#388,#389,#390,#391,#392,
#393,#394,#395,#396,#397,#398,#399,#400,#401,#402,#403,#404,#405,#406));
#408=DERIVED_UNIT_ELEMENT(#410,1.);
#409=DERIVED_UNIT_ELEMENT(#661,-3.);
#410=(
MASS_UNIT()
NAMED_UNIT(*)
SI_UNIT(.KILO.,.GRAM.)
);
#411=DERIVED_UNIT((#408,#409));
#412=MEASURE_REPRESENTATION_ITEM('density measure',
POSITIVE_RATIO_MEASURE(7850.),#411);
#413=PROPERTY_DEFINITION_REPRESENTATION(#418,#415);
#414=PROPERTY_DEFINITION_REPRESENTATION(#419,#416);
#415=REPRESENTATION('material name',(#417),#658);
#416=REPRESENTATION('density',(#412),#658);
#417=DESCRIPTIVE_REPRESENTATION_ITEM('Steel','Steel');
#418=PROPERTY_DEFINITION('material property','material name',#668);
#419=PROPERTY_DEFINITION('material property','density of part',#668);
#420=AXIS2_PLACEMENT_3D('',#547,#445,#446);
#421=AXIS2_PLACEMENT_3D('',#548,#447,#448);
#422=AXIS2_PLACEMENT_3D('',#557,#453,#454);
#423=AXIS2_PLACEMENT_3D('',#563,#458,#459);
#424=AXIS2_PLACEMENT_3D('',#569,#463,#464);
#425=AXIS2_PLACEMENT_3D('',#572,#467,#468);
#426=AXIS2_PLACEMENT_3D('',#573,#469,#470);
#427=AXIS2_PLACEMENT_3D('',#582,#475,#476);
#428=AXIS2_PLACEMENT_3D('',#588,#480,#481);
#429=AXIS2_PLACEMENT_3D('',#594,#485,#486);
#430=AXIS2_PLACEMENT_3D('',#597,#489,#490);
#431=AXIS2_PLACEMENT_3D('',#603,#494,#495);
#432=AXIS2_PLACEMENT_3D('',#607,#498,#499);
#433=AXIS2_PLACEMENT_3D('',#611,#502,#503);
#434=AXIS2_PLACEMENT_3D('',#613,#505,#506);
#435=AXIS2_PLACEMENT_3D('',#614,#507,#508);
#436=AXIS2_PLACEMENT_3D('',#623,#513,#514);
#437=AXIS2_PLACEMENT_3D('',#629,#518,#519);
#438=AXIS2_PLACEMENT_3D('',#635,#523,#524);
#439=AXIS2_PLACEMENT_3D('',#638,#527,#528);
#440=AXIS2_PLACEMENT_3D('',#644,#532,#533);
#441=AXIS2_PLACEMENT_3D('',#648,#536,#537);
#442=AXIS2_PLACEMENT_3D('',#649,#538,#539);
#443=AXIS2_PLACEMENT_3D('',#653,#542,#543);
#444=AXIS2_PLACEMENT_3D('',#655,#545,#546);
#445=DIRECTION('axis',(0.,0.,1.));
#446=DIRECTION('refdir',(1.,0.,0.));
#447=DIRECTION('center_axis',(1.,0.,0.));
#448=DIRECTION('ref_axis',(0.,1.,0.));
#449=DIRECTION('',(0.,-1.,0.));
#450=DIRECTION('',(0.,0.,1.));
#451=DIRECTION('',(0.,1.,0.));
#452=DIRECTION('',(0.,0.,1.));
#453=DIRECTION('center_axis',(0.,-1.,0.));
#454=DIRECTION('ref_axis',(1.,0.,0.));
#455=DIRECTION('',(-1.,0.,0.));
#456=DIRECTION('',(1.,0.,0.));
#457=DIRECTION('',(0.,0.,1.));
#458=DIRECTION('center_axis',(-1.,0.,0.));
#459=DIRECTION('ref_axis',(0.,-1.,0.));
#460=DIRECTION('',(0.,1.,0.));
#461=DIRECTION('',(0.,-1.,0.));
#462=DIRECTION('',(0.,0.,1.));
#463=DIRECTION('center_axis',(0.,1.,0.));
#464=DIRECTION('ref_axis',(-1.,0.,0.));
#465=DIRECTION('',(1.,0.,0.));
#466=DIRECTION('',(-1.,0.,0.));
#467=DIRECTION('center_axis',(0.,0.,1.));
#468=DIRECTION('ref_axis',(1.,0.,0.));
#469=DIRECTION('center_axis',(0.707106781186548,0.,0.707106781186548));
#470=DIRECTION('ref_axis',(0.707106781186548,0.,-0.707106781186548));
#471=DIRECTION('',(0.,-1.,0.));
#472=DIRECTION('',(-0.577350269189626,-0.577350269189626,0.577350269189626));
#473=DIRECTION('',(0.,1.,0.));
#474=DIRECTION('',(0.577350269189626,-0.577350269189626,-0.577350269189626));
#475=DIRECTION('center_axis',(0.,-0.707106781186548,0.707106781186548));
#476=DIRECTION('ref_axis',(1.,0.,0.));
#477=DIRECTION('',(-1.,0.,0.));
#478=DIRECTION('',(1.,0.,0.));
#479=DIRECTION('',(-0.577350269189626,-0.577350269189626,-0.577350269189626));
#480=DIRECTION('center_axis',(-0.707106781186548,0.,0.707106781186548));
#481=DIRECTION('ref_axis',(0.707106781186548,0.,0.707106781186548));
#482=DIRECTION('',(0.,1.,0.));
#483=DIRECTION('',(0.,-1.,0.));
#484=DIRECTION('',(-0.577350269189626,0.577350269189626,-0.577350269189626));
#485=DIRECTION('center_axis',(0.,0.707106781186548,0.707106781186548));
#486=DIRECTION('ref_axis',(1.,0.,0.));
#487=DIRECTION('',(-1.,0.,0.));
#488=DIRECTION('',(1.,0.,0.));
#489=DIRECTION('center_axis',(0.,1.,0.));
#490=DIRECTION('ref_axis',(-1.,0.,0.));
#491=DIRECTION('',(0.,0.,1.));
#492=DIRECTION('',(1.,0.,0.));
#493=DIRECTION('',(0.,0.,-1.));
#494=DIRECTION('center_axis',(1.,0.,0.));
#495=DIRECTION('ref_axis',(0.,1.,0.));
#496=DIRECTION('',(0.,-1.,0.));
#497=DIRECTION('',(0.,0.,-1.));
#498=DIRECTION('center_axis',(0.,-1.,0.));
#499=DIRECTION('ref_axis',(1.,0.,0.));
#500=DIRECTION('',(-1.,0.,0.));
#501=DIRECTION('',(0.,0.,-1.));
#502=DIRECTION('center_axis',(-1.,0.,0.));
#503=DIRECTION('ref_axis',(0.,-1.,0.));
#504=DIRECTION('',(0.,1.,0.));
#505=DIRECTION('center_axis',(0.,0.,1.));
#506=DIRECTION('ref_axis',(1.,0.,0.));
#507=DIRECTION('center_axis',(0.707106781186548,0.,0.707106781186548));
#508=DIRECTION('ref_axis',(0.707106781186548,0.,-0.707106781186548));
#509=DIRECTION('',(0.,-1.,0.));
#510=DIRECTION('',(0.577350269189626,-0.577350269189626,-0.577350269189626));
#511=DIRECTION('',(0.,1.,0.));
#512=DIRECTION('',(0.577350269189626,0.577350269189626,-0.577350269189626));
#513=DIRECTION('center_axis',(0.,-0.707106781186548,0.707106781186548));
#514=DIRECTION('ref_axis',(1.,0.,0.));
#515=DIRECTION('',(-1.,0.,0.));
#516=DIRECTION('',(-0.577350269189626,-0.577350269189626,-0.577350269189626));
#517=DIRECTION('',(1.,0.,0.));
#518=DIRECTION('center_axis',(-0.707106781186548,0.,0.707106781186548));
#519=DIRECTION('ref_axis',(0.707106781186548,0.,0.707106781186548));
#520=DIRECTION('',(0.,1.,0.));
#521=DIRECTION('',(-0.577350269189626,0.577350269189626,-0.577350269189626));
#522=DIRECTION('',(0.,-1.,0.));
#523=DIRECTION('center_axis',(0.,0.707106781186548,0.707106781186548));
#524=DIRECTION('ref_axis',(1.,0.,0.));
#525=DIRECTION('',(-1.,0.,0.));
#526=DIRECTION('',(1.,0.,0.));
#527=DIRECTION('center_axis',(0.,1.,0.));
#528=DIRECTION('ref_axis',(-1.,0.,0.));
#529=DIRECTION('',(0.,0.,1.));
#530=DIRECTION('',(1.,0.,0.));
#531=DIRECTION('',(0.,0.,1.));
#532=DIRECTION('center_axis',(1.,0.,0.));
#533=DIRECTION('ref_axis',(0.,1.,0.));
#534=DIRECTION('',(0.,0.,1.));
#535=DIRECTION('',(0.,-1.,0.));
#536=DIRECTION('center_axis',(0.,0.,1.));
#537=DIRECTION('ref_axis',(1.,0.,0.));
#538=DIRECTION('center_axis',(0.,-1.,0.));
#539=DIRECTION('ref_axis',(1.,0.,0.));
#540=DIRECTION('',(0.,0.,1.));
#541=DIRECTION('',(-1.,0.,0.));
#542=DIRECTION('center_axis',(-1.,0.,0.));
#543=DIRECTION('ref_axis',(0.,-1.,0.));
#544=DIRECTION('',(0.,1.,0.));
#545=DIRECTION('center_axis',(0.,0.,1.));
#546=DIRECTION('ref_axis',(1.,0.,0.));
#547=CARTESIAN_POINT('',(0.,0.,0.));
#548=CARTESIAN_POINT('Origin',(38.,-38.,2.));
#549=CARTESIAN_POINT('',(38.,38.,2.));
#550=CARTESIAN_POINT('',(38.,-38.,2.));
#551=CARTESIAN_POINT('',(38.,-19.,2.));
#552=CARTESIAN_POINT('',(38.,38.,37.));
#553=CARTESIAN_POINT('',(38.,38.,2.));
#554=CARTESIAN_POINT('',(38.,-38.,37.));
#555=CARTESIAN_POINT('',(38.,38.,37.));
#556=CARTESIAN_POINT('',(38.,-38.,2.));
#557=CARTESIAN_POINT('Origin',(-38.,-38.,2.));
#558=CARTESIAN_POINT('',(-38.,-38.,2.));
#559=CARTESIAN_POINT('',(-19.,-38.,2.));
#560=CARTESIAN_POINT('',(-38.,-38.,37.));
#561=CARTESIAN_POINT('',(38.,-38.,37.));
#562=CARTESIAN_POINT('',(-38.,-38.,2.));
#563=CARTESIAN_POINT('Origin',(-38.,38.,2.));
#564=CARTESIAN_POINT('',(-38.,38.,2.));
#565=CARTESIAN_POINT('',(-38.,19.,2.));
#566=CARTESIAN_POINT('',(-38.,38.,37.));
#567=CARTESIAN_POINT('',(-38.,-38.,37.));
#568=CARTESIAN_POINT('',(-38.,38.,2.));
#569=CARTESIAN_POINT('Origin',(38.,38.,2.));
#570=CARTESIAN_POINT('',(19.,38.,2.));
#571=CARTESIAN_POINT('',(-38.,38.,37.));
#572=CARTESIAN_POINT('Origin',(0.,0.,37.));
#573=CARTESIAN_POINT('Origin',(40.0857864376269,-21.25,42.5857864376269));
#574=CARTESIAN_POINT('',(37.6715728752538,37.6715728752538,45.));
#575=CARTESIAN_POINT('',(37.6715728752538,-37.6715728752538,45.));
#576=CARTESIAN_POINT('',(37.6715728752538,-10.625,45.));
#577=CARTESIAN_POINT('',(40.5,40.5,42.1715728752538));
#578=CARTESIAN_POINT('',(26.7238576250846,26.7238576250846,55.9477152501692));
#579=CARTESIAN_POINT('',(40.5,-40.5,42.1715728752538));
#580=CARTESIAN_POINT('',(40.5,-31.875,42.1715728752538));
#581=CARTESIAN_POINT('',(26.7238576250846,-26.7238576250846,55.9477152501692));
#582=CARTESIAN_POINT('Origin',(-21.25,-40.0857864376269,42.5857864376269));
#583=CARTESIAN_POINT('',(-37.6715728752538,-37.6715728752538,45.));
#584=CARTESIAN_POINT('',(-10.625,-37.6715728752538,45.));
#585=CARTESIAN_POINT('',(-40.5,-40.5,42.1715728752538));
#586=CARTESIAN_POINT('',(-31.875,-40.5,42.1715728752538));
#587=CARTESIAN_POINT('',(-26.7238576250846,-26.7238576250846,55.9477152501692));
#588=CARTESIAN_POINT('Origin',(-40.0857864376269,21.25,42.5857864376269));
#589=CARTESIAN_POINT('',(-37.6715728752538,37.6715728752538,45.));
#590=CARTESIAN_POINT('',(-37.6715728752538,10.625,45.));
#591=CARTESIAN_POINT('',(-40.5,40.5,42.1715728752538));
#592=CARTESIAN_POINT('',(-40.5,31.875,42.1715728752538));
#593=CARTESIAN_POINT('',(-26.7238576250846,26.7238576250846,55.9477152501692));
#594=CARTESIAN_POINT('Origin',(21.25,40.0857864376269,42.5857864376269));
#595=CARTESIAN_POINT('',(31.875,40.5,42.1715728752538));
#596=CARTESIAN_POINT('',(10.625,37.6715728752538,45.));
#597=CARTESIAN_POINT('Origin',(42.5,40.5,0.));
#598=CARTESIAN_POINT('',(-40.5,40.5,2.));
#599=CARTESIAN_POINT('',(-40.5,40.5,0.));
#600=CARTESIAN_POINT('',(40.5,40.5,2.));
#601=CARTESIAN_POINT('',(21.25,40.5,2.));
#602=CARTESIAN_POINT('',(40.5,40.5,0.));
#603=CARTESIAN_POINT('Origin',(40.5,-42.5,0.));
#604=CARTESIAN_POINT('',(40.5,-40.5,2.));
#605=CARTESIAN_POINT('',(40.5,-21.25,2.));
#606=CARTESIAN_POINT('',(40.5,-40.5,0.));
#607=CARTESIAN_POINT('Origin',(-42.5,-40.5,0.));
#608=CARTESIAN_POINT('',(-40.5,-40.5,2.));
#609=CARTESIAN_POINT('',(-21.25,-40.5,2.));
#610=CARTESIAN_POINT('',(-40.5,-40.5,0.));
#611=CARTESIAN_POINT('Origin',(-40.5,42.5,0.));
#612=CARTESIAN_POINT('',(-40.5,21.25,2.));
#613=CARTESIAN_POINT('Origin',(0.,0.,2.));
#614=CARTESIAN_POINT('Origin',(41.5,-21.25,44.));
#615=CARTESIAN_POINT('',(40.5,40.5,45.));
#616=CARTESIAN_POINT('',(40.5,-40.5,45.));
#617=CARTESIAN_POINT('',(40.5,-21.25,45.));
#618=CARTESIAN_POINT('',(42.5,-42.5,43.));
#619=CARTESIAN_POINT('',(40.5,-40.5,45.));
#620=CARTESIAN_POINT('',(42.5,42.5,43.));
#621=CARTESIAN_POINT('',(42.5,-21.25,43.));
#622=CARTESIAN_POINT('',(40.5,40.5,45.));
#623=CARTESIAN_POINT('Origin',(-21.25,-41.5,44.));
#624=CARTESIAN_POINT('',(-40.5,-40.5,45.));
#625=CARTESIAN_POINT('',(-21.25,-40.5,45.));
#626=CARTESIAN_POINT('',(-42.5,-42.5,43.));
#627=CARTESIAN_POINT('',(-40.5,-40.5,45.));
#628=CARTESIAN_POINT('',(-21.25,-42.5,43.));
#629=CARTESIAN_POINT('Origin',(-41.5,21.25,44.));
#630=CARTESIAN_POINT('',(-40.5,40.5,45.));
#631=CARTESIAN_POINT('',(-40.5,21.25,45.));
#632=CARTESIAN_POINT('',(-42.5,42.5,43.));
#633=CARTESIAN_POINT('',(-40.5,40.5,45.));
#634=CARTESIAN_POINT('',(-42.5,21.25,43.));
#635=CARTESIAN_POINT('Origin',(21.25,41.5,44.));
#636=CARTESIAN_POINT('',(21.25,42.5,43.));
#637=CARTESIAN_POINT('',(21.25,40.5,45.));
#638=CARTESIAN_POINT('Origin',(42.5,42.5,0.));
#639=CARTESIAN_POINT('',(42.5,42.5,0.));
#640=CARTESIAN_POINT('',(42.5,42.5,0.));
#641=CARTESIAN_POINT('',(-42.5,42.5,0.));
#642=CARTESIAN_POINT('',(-42.5,42.5,0.));
#643=CARTESIAN_POINT('',(-42.5,42.5,0.));
#644=CARTESIAN_POINT('Origin',(42.5,-42.5,0.));
#645=CARTESIAN_POINT('',(42.5,-42.5,0.));
#646=CARTESIAN_POINT('',(42.5,-42.5,0.));
#647=CARTESIAN_POINT('',(42.5,42.5,0.));
#648=CARTESIAN_POINT('Origin',(0.,0.,45.));
#649=CARTESIAN_POINT('Origin',(-42.5,-42.5,0.));
#650=CARTESIAN_POINT('',(-42.5,-42.5,0.));
#651=CARTESIAN_POINT('',(-42.5,-42.5,0.));
#652=CARTESIAN_POINT('',(42.5,-42.5,0.));
#653=CARTESIAN_POINT('Origin',(-42.5,42.5,0.));
#654=CARTESIAN_POINT('',(-42.5,-42.5,0.));
#655=CARTESIAN_POINT('Origin',(0.,0.,0.));
#656=UNCERTAINTY_MEASURE_WITH_UNIT(LENGTH_MEASURE(0.01),#660,
'DISTANCE_ACCURACY_VALUE',
'Maximum model space distance between geometric entities at asserted c
onnectivities');
#657=UNCERTAINTY_MEASURE_WITH_UNIT(LENGTH_MEASURE(0.01),#660,
'DISTANCE_ACCURACY_VALUE',
'Maximum model space distance between geometric entities at asserted c
onnectivities');
#658=(
GEOMETRIC_REPRESENTATION_CONTEXT(3)
GLOBAL_UNCERTAINTY_ASSIGNED_CONTEXT((#656))
GLOBAL_UNIT_ASSIGNED_CONTEXT((#660,#662,#663))
REPRESENTATION_CONTEXT('','3D')
);
#659=(
GEOMETRIC_REPRESENTATION_CONTEXT(3)
GLOBAL_UNCERTAINTY_ASSIGNED_CONTEXT((#657))
GLOBAL_UNIT_ASSIGNED_CONTEXT((#660,#662,#663))
REPRESENTATION_CONTEXT('','3D')
);
#660=(
LENGTH_UNIT()
NAMED_UNIT(*)
SI_UNIT(.MILLI.,.METRE.)
);
#661=(
LENGTH_UNIT()
NAMED_UNIT(*)
SI_UNIT($,.METRE.)
);
#662=(
NAMED_UNIT(*)
PLANE_ANGLE_UNIT()
SI_UNIT($,.RADIAN.)
);
#663=(
NAMED_UNIT(*)
SI_UNIT($,.STERADIAN.)
SOLID_ANGLE_UNIT()
);
#664=SHAPE_DEFINITION_REPRESENTATION(#665,#666);
#665=PRODUCT_DEFINITION_SHAPE('',$,#668);
#666=SHAPE_REPRESENTATION('',(#420),#658);
#667=PRODUCT_DEFINITION_CONTEXT('part definition',#672,'design');
#668=PRODUCT_DEFINITION('2026-07-04-18-01-17-097','battery pack',#669,#667);
#669=PRODUCT_DEFINITION_FORMATION('',$,#674);
#670=PRODUCT_RELATED_PRODUCT_CATEGORY('battery pack','battery pack',(#674));
#671=APPLICATION_PROTOCOL_DEFINITION('international standard',
'automotive_design',2009,#672);
#672=APPLICATION_CONTEXT(
'Core Data for Automotive Mechanical Design Process');
#673=PRODUCT_CONTEXT('part definition',#672,'mechanical');
#674=PRODUCT('2026-07-04-18-01-17-097','battery pack',$,(#673));
#675=PRESENTATION_STYLE_ASSIGNMENT((#677));
#676=PRESENTATION_STYLE_ASSIGNMENT((#678));
#677=SURFACE_STYLE_USAGE(.BOTH.,#679);
#678=SURFACE_STYLE_USAGE(.BOTH.,#680);
#679=SURFACE_SIDE_STYLE('',(#681));
#680=SURFACE_SIDE_STYLE('',(#682));
#681=SURFACE_STYLE_FILL_AREA(#683);
#682=SURFACE_STYLE_FILL_AREA(#684);
#683=FILL_AREA_STYLE('Steel - Satin',(#685));
#684=FILL_AREA_STYLE('ABS (White)',(#686));
#685=FILL_AREA_STYLE_COLOUR('Steel - Satin',#687);
#686=FILL_AREA_STYLE_COLOUR('ABS (White)',#688);
#687=COLOUR_RGB('Steel - Satin',0.627450980392157,0.627450980392157,0.627450980392157);
#688=COLOUR_RGB('ABS (White)',0.964705882352941,0.964705882352941,0.952941176470588);
ENDSEC;
END-ISO-10303-21;
