ISO-10303-21;
HEADER;
/* Generated by software containing ST-Developer
 * from STEP Tools, Inc. (www.steptools.com) 
 */

FILE_DESCRIPTION(
/* description */ (''),
/* implementation_level */ '2;1');

FILE_NAME(
/* name */ 'battery pack.step',
/* time_stamp */ '2026-07-31T20:34:06+05:30',
/* author */ (''),
/* organization */ (''),
/* preprocessor_version */ 'ST-DEVELOPER v20.1',
/* originating_system */ 'Autodesk Translation Framework v15.8.0.0',
/* authorisation */ '');

FILE_SCHEMA (('AUTOMOTIVE_DESIGN { 1 0 10303 214 3 1 1 }'));
ENDSEC;

DATA;
#10=MECHANICAL_DESIGN_GEOMETRIC_PRESENTATION_REPRESENTATION('',(#13),#375);
#11=SHAPE_REPRESENTATION_RELATIONSHIP('SRR','None',#382,#12);
#12=ADVANCED_BREP_SHAPE_REPRESENTATION('',(#14),#374);
#13=STYLED_ITEM('',(#392),#14);
#14=MANIFOLD_SOLID_BREP('Body1',#227);
#15=FACE_OUTER_BOUND('',#29,.T.);
#16=FACE_OUTER_BOUND('',#30,.T.);
#17=FACE_OUTER_BOUND('',#31,.T.);
#18=FACE_OUTER_BOUND('',#32,.T.);
#19=FACE_OUTER_BOUND('',#33,.T.);
#20=FACE_OUTER_BOUND('',#34,.T.);
#21=FACE_OUTER_BOUND('',#35,.T.);
#22=FACE_OUTER_BOUND('',#36,.T.);
#23=FACE_OUTER_BOUND('',#37,.T.);
#24=FACE_OUTER_BOUND('',#38,.T.);
#25=FACE_OUTER_BOUND('',#39,.T.);
#26=FACE_OUTER_BOUND('',#40,.T.);
#27=FACE_OUTER_BOUND('',#41,.T.);
#28=FACE_OUTER_BOUND('',#42,.T.);
#29=EDGE_LOOP('',(#143,#144,#145,#146));
#30=EDGE_LOOP('',(#147,#148,#149,#150));
#31=EDGE_LOOP('',(#151,#152,#153,#154));
#32=EDGE_LOOP('',(#155,#156,#157,#158));
#33=EDGE_LOOP('',(#159,#160,#161,#162));
#34=EDGE_LOOP('',(#163,#164,#165,#166));
#35=EDGE_LOOP('',(#167,#168,#169,#170));
#36=EDGE_LOOP('',(#171,#172,#173,#174));
#37=EDGE_LOOP('',(#175,#176,#177,#178));
#38=EDGE_LOOP('',(#179,#180,#181,#182));
#39=EDGE_LOOP('',(#183,#184,#185,#186));
#40=EDGE_LOOP('',(#187,#188,#189,#190));
#41=EDGE_LOOP('',(#191,#192,#193,#194));
#42=EDGE_LOOP('',(#195,#196,#197,#198));
#43=LINE('',#317,#71);
#44=LINE('',#319,#72);
#45=LINE('',#321,#73);
#46=LINE('',#322,#74);
#47=LINE('',#325,#75);
#48=LINE('',#327,#76);
#49=LINE('',#328,#77);
#50=LINE('',#331,#78);
#51=LINE('',#333,#79);
#52=LINE('',#334,#80);
#53=LINE('',#336,#81);
#54=LINE('',#337,#82);
#55=LINE('',#341,#83);
#56=LINE('',#343,#84);
#57=LINE('',#344,#85);
#58=LINE('',#347,#86);
#59=LINE('',#348,#87);
#60=LINE('',#351,#88);
#61=LINE('',#352,#89);
#62=LINE('',#354,#90);
#63=LINE('',#357,#91);
#64=LINE('',#359,#92);
#65=LINE('',#360,#93);
#66=LINE('',#363,#94);
#67=LINE('',#364,#95);
#68=LINE('',#367,#96);
#69=LINE('',#368,#97);
#70=LINE('',#370,#98);
#71=VECTOR('',#259,10.);
#72=VECTOR('',#260,10.);
#73=VECTOR('',#261,10.);
#74=VECTOR('',#262,10.);
#75=VECTOR('',#265,10.);
#76=VECTOR('',#266,10.);
#77=VECTOR('',#267,10.);
#78=VECTOR('',#270,10.);
#79=VECTOR('',#271,10.);
#80=VECTOR('',#272,10.);
#81=VECTOR('',#275,10.);
#82=VECTOR('',#276,10.);
#83=VECTOR('',#281,10.);
#84=VECTOR('',#282,10.);
#85=VECTOR('',#283,10.);
#86=VECTOR('',#286,10.);
#87=VECTOR('',#287,10.);
#88=VECTOR('',#290,10.);
#89=VECTOR('',#291,10.);
#90=VECTOR('',#294,10.);
#91=VECTOR('',#297,10.);
#92=VECTOR('',#298,10.);
#93=VECTOR('',#299,10.);
#94=VECTOR('',#302,10.);
#95=VECTOR('',#303,10.);
#96=VECTOR('',#306,10.);
#97=VECTOR('',#307,10.);
#98=VECTOR('',#310,10.);
#99=VERTEX_POINT('',#315);
#100=VERTEX_POINT('',#316);
#101=VERTEX_POINT('',#318);
#102=VERTEX_POINT('',#320);
#103=VERTEX_POINT('',#324);
#104=VERTEX_POINT('',#326);
#105=VERTEX_POINT('',#330);
#106=VERTEX_POINT('',#332);
#107=VERTEX_POINT('',#340);
#108=VERTEX_POINT('',#342);
#109=VERTEX_POINT('',#346);
#110=VERTEX_POINT('',#350);
#111=VERTEX_POINT('',#356);
#112=VERTEX_POINT('',#358);
#113=VERTEX_POINT('',#362);
#114=VERTEX_POINT('',#366);
#115=EDGE_CURVE('',#99,#100,#43,.T.);
#116=EDGE_CURVE('',#99,#101,#44,.T.);
#117=EDGE_CURVE('',#101,#102,#45,.T.);
#118=EDGE_CURVE('',#100,#102,#46,.T.);
#119=EDGE_CURVE('',#103,#99,#47,.T.);
#120=EDGE_CURVE('',#103,#104,#48,.T.);
#121=EDGE_CURVE('',#104,#101,#49,.T.);
#122=EDGE_CURVE('',#105,#103,#50,.T.);
#123=EDGE_CURVE('',#105,#106,#51,.T.);
#124=EDGE_CURVE('',#106,#104,#52,.T.);
#125=EDGE_CURVE('',#100,#105,#53,.T.);
#126=EDGE_CURVE('',#102,#106,#54,.T.);
#127=EDGE_CURVE('',#105,#107,#55,.T.);
#128=EDGE_CURVE('',#107,#108,#56,.T.);
#129=EDGE_CURVE('',#100,#108,#57,.T.);
#130=EDGE_CURVE('',#103,#109,#58,.T.);
#131=EDGE_CURVE('',#109,#107,#59,.T.);
#132=EDGE_CURVE('',#99,#110,#60,.T.);
#133=EDGE_CURVE('',#110,#109,#61,.T.);
#134=EDGE_CURVE('',#108,#110,#62,.T.);
#135=EDGE_CURVE('',#111,#108,#63,.T.);
#136=EDGE_CURVE('',#112,#111,#64,.T.);
#137=EDGE_CURVE('',#112,#110,#65,.T.);
#138=EDGE_CURVE('',#113,#107,#66,.T.);
#139=EDGE_CURVE('',#111,#113,#67,.T.);
#140=EDGE_CURVE('',#114,#109,#68,.T.);
#141=EDGE_CURVE('',#113,#114,#69,.T.);
#142=EDGE_CURVE('',#114,#112,#70,.T.);
#143=ORIENTED_EDGE('',*,*,#115,.F.);
#144=ORIENTED_EDGE('',*,*,#116,.T.);
#145=ORIENTED_EDGE('',*,*,#117,.T.);
#146=ORIENTED_EDGE('',*,*,#118,.F.);
#147=ORIENTED_EDGE('',*,*,#119,.F.);
#148=ORIENTED_EDGE('',*,*,#120,.T.);
#149=ORIENTED_EDGE('',*,*,#121,.T.);
#150=ORIENTED_EDGE('',*,*,#116,.F.);
#151=ORIENTED_EDGE('',*,*,#122,.F.);
#152=ORIENTED_EDGE('',*,*,#123,.T.);
#153=ORIENTED_EDGE('',*,*,#124,.T.);
#154=ORIENTED_EDGE('',*,*,#120,.F.);
#155=ORIENTED_EDGE('',*,*,#125,.F.);
#156=ORIENTED_EDGE('',*,*,#118,.T.);
#157=ORIENTED_EDGE('',*,*,#126,.T.);
#158=ORIENTED_EDGE('',*,*,#123,.F.);
#159=ORIENTED_EDGE('',*,*,#126,.F.);
#160=ORIENTED_EDGE('',*,*,#117,.F.);
#161=ORIENTED_EDGE('',*,*,#121,.F.);
#162=ORIENTED_EDGE('',*,*,#124,.F.);
#163=ORIENTED_EDGE('',*,*,#125,.T.);
#164=ORIENTED_EDGE('',*,*,#127,.T.);
#165=ORIENTED_EDGE('',*,*,#128,.T.);
#166=ORIENTED_EDGE('',*,*,#129,.F.);
#167=ORIENTED_EDGE('',*,*,#122,.T.);
#168=ORIENTED_EDGE('',*,*,#130,.T.);
#169=ORIENTED_EDGE('',*,*,#131,.T.);
#170=ORIENTED_EDGE('',*,*,#127,.F.);
#171=ORIENTED_EDGE('',*,*,#119,.T.);
#172=ORIENTED_EDGE('',*,*,#132,.T.);
#173=ORIENTED_EDGE('',*,*,#133,.T.);
#174=ORIENTED_EDGE('',*,*,#130,.F.);
#175=ORIENTED_EDGE('',*,*,#134,.T.);
#176=ORIENTED_EDGE('',*,*,#132,.F.);
#177=ORIENTED_EDGE('',*,*,#115,.T.);
#178=ORIENTED_EDGE('',*,*,#129,.T.);
#179=ORIENTED_EDGE('',*,*,#134,.F.);
#180=ORIENTED_EDGE('',*,*,#135,.F.);
#181=ORIENTED_EDGE('',*,*,#136,.F.);
#182=ORIENTED_EDGE('',*,*,#137,.T.);
#183=ORIENTED_EDGE('',*,*,#128,.F.);
#184=ORIENTED_EDGE('',*,*,#138,.F.);
#185=ORIENTED_EDGE('',*,*,#139,.F.);
#186=ORIENTED_EDGE('',*,*,#135,.T.);
#187=ORIENTED_EDGE('',*,*,#131,.F.);
#188=ORIENTED_EDGE('',*,*,#140,.F.);
#189=ORIENTED_EDGE('',*,*,#141,.F.);
#190=ORIENTED_EDGE('',*,*,#138,.T.);
#191=ORIENTED_EDGE('',*,*,#133,.F.);
#192=ORIENTED_EDGE('',*,*,#137,.F.);
#193=ORIENTED_EDGE('',*,*,#142,.F.);
#194=ORIENTED_EDGE('',*,*,#140,.T.);
#195=ORIENTED_EDGE('',*,*,#136,.T.);
#196=ORIENTED_EDGE('',*,*,#139,.T.);
#197=ORIENTED_EDGE('',*,*,#141,.T.);
#198=ORIENTED_EDGE('',*,*,#142,.T.);
#199=PLANE('',#241);
#200=PLANE('',#242);
#201=PLANE('',#243);
#202=PLANE('',#244);
#203=PLANE('',#245);
#204=PLANE('',#246);
#205=PLANE('',#247);
#206=PLANE('',#248);
#207=PLANE('',#249);
#208=PLANE('',#250);
#209=PLANE('',#251);
#210=PLANE('',#252);
#211=PLANE('',#253);
#212=PLANE('',#254);
#213=ADVANCED_FACE('',(#15),#199,.F.);
#214=ADVANCED_FACE('',(#16),#200,.F.);
#215=ADVANCED_FACE('',(#17),#201,.F.);
#216=ADVANCED_FACE('',(#18),#202,.F.);
#217=ADVANCED_FACE('',(#19),#203,.F.);
#218=ADVANCED_FACE('',(#20),#204,.T.);
#219=ADVANCED_FACE('',(#21),#205,.T.);
#220=ADVANCED_FACE('',(#22),#206,.T.);
#221=ADVANCED_FACE('',(#23),#207,.T.);
#222=ADVANCED_FACE('',(#24),#208,.T.);
#223=ADVANCED_FACE('',(#25),#209,.T.);
#224=ADVANCED_FACE('',(#26),#210,.T.);
#225=ADVANCED_FACE('',(#27),#211,.T.);
#226=ADVANCED_FACE('',(#28),#212,.F.);
#227=CLOSED_SHELL('',(#213,#214,#215,#216,#217,#218,#219,#220,#221,#222,
#223,#224,#225,#226));
#228=DERIVED_UNIT_ELEMENT(#230,1.);
#229=DERIVED_UNIT_ELEMENT(#377,-3.);
#230=(
MASS_UNIT()
NAMED_UNIT(*)
SI_UNIT(.KILO.,.GRAM.)
);
#231=DERIVED_UNIT((#228,#229));
#232=MEASURE_REPRESENTATION_ITEM('density measure',
POSITIVE_RATIO_MEASURE(7850.),#231);
#233=PROPERTY_DEFINITION_REPRESENTATION(#238,#235);
#234=PROPERTY_DEFINITION_REPRESENTATION(#239,#236);
#235=REPRESENTATION('material name',(#237),#374);
#236=REPRESENTATION('density',(#232),#374);
#237=DESCRIPTIVE_REPRESENTATION_ITEM('Steel','Steel');
#238=PROPERTY_DEFINITION('material property','material name',#384);
#239=PROPERTY_DEFINITION('material property','density of part',#384);
#240=AXIS2_PLACEMENT_3D('',#313,#255,#256);
#241=AXIS2_PLACEMENT_3D('',#314,#257,#258);
#242=AXIS2_PLACEMENT_3D('',#323,#263,#264);
#243=AXIS2_PLACEMENT_3D('',#329,#268,#269);
#244=AXIS2_PLACEMENT_3D('',#335,#273,#274);
#245=AXIS2_PLACEMENT_3D('',#338,#277,#278);
#246=AXIS2_PLACEMENT_3D('',#339,#279,#280);
#247=AXIS2_PLACEMENT_3D('',#345,#284,#285);
#248=AXIS2_PLACEMENT_3D('',#349,#288,#289);
#249=AXIS2_PLACEMENT_3D('',#353,#292,#293);
#250=AXIS2_PLACEMENT_3D('',#355,#295,#296);
#251=AXIS2_PLACEMENT_3D('',#361,#300,#301);
#252=AXIS2_PLACEMENT_3D('',#365,#304,#305);
#253=AXIS2_PLACEMENT_3D('',#369,#308,#309);
#254=AXIS2_PLACEMENT_3D('',#371,#311,#312);
#255=DIRECTION('axis',(0.,0.,1.));
#256=DIRECTION('refdir',(1.,0.,0.));
#257=DIRECTION('center_axis',(0.,1.,0.));
#258=DIRECTION('ref_axis',(1.,0.,0.));
#259=DIRECTION('',(1.,0.,0.));
#260=DIRECTION('',(0.,0.,-1.));
#261=DIRECTION('',(1.,0.,0.));
#262=DIRECTION('',(0.,0.,-1.));
#263=DIRECTION('center_axis',(-1.,0.,0.));
#264=DIRECTION('ref_axis',(0.,1.,0.));
#265=DIRECTION('',(0.,1.,0.));
#266=DIRECTION('',(0.,0.,-1.));
#267=DIRECTION('',(0.,1.,0.));
#268=DIRECTION('center_axis',(0.,-1.,0.));
#269=DIRECTION('ref_axis',(-1.,0.,0.));
#270=DIRECTION('',(-1.,0.,0.));
#271=DIRECTION('',(0.,0.,-1.));
#272=DIRECTION('',(-1.,0.,0.));
#273=DIRECTION('center_axis',(1.,0.,0.));
#274=DIRECTION('ref_axis',(0.,-1.,0.));
#275=DIRECTION('',(0.,-1.,0.));
#276=DIRECTION('',(0.,-1.,0.));
#277=DIRECTION('center_axis',(0.,0.,-1.));
#278=DIRECTION('ref_axis',(-1.,0.,0.));
#279=DIRECTION('center_axis',(0.707106781186548,0.,0.707106781186548));
#280=DIRECTION('ref_axis',(0.707106781186548,0.,-0.707106781186548));
#281=DIRECTION('',(0.577350269189626,-0.577350269189626,-0.577350269189626));
#282=DIRECTION('',(0.,1.,0.));
#283=DIRECTION('',(0.577350269189626,0.577350269189626,-0.577350269189626));
#284=DIRECTION('center_axis',(0.,-0.707106781186548,0.707106781186548));
#285=DIRECTION('ref_axis',(1.,0.,0.));
#286=DIRECTION('',(-0.577350269189626,-0.577350269189626,-0.577350269189626));
#287=DIRECTION('',(1.,0.,0.));
#288=DIRECTION('center_axis',(-0.707106781186548,0.,0.707106781186548));
#289=DIRECTION('ref_axis',(0.707106781186548,0.,0.707106781186548));
#290=DIRECTION('',(-0.577350269189626,0.577350269189626,-0.577350269189626));
#291=DIRECTION('',(0.,-1.,0.));
#292=DIRECTION('center_axis',(0.,0.707106781186548,0.707106781186548));
#293=DIRECTION('ref_axis',(1.,0.,0.));
#294=DIRECTION('',(-1.,0.,0.));
#295=DIRECTION('center_axis',(0.,1.,0.));
#296=DIRECTION('ref_axis',(-1.,0.,0.));
#297=DIRECTION('',(0.,0.,1.));
#298=DIRECTION('',(1.,0.,0.));
#299=DIRECTION('',(0.,0.,1.));
#300=DIRECTION('center_axis',(1.,0.,0.));
#301=DIRECTION('ref_axis',(0.,1.,0.));
#302=DIRECTION('',(0.,0.,1.));
#303=DIRECTION('',(0.,-1.,0.));
#304=DIRECTION('center_axis',(0.,-1.,0.));
#305=DIRECTION('ref_axis',(1.,0.,0.));
#306=DIRECTION('',(0.,0.,1.));
#307=DIRECTION('',(-1.,0.,0.));
#308=DIRECTION('center_axis',(-1.,0.,0.));
#309=DIRECTION('ref_axis',(0.,-1.,0.));
#310=DIRECTION('',(0.,1.,0.));
#311=DIRECTION('center_axis',(0.,0.,1.));
#312=DIRECTION('ref_axis',(1.,0.,0.));
#313=CARTESIAN_POINT('',(0.,0.,0.));
#314=CARTESIAN_POINT('Origin',(-40.5,40.5,45.));
#315=CARTESIAN_POINT('',(-40.5,40.5,45.));
#316=CARTESIAN_POINT('',(40.5,40.5,45.));
#317=CARTESIAN_POINT('',(21.25,40.5,45.));
#318=CARTESIAN_POINT('',(-40.5,40.5,43.5));
#319=CARTESIAN_POINT('',(-40.5,40.5,45.));
#320=CARTESIAN_POINT('',(40.5,40.5,43.5));
#321=CARTESIAN_POINT('',(21.25,40.5,43.5));
#322=CARTESIAN_POINT('',(40.5,40.5,45.));
#323=CARTESIAN_POINT('Origin',(-40.5,-40.5,45.));
#324=CARTESIAN_POINT('',(-40.5,-40.5,45.));
#325=CARTESIAN_POINT('',(-40.5,21.25,45.));
#326=CARTESIAN_POINT('',(-40.5,-40.5,43.5));
#327=CARTESIAN_POINT('',(-40.5,-40.5,45.));
#328=CARTESIAN_POINT('',(-40.5,21.25,43.5));
#329=CARTESIAN_POINT('Origin',(40.5,-40.5,45.));
#330=CARTESIAN_POINT('',(40.5,-40.5,45.));
#331=CARTESIAN_POINT('',(-21.25,-40.5,45.));
#332=CARTESIAN_POINT('',(40.5,-40.5,43.5));
#333=CARTESIAN_POINT('',(40.5,-40.5,45.));
#334=CARTESIAN_POINT('',(-21.25,-40.5,43.5));
#335=CARTESIAN_POINT('Origin',(40.5,40.5,45.));
#336=CARTESIAN_POINT('',(40.5,-21.25,45.));
#337=CARTESIAN_POINT('',(40.5,-21.25,43.5));
#338=CARTESIAN_POINT('Origin',(0.,0.,43.5));
#339=CARTESIAN_POINT('Origin',(41.5,-21.25,44.));
#340=CARTESIAN_POINT('',(42.5,-42.5,43.));
#341=CARTESIAN_POINT('',(40.5,-40.5,45.));
#342=CARTESIAN_POINT('',(42.5,42.5,43.));
#343=CARTESIAN_POINT('',(42.5,-21.25,43.));
#344=CARTESIAN_POINT('',(40.5,40.5,45.));
#345=CARTESIAN_POINT('Origin',(-21.25,-41.5,44.));
#346=CARTESIAN_POINT('',(-42.5,-42.5,43.));
#347=CARTESIAN_POINT('',(-40.5,-40.5,45.));
#348=CARTESIAN_POINT('',(-21.25,-42.5,43.));
#349=CARTESIAN_POINT('Origin',(-41.5,21.25,44.));
#350=CARTESIAN_POINT('',(-42.5,42.5,43.));
#351=CARTESIAN_POINT('',(-40.5,40.5,45.));
#352=CARTESIAN_POINT('',(-42.5,21.25,43.));
#353=CARTESIAN_POINT('Origin',(21.25,41.5,44.));
#354=CARTESIAN_POINT('',(21.25,42.5,43.));
#355=CARTESIAN_POINT('Origin',(42.5,42.5,0.));
#356=CARTESIAN_POINT('',(42.5,42.5,0.));
#357=CARTESIAN_POINT('',(42.5,42.5,0.));
#358=CARTESIAN_POINT('',(-42.5,42.5,0.));
#359=CARTESIAN_POINT('',(-42.5,42.5,0.));
#360=CARTESIAN_POINT('',(-42.5,42.5,0.));
#361=CARTESIAN_POINT('Origin',(42.5,-42.5,0.));
#362=CARTESIAN_POINT('',(42.5,-42.5,0.));
#363=CARTESIAN_POINT('',(42.5,-42.5,0.));
#364=CARTESIAN_POINT('',(42.5,42.5,0.));
#365=CARTESIAN_POINT('Origin',(-42.5,-42.5,0.));
#366=CARTESIAN_POINT('',(-42.5,-42.5,0.));
#367=CARTESIAN_POINT('',(-42.5,-42.5,0.));
#368=CARTESIAN_POINT('',(42.5,-42.5,0.));
#369=CARTESIAN_POINT('Origin',(-42.5,42.5,0.));
#370=CARTESIAN_POINT('',(-42.5,-42.5,0.));
#371=CARTESIAN_POINT('Origin',(0.,0.,0.));
#372=UNCERTAINTY_MEASURE_WITH_UNIT(LENGTH_MEASURE(0.01),#376,
'DISTANCE_ACCURACY_VALUE',
'Maximum model space distance between geometric entities at asserted c
onnectivities');
#373=UNCERTAINTY_MEASURE_WITH_UNIT(LENGTH_MEASURE(0.01),#376,
'DISTANCE_ACCURACY_VALUE',
'Maximum model space distance between geometric entities at asserted c
onnectivities');
#374=(
GEOMETRIC_REPRESENTATION_CONTEXT(3)
GLOBAL_UNCERTAINTY_ASSIGNED_CONTEXT((#372))
GLOBAL_UNIT_ASSIGNED_CONTEXT((#376,#378,#379))
REPRESENTATION_CONTEXT('','3D')
);
#375=(
GEOMETRIC_REPRESENTATION_CONTEXT(3)
GLOBAL_UNCERTAINTY_ASSIGNED_CONTEXT((#373))
GLOBAL_UNIT_ASSIGNED_CONTEXT((#376,#378,#379))
REPRESENTATION_CONTEXT('','3D')
);
#376=(
LENGTH_UNIT()
NAMED_UNIT(*)
SI_UNIT(.MILLI.,.METRE.)
);
#377=(
LENGTH_UNIT()
NAMED_UNIT(*)
SI_UNIT($,.METRE.)
);
#378=(
NAMED_UNIT(*)
PLANE_ANGLE_UNIT()
SI_UNIT($,.RADIAN.)
);
#379=(
NAMED_UNIT(*)
SI_UNIT($,.STERADIAN.)
SOLID_ANGLE_UNIT()
);
#380=SHAPE_DEFINITION_REPRESENTATION(#381,#382);
#381=PRODUCT_DEFINITION_SHAPE('',$,#384);
#382=SHAPE_REPRESENTATION('',(#240),#374);
#383=PRODUCT_DEFINITION_CONTEXT('part definition',#388,'design');
#384=PRODUCT_DEFINITION('2026-06-29-13-19-23-034','battery pack',#385,#383);
#385=PRODUCT_DEFINITION_FORMATION('',$,#390);
#386=PRODUCT_RELATED_PRODUCT_CATEGORY('battery pack','battery pack',(#390));
#387=APPLICATION_PROTOCOL_DEFINITION('international standard',
'automotive_design',2009,#388);
#388=APPLICATION_CONTEXT(
'Core Data for Automotive Mechanical Design Process');
#389=PRODUCT_CONTEXT('part definition',#388,'mechanical');
#390=PRODUCT('2026-06-29-13-19-23-034','battery pack',$,(#389));
#391=PRESENTATION_STYLE_ASSIGNMENT((#393));
#392=PRESENTATION_STYLE_ASSIGNMENT((#394));
#393=SURFACE_STYLE_USAGE(.BOTH.,#395);
#394=SURFACE_STYLE_USAGE(.BOTH.,#396);
#395=SURFACE_SIDE_STYLE('',(#397));
#396=SURFACE_SIDE_STYLE('',(#398));
#397=SURFACE_STYLE_FILL_AREA(#399);
#398=SURFACE_STYLE_FILL_AREA(#400);
#399=FILL_AREA_STYLE('Steel - Satin',(#401));
#400=FILL_AREA_STYLE('ABS (White)',(#402));
#401=FILL_AREA_STYLE_COLOUR('Steel - Satin',#403);
#402=FILL_AREA_STYLE_COLOUR('ABS (White)',#404);
#403=COLOUR_RGB('Steel - Satin',0.627450980392157,0.627450980392157,0.627450980392157);
#404=COLOUR_RGB('ABS (White)',0.964705882352941,0.964705882352941,0.952941176470588);
ENDSEC;
END-ISO-10303-21;
