ISO-10303-21;
HEADER;
/* Generated by software containing ST-Developer
 * from STEP Tools, Inc. (www.steptools.com) 
 */

FILE_DESCRIPTION(
/* description */ (''),
/* implementation_level */ '2;1');

FILE_NAME(
/* name */ 'flywheel.step',
/* time_stamp */ '2026-07-04T17:59:45+05:30',
/* author */ (''),
/* organization */ (''),
/* preprocessor_version */ 'ST-DEVELOPER v20.1',
/* originating_system */ 'Autodesk Translation Framework v15.8.0.0',
/* authorisation */ '');

FILE_SCHEMA (('AUTOMOTIVE_DESIGN { 1 0 10303 214 3 1 1 }'));
ENDSEC;

DATA;
#10=MECHANICAL_DESIGN_GEOMETRIC_PRESENTATION_REPRESENTATION('',(#13),#373);
#11=SHAPE_REPRESENTATION_RELATIONSHIP('SRR','None',#380,#12);
#12=ADVANCED_BREP_SHAPE_REPRESENTATION('',(#14),#372);
#13=STYLED_ITEM('',(#389),#14);
#14=MANIFOLD_SOLID_BREP('Body3',#198);
#15=TOROIDAL_SURFACE('',#220,10.3999998678123,0.1);
#16=TOROIDAL_SURFACE('',#228,8.5999997488434,0.1);
#17=TOROIDAL_SURFACE('',#233,2.0999997488434,0.1);
#18=CYLINDRICAL_SURFACE('',#218,0.486499762062169);
#19=CYLINDRICAL_SURFACE('',#226,10.4999998678123);
#20=CYLINDRICAL_SURFACE('',#231,8.4999997488434);
#21=CYLINDRICAL_SURFACE('',#237,1.9999997488434);
#22=CYLINDRICAL_SURFACE('',#242,8.49999986781231);
#23=FACE_BOUND('',#49,.T.);
#24=FACE_BOUND('',#53,.T.);
#25=FACE_BOUND('',#60,.T.);
#26=FACE_BOUND('',#62,.T.);
#27=FACE_BOUND('',#65,.T.);
#28=PLANE('',#216);
#29=PLANE('',#224);
#30=PLANE('',#239);
#31=PLANE('',#240);
#32=PLANE('',#243);
#33=FACE_OUTER_BOUND('',#47,.T.);
#34=FACE_OUTER_BOUND('',#48,.T.);
#35=FACE_OUTER_BOUND('',#50,.T.);
#36=FACE_OUTER_BOUND('',#51,.T.);
#37=FACE_OUTER_BOUND('',#52,.T.);
#38=FACE_OUTER_BOUND('',#54,.T.);
#39=FACE_OUTER_BOUND('',#55,.T.);
#40=FACE_OUTER_BOUND('',#56,.T.);
#41=FACE_OUTER_BOUND('',#57,.T.);
#42=FACE_OUTER_BOUND('',#58,.T.);
#43=FACE_OUTER_BOUND('',#59,.T.);
#44=FACE_OUTER_BOUND('',#61,.T.);
#45=FACE_OUTER_BOUND('',#63,.T.);
#46=FACE_OUTER_BOUND('',#64,.T.);
#47=EDGE_LOOP('',(#135,#136,#137,#138,#139));
#48=EDGE_LOOP('',(#140));
#49=EDGE_LOOP('',(#141));
#50=EDGE_LOOP('',(#142,#143,#144,#145,#146));
#51=EDGE_LOOP('',(#147,#148,#149,#150));
#52=EDGE_LOOP('',(#151));
#53=EDGE_LOOP('',(#152));
#54=EDGE_LOOP('',(#153,#154,#155,#156));
#55=EDGE_LOOP('',(#157,#158,#159,#160));
#56=EDGE_LOOP('',(#161,#162,#163,#164));
#57=EDGE_LOOP('',(#165,#166,#167,#168));
#58=EDGE_LOOP('',(#169,#170,#171,#172));
#59=EDGE_LOOP('',(#173));
#60=EDGE_LOOP('',(#174));
#61=EDGE_LOOP('',(#175));
#62=EDGE_LOOP('',(#176));
#63=EDGE_LOOP('',(#177,#178,#179,#180));
#64=EDGE_LOOP('',(#181));
#65=EDGE_LOOP('',(#182));
#66=LINE('',#323,#72);
#67=LINE('',#330,#73);
#68=LINE('',#344,#74);
#69=LINE('',#352,#75);
#70=LINE('',#361,#76);
#71=LINE('',#368,#77);
#72=VECTOR('',#252,0.536499775280937);
#73=VECTOR('',#261,0.486499762062169);
#74=VECTOR('',#280,10.4999998678123);
#75=VECTOR('',#291,8.4999997488434);
#76=VECTOR('',#302,1.9999997488434);
#77=VECTOR('',#313,8.49999986781231);
#78=CIRCLE('',#213,0.486499762062169);
#79=CIRCLE('',#214,0.486499762062169);
#80=CIRCLE('',#215,0.586499788499706);
#81=CIRCLE('',#217,8.49999976206217);
#82=CIRCLE('',#219,0.486499735624632);
#83=CIRCLE('',#221,10.4999998678123);
#84=CIRCLE('',#222,0.1);
#85=CIRCLE('',#223,10.3999998678123);
#86=CIRCLE('',#225,8.5999997488434);
#87=CIRCLE('',#227,10.5);
#88=CIRCLE('',#229,0.1);
#89=CIRCLE('',#230,8.4999997488434);
#90=CIRCLE('',#232,8.49999976206217);
#91=CIRCLE('',#234,1.9999997488434);
#92=CIRCLE('',#235,0.1);
#93=CIRCLE('',#236,2.0999997488434);
#94=CIRCLE('',#238,1.99999973562463);
#95=CIRCLE('',#241,8.49999997356246);
#96=VERTEX_POINT('',#318);
#97=VERTEX_POINT('',#319);
#98=VERTEX_POINT('',#322);
#99=VERTEX_POINT('',#326);
#100=VERTEX_POINT('',#329);
#101=VERTEX_POINT('',#333);
#102=VERTEX_POINT('',#335);
#103=VERTEX_POINT('',#339);
#104=VERTEX_POINT('',#342);
#105=VERTEX_POINT('',#346);
#106=VERTEX_POINT('',#350);
#107=VERTEX_POINT('',#354);
#108=VERTEX_POINT('',#356);
#109=VERTEX_POINT('',#360);
#110=VERTEX_POINT('',#365);
#111=EDGE_CURVE('',#96,#97,#78,.T.);
#112=EDGE_CURVE('',#97,#96,#79,.T.);
#113=EDGE_CURVE('',#96,#98,#66,.T.);
#114=EDGE_CURVE('',#98,#98,#80,.T.);
#115=EDGE_CURVE('',#99,#99,#81,.T.);
#116=EDGE_CURVE('',#97,#100,#67,.T.);
#117=EDGE_CURVE('',#100,#100,#82,.T.);
#118=EDGE_CURVE('',#101,#101,#83,.T.);
#119=EDGE_CURVE('',#101,#102,#84,.T.);
#120=EDGE_CURVE('',#102,#102,#85,.T.);
#121=EDGE_CURVE('',#103,#103,#86,.T.);
#122=EDGE_CURVE('',#104,#104,#87,.T.);
#123=EDGE_CURVE('',#104,#101,#68,.T.);
#124=EDGE_CURVE('',#103,#105,#88,.T.);
#125=EDGE_CURVE('',#105,#105,#89,.T.);
#126=EDGE_CURVE('',#106,#106,#90,.T.);
#127=EDGE_CURVE('',#106,#105,#69,.T.);
#128=EDGE_CURVE('',#107,#107,#91,.T.);
#129=EDGE_CURVE('',#107,#108,#92,.T.);
#130=EDGE_CURVE('',#108,#108,#93,.T.);
#131=EDGE_CURVE('',#107,#109,#70,.T.);
#132=EDGE_CURVE('',#109,#109,#94,.T.);
#133=EDGE_CURVE('',#110,#110,#95,.T.);
#134=EDGE_CURVE('',#110,#99,#71,.T.);
#135=ORIENTED_EDGE('',*,*,#111,.T.);
#136=ORIENTED_EDGE('',*,*,#112,.T.);
#137=ORIENTED_EDGE('',*,*,#113,.T.);
#138=ORIENTED_EDGE('',*,*,#114,.T.);
#139=ORIENTED_EDGE('',*,*,#113,.F.);
#140=ORIENTED_EDGE('',*,*,#115,.T.);
#141=ORIENTED_EDGE('',*,*,#114,.F.);
#142=ORIENTED_EDGE('',*,*,#111,.F.);
#143=ORIENTED_EDGE('',*,*,#112,.F.);
#144=ORIENTED_EDGE('',*,*,#116,.T.);
#145=ORIENTED_EDGE('',*,*,#117,.F.);
#146=ORIENTED_EDGE('',*,*,#116,.F.);
#147=ORIENTED_EDGE('',*,*,#118,.T.);
#148=ORIENTED_EDGE('',*,*,#119,.T.);
#149=ORIENTED_EDGE('',*,*,#120,.T.);
#150=ORIENTED_EDGE('',*,*,#119,.F.);
#151=ORIENTED_EDGE('',*,*,#120,.F.);
#152=ORIENTED_EDGE('',*,*,#121,.F.);
#153=ORIENTED_EDGE('',*,*,#122,.F.);
#154=ORIENTED_EDGE('',*,*,#123,.T.);
#155=ORIENTED_EDGE('',*,*,#118,.F.);
#156=ORIENTED_EDGE('',*,*,#123,.F.);
#157=ORIENTED_EDGE('',*,*,#121,.T.);
#158=ORIENTED_EDGE('',*,*,#124,.T.);
#159=ORIENTED_EDGE('',*,*,#125,.T.);
#160=ORIENTED_EDGE('',*,*,#124,.F.);
#161=ORIENTED_EDGE('',*,*,#126,.T.);
#162=ORIENTED_EDGE('',*,*,#127,.T.);
#163=ORIENTED_EDGE('',*,*,#125,.F.);
#164=ORIENTED_EDGE('',*,*,#127,.F.);
#165=ORIENTED_EDGE('',*,*,#128,.T.);
#166=ORIENTED_EDGE('',*,*,#129,.T.);
#167=ORIENTED_EDGE('',*,*,#130,.T.);
#168=ORIENTED_EDGE('',*,*,#129,.F.);
#169=ORIENTED_EDGE('',*,*,#128,.F.);
#170=ORIENTED_EDGE('',*,*,#131,.T.);
#171=ORIENTED_EDGE('',*,*,#132,.T.);
#172=ORIENTED_EDGE('',*,*,#131,.F.);
#173=ORIENTED_EDGE('',*,*,#126,.F.);
#174=ORIENTED_EDGE('',*,*,#130,.F.);
#175=ORIENTED_EDGE('',*,*,#122,.T.);
#176=ORIENTED_EDGE('',*,*,#133,.F.);
#177=ORIENTED_EDGE('',*,*,#133,.T.);
#178=ORIENTED_EDGE('',*,*,#134,.T.);
#179=ORIENTED_EDGE('',*,*,#115,.F.);
#180=ORIENTED_EDGE('',*,*,#134,.F.);
#181=ORIENTED_EDGE('',*,*,#132,.F.);
#182=ORIENTED_EDGE('',*,*,#117,.T.);
#183=CONICAL_SURFACE('',#212,0.536499775280937,0.785398295585132);
#184=ADVANCED_FACE('',(#33),#183,.F.);
#185=ADVANCED_FACE('',(#34,#23),#28,.T.);
#186=ADVANCED_FACE('',(#35),#18,.F.);
#187=ADVANCED_FACE('',(#36),#15,.T.);
#188=ADVANCED_FACE('',(#37,#24),#29,.T.);
#189=ADVANCED_FACE('',(#38),#19,.T.);
#190=ADVANCED_FACE('',(#39),#16,.T.);
#191=ADVANCED_FACE('',(#40),#20,.F.);
#192=ADVANCED_FACE('',(#41),#17,.F.);
#193=ADVANCED_FACE('',(#42),#21,.T.);
#194=ADVANCED_FACE('',(#43,#25),#30,.T.);
#195=ADVANCED_FACE('',(#44,#26),#31,.T.);
#196=ADVANCED_FACE('',(#45),#22,.F.);
#197=ADVANCED_FACE('',(#46,#27),#32,.T.);
#198=CLOSED_SHELL('',(#184,#185,#186,#187,#188,#189,#190,#191,#192,#193,
#194,#195,#196,#197));
#199=DERIVED_UNIT_ELEMENT(#201,1.);
#200=DERIVED_UNIT_ELEMENT(#375,-3.);
#201=(
MASS_UNIT()
NAMED_UNIT(*)
SI_UNIT(.KILO.,.GRAM.)
);
#202=DERIVED_UNIT((#199,#200));
#203=MEASURE_REPRESENTATION_ITEM('density measure',
POSITIVE_RATIO_MEASURE(7990.),#202);
#204=PROPERTY_DEFINITION_REPRESENTATION(#209,#206);
#205=PROPERTY_DEFINITION_REPRESENTATION(#210,#207);
#206=REPRESENTATION('material name',(#208),#372);
#207=REPRESENTATION('density',(#203),#372);
#208=DESCRIPTIVE_REPRESENTATION_ITEM('Stainless Steel 316L',
'Stainless Steel 316L');
#209=PROPERTY_DEFINITION('material property','material name',#382);
#210=PROPERTY_DEFINITION('material property','density of part',#382);
#211=AXIS2_PLACEMENT_3D('',#316,#244,#245);
#212=AXIS2_PLACEMENT_3D('',#317,#246,#247);
#213=AXIS2_PLACEMENT_3D('',#320,#248,#249);
#214=AXIS2_PLACEMENT_3D('',#321,#250,#251);
#215=AXIS2_PLACEMENT_3D('',#324,#253,#254);
#216=AXIS2_PLACEMENT_3D('',#325,#255,#256);
#217=AXIS2_PLACEMENT_3D('',#327,#257,#258);
#218=AXIS2_PLACEMENT_3D('',#328,#259,#260);
#219=AXIS2_PLACEMENT_3D('',#331,#262,#263);
#220=AXIS2_PLACEMENT_3D('',#332,#264,#265);
#221=AXIS2_PLACEMENT_3D('',#334,#266,#267);
#222=AXIS2_PLACEMENT_3D('',#336,#268,#269);
#223=AXIS2_PLACEMENT_3D('',#337,#270,#271);
#224=AXIS2_PLACEMENT_3D('',#338,#272,#273);
#225=AXIS2_PLACEMENT_3D('',#340,#274,#275);
#226=AXIS2_PLACEMENT_3D('',#341,#276,#277);
#227=AXIS2_PLACEMENT_3D('',#343,#278,#279);
#228=AXIS2_PLACEMENT_3D('',#345,#281,#282);
#229=AXIS2_PLACEMENT_3D('',#347,#283,#284);
#230=AXIS2_PLACEMENT_3D('',#348,#285,#286);
#231=AXIS2_PLACEMENT_3D('',#349,#287,#288);
#232=AXIS2_PLACEMENT_3D('',#351,#289,#290);
#233=AXIS2_PLACEMENT_3D('',#353,#292,#293);
#234=AXIS2_PLACEMENT_3D('',#355,#294,#295);
#235=AXIS2_PLACEMENT_3D('',#357,#296,#297);
#236=AXIS2_PLACEMENT_3D('',#358,#298,#299);
#237=AXIS2_PLACEMENT_3D('',#359,#300,#301);
#238=AXIS2_PLACEMENT_3D('',#362,#303,#304);
#239=AXIS2_PLACEMENT_3D('',#363,#305,#306);
#240=AXIS2_PLACEMENT_3D('',#364,#307,#308);
#241=AXIS2_PLACEMENT_3D('',#366,#309,#310);
#242=AXIS2_PLACEMENT_3D('',#367,#311,#312);
#243=AXIS2_PLACEMENT_3D('',#369,#314,#315);
#244=DIRECTION('axis',(0.,0.,1.));
#245=DIRECTION('refdir',(1.,0.,0.));
#246=DIRECTION('center_axis',(-1.,0.,0.));
#247=DIRECTION('ref_axis',(0.,0.,-1.));
#248=DIRECTION('center_axis',(1.,0.,0.));
#249=DIRECTION('ref_axis',(0.,0.,-1.));
#250=DIRECTION('center_axis',(1.,0.,0.));
#251=DIRECTION('ref_axis',(0.,0.,-1.));
#252=DIRECTION('',(-0.707106687715734,-8.65956170704211E-17,0.707106874657348));
#253=DIRECTION('center_axis',(-1.,0.,0.));
#254=DIRECTION('ref_axis',(0.,0.,-1.));
#255=DIRECTION('center_axis',(-1.,0.,0.));
#256=DIRECTION('ref_axis',(0.,0.,1.));
#257=DIRECTION('center_axis',(-1.,0.,0.));
#258=DIRECTION('ref_axis',(0.,0.,1.));
#259=DIRECTION('center_axis',(-1.,0.,0.));
#260=DIRECTION('ref_axis',(0.,0.,1.));
#261=DIRECTION('',(1.,0.,0.));
#262=DIRECTION('center_axis',(-1.,0.,0.));
#263=DIRECTION('ref_axis',(0.,0.,1.));
#264=DIRECTION('center_axis',(-1.,0.,0.));
#265=DIRECTION('ref_axis',(0.,0.,1.));
#266=DIRECTION('center_axis',(1.,0.,0.));
#267=DIRECTION('ref_axis',(0.,1.22464679914735E-16,-1.));
#268=DIRECTION('center_axis',(0.,-1.,1.22464679914735E-16));
#269=DIRECTION('ref_axis',(0.,-1.22464679914735E-16,-1.));
#270=DIRECTION('center_axis',(-1.,0.,0.));
#271=DIRECTION('ref_axis',(0.,1.22464679914735E-16,-1.));
#272=DIRECTION('center_axis',(1.,0.,0.));
#273=DIRECTION('ref_axis',(0.,0.,-1.));
#274=DIRECTION('center_axis',(1.,0.,0.));
#275=DIRECTION('ref_axis',(0.,1.22464679914735E-16,-1.));
#276=DIRECTION('center_axis',(-1.,0.,0.));
#277=DIRECTION('ref_axis',(0.,0.,1.));
#278=DIRECTION('center_axis',(-1.,0.,0.));
#279=DIRECTION('ref_axis',(0.,0.,1.));
#280=DIRECTION('',(1.,0.,0.));
#281=DIRECTION('center_axis',(-1.,0.,0.));
#282=DIRECTION('ref_axis',(0.,0.,1.));
#283=DIRECTION('center_axis',(0.,-1.,1.22464679914735E-16));
#284=DIRECTION('ref_axis',(0.,-1.22464679914735E-16,-1.));
#285=DIRECTION('center_axis',(-1.,0.,0.));
#286=DIRECTION('ref_axis',(0.,1.22464679914735E-16,-1.));
#287=DIRECTION('center_axis',(-1.,0.,0.));
#288=DIRECTION('ref_axis',(0.,0.,1.));
#289=DIRECTION('center_axis',(-1.,0.,0.));
#290=DIRECTION('ref_axis',(0.,0.,1.));
#291=DIRECTION('',(1.,0.,0.));
#292=DIRECTION('center_axis',(-1.,0.,0.));
#293=DIRECTION('ref_axis',(0.,0.,1.));
#294=DIRECTION('center_axis',(-1.,0.,0.));
#295=DIRECTION('ref_axis',(0.,1.22464679914735E-16,-1.));
#296=DIRECTION('center_axis',(0.,-1.,1.22464679914735E-16));
#297=DIRECTION('ref_axis',(0.,-1.22464679914735E-16,-1.));
#298=DIRECTION('center_axis',(1.,0.,0.));
#299=DIRECTION('ref_axis',(0.,1.22464679914735E-16,-1.));
#300=DIRECTION('center_axis',(-1.,0.,0.));
#301=DIRECTION('ref_axis',(0.,0.,1.));
#302=DIRECTION('',(1.,0.,0.));
#303=DIRECTION('center_axis',(-1.,0.,0.));
#304=DIRECTION('ref_axis',(0.,0.,1.));
#305=DIRECTION('center_axis',(1.,0.,0.));
#306=DIRECTION('ref_axis',(0.,0.,-1.));
#307=DIRECTION('center_axis',(-1.,0.,0.));
#308=DIRECTION('ref_axis',(0.,0.,1.));
#309=DIRECTION('center_axis',(-1.,0.,0.));
#310=DIRECTION('ref_axis',(0.,0.,1.));
#311=DIRECTION('center_axis',(-1.,0.,0.));
#312=DIRECTION('ref_axis',(0.,0.,1.));
#313=DIRECTION('',(1.,0.,0.));
#314=DIRECTION('center_axis',(1.,0.,0.));
#315=DIRECTION('ref_axis',(0.,0.,-1.));
#316=CARTESIAN_POINT('',(0.,0.,0.));
#317=CARTESIAN_POINT('Origin',(8.05000001286187,0.,0.));
#318=CARTESIAN_POINT('',(8.10000001286186,-5.95790376395384E-17,0.486499762062169));
#319=CARTESIAN_POINT('',(8.10000001286186,-5.95790376395384E-17,-0.486499762062169));
#320=CARTESIAN_POINT('Origin',(8.10000001286186,0.,0.));
#321=CARTESIAN_POINT('Origin',(8.10000001286186,0.,0.));
#322=CARTESIAN_POINT('',(8.00000001286187,7.18255088686764E-17,0.586499788499706));
#323=CARTESIAN_POINT('',(8.05000001286187,-6.57022732541074E-17,0.536499775280937));
#324=CARTESIAN_POINT('Origin',(8.00000001286187,0.,0.));
#325=CARTESIAN_POINT('Origin',(8.00000001286187,0.,0.486499788499706));
#326=CARTESIAN_POINT('',(8.00000022471907,-1.04094976308693E-15,-8.49999986781231));
#327=CARTESIAN_POINT('Origin',(8.00000022471907,0.,0.));
#328=CARTESIAN_POINT('Origin',(9.00000001286187,0.,0.));
#329=CARTESIAN_POINT('',(10.0000000128619,-5.95790376395384E-17,-0.486499762062169));
#330=CARTESIAN_POINT('',(9.00000001286187,-5.95790376395384E-17,-0.486499762062169));
#331=CARTESIAN_POINT('Origin',(10.0000000128619,0.,0.));
#332=CARTESIAN_POINT('Origin',(9.90000027759414,0.,0.));
#333=CARTESIAN_POINT('',(9.90000027759414,-1.2858791229164E-15,-10.4999998678123));
#334=CARTESIAN_POINT('Origin',(9.90000027759414,0.,0.));
#335=CARTESIAN_POINT('',(10.0000002775941,-1.27363265492492E-15,-10.3999998678123));
#336=CARTESIAN_POINT('Origin',(9.90000027759414,-1.27363265492492E-15,-10.3999998678123));
#337=CARTESIAN_POINT('Origin',(10.0000002775941,0.,0.));
#338=CARTESIAN_POINT('Origin',(10.0000002775941,0.,10.4999997356246));
#339=CARTESIAN_POINT('',(10.0000002775941,-1.05319621650891E-15,-8.5999997488434));
#340=CARTESIAN_POINT('Origin',(10.0000002775941,0.,0.));
#341=CARTESIAN_POINT('Origin',(5.0000001718886,0.,0.));
#342=CARTESIAN_POINT('',(6.61830701353949E-8,-1.2858791229164E-15,-10.4999998678123));
#343=CARTESIAN_POINT('Origin',(6.61830701353949E-8,0.,0.));
#344=CARTESIAN_POINT('',(5.0000001718886,-1.2858791229164E-15,-10.4999998678123));
#345=CARTESIAN_POINT('Origin',(9.90000027759414,0.,0.));
#346=CARTESIAN_POINT('',(9.90000027759414,-1.04094974851744E-15,-8.4999997488434));
#347=CARTESIAN_POINT('Origin',(9.90000027759414,-1.05319621650891E-15,-8.5999997488434));
#348=CARTESIAN_POINT('Origin',(9.90000027759414,0.,0.));
#349=CARTESIAN_POINT('Origin',(9.50000022471907,0.,0.));
#350=CARTESIAN_POINT('',(9.00000022471907,-1.04094974851744E-15,-8.4999997488434));
#351=CARTESIAN_POINT('Origin',(9.00000022471907,0.,0.));
#352=CARTESIAN_POINT('',(9.50000022471907,-1.04094974851744E-15,-8.4999997488434));
#353=CARTESIAN_POINT('Origin',(9.10000022471907,0.,0.));
#354=CARTESIAN_POINT('',(9.10000022471907,-2.44929329071657E-16,-1.9999997488434));
#355=CARTESIAN_POINT('Origin',(9.10000022471907,0.,0.));
#356=CARTESIAN_POINT('',(9.00000022471907,-2.57175797063131E-16,-2.0999997488434));
#357=CARTESIAN_POINT('Origin',(9.10000022471907,-2.57175797063131E-16,-2.0999997488434));
#358=CARTESIAN_POINT('Origin',(9.00000022471907,0.,0.));
#359=CARTESIAN_POINT('Origin',(9.50000005287508,0.,0.));
#360=CARTESIAN_POINT('',(10.0000000528751,-2.44929329071657E-16,-1.9999997488434));
#361=CARTESIAN_POINT('',(9.50000005287508,-2.44929329071657E-16,-1.9999997488434));
#362=CARTESIAN_POINT('Origin',(10.0000000528751,0.,0.));
#363=CARTESIAN_POINT('Origin',(9.00000022471907,0.,8.49999976206217));
#364=CARTESIAN_POINT('Origin',(2.24719071129087E-7,0.,8.49999997356246));
#365=CARTESIAN_POINT('',(2.24719070018864E-7,-1.04094976308693E-15,-8.49999986781231));
#366=CARTESIAN_POINT('Origin',(2.24719070018864E-7,0.,0.));
#367=CARTESIAN_POINT('Origin',(4.00000022471907,0.,0.));
#368=CARTESIAN_POINT('',(4.00000022471907,-1.04094976308693E-15,-8.49999986781231));
#369=CARTESIAN_POINT('Origin',(10.0000000528751,0.,1.99999973562463));
#370=UNCERTAINTY_MEASURE_WITH_UNIT(LENGTH_MEASURE(0.01),#374,
'DISTANCE_ACCURACY_VALUE',
'Maximum model space distance between geometric entities at asserted c
onnectivities');
#371=UNCERTAINTY_MEASURE_WITH_UNIT(LENGTH_MEASURE(0.01),#374,
'DISTANCE_ACCURACY_VALUE',
'Maximum model space distance between geometric entities at asserted c
onnectivities');
#372=(
GEOMETRIC_REPRESENTATION_CONTEXT(3)
GLOBAL_UNCERTAINTY_ASSIGNED_CONTEXT((#370))
GLOBAL_UNIT_ASSIGNED_CONTEXT((#374,#376,#377))
REPRESENTATION_CONTEXT('','3D')
);
#373=(
GEOMETRIC_REPRESENTATION_CONTEXT(3)
GLOBAL_UNCERTAINTY_ASSIGNED_CONTEXT((#371))
GLOBAL_UNIT_ASSIGNED_CONTEXT((#374,#376,#377))
REPRESENTATION_CONTEXT('','3D')
);
#374=(
LENGTH_UNIT()
NAMED_UNIT(*)
SI_UNIT(.MILLI.,.METRE.)
);
#375=(
LENGTH_UNIT()
NAMED_UNIT(*)
SI_UNIT($,.METRE.)
);
#376=(
NAMED_UNIT(*)
PLANE_ANGLE_UNIT()
SI_UNIT($,.RADIAN.)
);
#377=(
NAMED_UNIT(*)
SI_UNIT($,.STERADIAN.)
SOLID_ANGLE_UNIT()
);
#378=SHAPE_DEFINITION_REPRESENTATION(#379,#380);
#379=PRODUCT_DEFINITION_SHAPE('',$,#382);
#380=SHAPE_REPRESENTATION('',(#211),#372);
#381=PRODUCT_DEFINITION_CONTEXT('part definition',#386,'design');
#382=PRODUCT_DEFINITION('2026-07-04-17-59-45-455','flywheel',#383,#381);
#383=PRODUCT_DEFINITION_FORMATION('',$,#388);
#384=PRODUCT_RELATED_PRODUCT_CATEGORY('flywheel','flywheel',(#388));
#385=APPLICATION_PROTOCOL_DEFINITION('international standard',
'automotive_design',2009,#386);
#386=APPLICATION_CONTEXT(
'Core Data for Automotive Mechanical Design Process');
#387=PRODUCT_CONTEXT('part definition',#386,'mechanical');
#388=PRODUCT('2026-07-04-17-59-45-455','flywheel',$,(#387));
#389=PRESENTATION_STYLE_ASSIGNMENT((#390));
#390=SURFACE_STYLE_USAGE(.BOTH.,#391);
#391=SURFACE_SIDE_STYLE('',(#392));
#392=SURFACE_STYLE_FILL_AREA(#393);
#393=FILL_AREA_STYLE('Stainless Steel - Satin',(#394));
#394=FILL_AREA_STYLE_COLOUR('Stainless Steel - Satin',#395);
#395=COLOUR_RGB('Stainless Steel - Satin',0.796078431372549,0.796078431372549,
0.796078431372549);
ENDSEC;
END-ISO-10303-21;
