ISO-10303-21;
HEADER;
/* Generated by software containing ST-Developer
 * from STEP Tools, Inc. (www.steptools.com) 
 */

FILE_DESCRIPTION(
/* description */ (''),
/* implementation_level */ '2;1');

FILE_NAME(
/* name */ 'motor housing.step',
/* time_stamp */ '2026-07-04T17:59:53+05:30',
/* author */ (''),
/* organization */ (''),
/* preprocessor_version */ 'ST-DEVELOPER v20.1',
/* originating_system */ 'Autodesk Translation Framework v15.8.0.0',
/* authorisation */ '');

FILE_SCHEMA (('AUTOMOTIVE_DESIGN { 1 0 10303 214 3 1 1 }'));
ENDSEC;

DATA;
#10=MECHANICAL_DESIGN_GEOMETRIC_PRESENTATION_REPRESENTATION('',(#13),#704);
#11=SHAPE_REPRESENTATION_RELATIONSHIP('SRR','None',#711,#12);
#12=ADVANCED_BREP_SHAPE_REPRESENTATION('',(#14),#703);
#13=STYLED_ITEM('',(#721),#14);
#14=MANIFOLD_SOLID_BREP('Body1',#316);
#15=CONICAL_SURFACE('',#346,6.375,0.785398163397448);
#16=CONICAL_SURFACE('',#350,6.375,0.785398163397451);
#17=B_SPLINE_CURVE_WITH_KNOTS('',3,(#491,#492,#493,#494,#495,#496,#497,
#498,#499,#500),.UNSPECIFIED.,.F.,.F.,(4,2,2,2,4),(0.,0.0301899684568533,
0.0603799369137065,0.0905692489076847,0.120758560901663),.UNSPECIFIED.);
#18=B_SPLINE_CURVE_WITH_KNOTS('',3,(#501,#502,#503,#504,#505,#506,#507,
#508,#509,#510,#511,#512,#513,#514,#515,#516,#517,#518,#519,#520,#521,#522,
#523,#524,#525,#526),.UNSPECIFIED.,.F.,.F.,(4,2,2,2,2,2,2,2,2,2,2,2,4),
(0.120758560901663,0.150947872895641,0.181137184889619,0.211327153346473,
0.241517121803326,0.271707090260179,0.301897058717032,0.332086370711011,
0.362275682704989,0.392464994698967,0.422654306692946,0.452844275149799,
0.483034243606652),.UNSPECIFIED.);
#19=B_SPLINE_CURVE_WITH_KNOTS('',3,(#529,#530,#531,#532,#533,#534,#535,
#536,#537,#538,#539,#540,#541,#542,#543,#544,#545,#546,#547,#548,#549,#550,
#551,#552,#553,#554),.UNSPECIFIED.,.F.,.F.,(4,2,2,2,2,2,2,2,2,2,2,2,4),
(0.,0.0301899684568532,0.0603799369137065,0.0905692489076847,0.120758560901663,
0.150947872895641,0.181137184889619,0.211327153346473,0.241517121803326,
0.271707090260179,0.301897058717032,0.332086370711011,0.362275682704989),
 .UNSPECIFIED.);
#20=B_SPLINE_CURVE_WITH_KNOTS('',3,(#555,#556,#557,#558,#559,#560,#561,
#562,#563,#564),.UNSPECIFIED.,.F.,.F.,(4,2,2,2,4),(0.362275682704989,0.392464994698967,
0.422654306692945,0.452844275149799,0.483034243606652),.UNSPECIFIED.);
#21=B_SPLINE_CURVE_WITH_KNOTS('',3,(#600,#601,#602,#603,#604,#605,#606,
#607,#608,#609),.UNSPECIFIED.,.F.,.F.,(4,2,2,2,4),(0.,0.0301706372739587,
0.0603412745479174,0.0905116344934764,0.120681994439035),.UNSPECIFIED.);
#22=B_SPLINE_CURVE_WITH_KNOTS('',3,(#610,#611,#612,#613,#614,#615,#616,
#617,#618,#619,#620,#621,#622,#623,#624,#625,#626,#627,#628,#629,#630,#631,
#632,#633,#634,#635),.UNSPECIFIED.,.F.,.F.,(4,2,2,2,2,2,2,2,2,2,2,2,4),
(0.120681994439035,0.150852354384594,0.181022714330153,0.211193351604112,
0.241363988878071,0.271534626152029,0.301705263425988,0.331875623371547,
0.362045983317106,0.392216343262665,0.422386703208224,0.452557340482183,
0.482727977756142),.UNSPECIFIED.);
#23=B_SPLINE_CURVE_WITH_KNOTS('',3,(#638,#639,#640,#641,#642,#643,#644,
#645,#646,#647,#648,#649,#650,#651,#652,#653,#654,#655,#656,#657,#658,#659,
#660,#661,#662,#663),.UNSPECIFIED.,.F.,.F.,(4,2,2,2,2,2,2,2,2,2,2,2,4),
(0.,0.0301706372739587,0.0603412745479174,0.0905116344934764,0.120681994439035,
0.150852354384594,0.181022714330153,0.211193351604112,0.241363988878071,
0.271534626152029,0.301705263425988,0.331875623371547,0.362045983317106),
 .UNSPECIFIED.);
#24=B_SPLINE_CURVE_WITH_KNOTS('',3,(#664,#665,#666,#667,#668,#669,#670,
#671,#672,#673),.UNSPECIFIED.,.F.,.F.,(4,2,2,2,4),(0.362045983317106,0.392216343262665,
0.422386703208224,0.452557340482183,0.482727977756142),.UNSPECIFIED.);
#25=LINE('',#488,#34);
#26=LINE('',#576,#35);
#27=LINE('',#580,#36);
#28=LINE('',#590,#37);
#29=LINE('',#596,#38);
#30=LINE('',#692,#39);
#31=LINE('',#695,#40);
#32=LINE('',#697,#41);
#33=LINE('',#700,#42);
#34=VECTOR('',#394,5.05);
#35=VECTOR('',#409,6.25);
#36=VECTOR('',#414,6.375);
#37=VECTOR('',#425,6.375);
#38=VECTOR('',#432,6.25);
#39=VECTOR('',#459,3.75);
#40=VECTOR('',#464,0.8);
#41=VECTOR('',#467,0.8);
#42=VECTOR('',#472,7.5);
#43=CYLINDRICAL_SURFACE('',#337,5.05);
#44=CYLINDRICAL_SURFACE('',#343,6.25);
#45=CYLINDRICAL_SURFACE('',#354,6.25);
#46=CYLINDRICAL_SURFACE('',#368,3.75);
#47=CYLINDRICAL_SURFACE('',#370,0.8);
#48=CYLINDRICAL_SURFACE('',#371,0.8);
#49=CYLINDRICAL_SURFACE('',#373,7.5);
#50=FACE_BOUND('',#84,.T.);
#51=FACE_BOUND('',#86,.T.);
#52=FACE_BOUND('',#87,.T.);
#53=FACE_BOUND('',#92,.T.);
#54=FACE_BOUND('',#95,.T.);
#55=FACE_BOUND('',#96,.T.);
#56=FACE_BOUND('',#98,.T.);
#57=FACE_BOUND('',#101,.T.);
#58=FACE_BOUND('',#107,.T.);
#59=PLANE('',#335);
#60=PLANE('',#348);
#61=PLANE('',#357);
#62=PLANE('',#362);
#63=PLANE('',#372);
#64=FACE_OUTER_BOUND('',#82,.T.);
#65=FACE_OUTER_BOUND('',#83,.T.);
#66=FACE_OUTER_BOUND('',#85,.T.);
#67=FACE_OUTER_BOUND('',#88,.T.);
#68=FACE_OUTER_BOUND('',#89,.T.);
#69=FACE_OUTER_BOUND('',#90,.T.);
#70=FACE_OUTER_BOUND('',#91,.T.);
#71=FACE_OUTER_BOUND('',#93,.T.);
#72=FACE_OUTER_BOUND('',#94,.T.);
#73=FACE_OUTER_BOUND('',#97,.T.);
#74=FACE_OUTER_BOUND('',#99,.T.);
#75=FACE_OUTER_BOUND('',#100,.T.);
#76=FACE_OUTER_BOUND('',#102,.T.);
#77=FACE_OUTER_BOUND('',#103,.T.);
#78=FACE_OUTER_BOUND('',#104,.T.);
#79=FACE_OUTER_BOUND('',#105,.T.);
#80=FACE_OUTER_BOUND('',#106,.T.);
#81=FACE_OUTER_BOUND('',#108,.T.);
#82=EDGE_LOOP('',(#208,#209,#210,#211,#212));
#83=EDGE_LOOP('',(#213));
#84=EDGE_LOOP('',(#214));
#85=EDGE_LOOP('',(#215,#216,#217,#218,#219));
#86=EDGE_LOOP('',(#220,#221));
#87=EDGE_LOOP('',(#222,#223));
#88=EDGE_LOOP('',(#224,#225,#226,#227,#228));
#89=EDGE_LOOP('',(#229,#230,#231,#232,#233,#234));
#90=EDGE_LOOP('',(#235,#236,#237,#238,#239));
#91=EDGE_LOOP('',(#240));
#92=EDGE_LOOP('',(#241));
#93=EDGE_LOOP('',(#242,#243,#244,#245,#246));
#94=EDGE_LOOP('',(#247,#248,#249,#250,#251,#252));
#95=EDGE_LOOP('',(#253,#254));
#96=EDGE_LOOP('',(#255,#256));
#97=EDGE_LOOP('',(#257));
#98=EDGE_LOOP('',(#258));
#99=EDGE_LOOP('',(#259,#260,#261,#262,#263));
#100=EDGE_LOOP('',(#264));
#101=EDGE_LOOP('',(#265));
#102=EDGE_LOOP('',(#266,#267,#268,#269,#270));
#103=EDGE_LOOP('',(#271,#272,#273,#274,#275));
#104=EDGE_LOOP('',(#276,#277,#278,#279,#280,#281));
#105=EDGE_LOOP('',(#282,#283,#284,#285,#286,#287));
#106=EDGE_LOOP('',(#288));
#107=EDGE_LOOP('',(#289));
#108=EDGE_LOOP('',(#290,#291,#292,#293));
#109=CIRCLE('',#331,5.3);
#110=CIRCLE('',#332,0.25);
#111=CIRCLE('',#333,5.05);
#112=CIRCLE('',#334,5.05);
#113=CIRCLE('',#336,6.);
#114=CIRCLE('',#338,5.05);
#115=CIRCLE('',#340,0.25);
#116=CIRCLE('',#341,6.25);
#117=CIRCLE('',#342,6.25);
#118=CIRCLE('',#344,6.25);
#119=CIRCLE('',#345,6.25);
#120=CIRCLE('',#347,6.5);
#121=CIRCLE('',#349,7.5);
#122=CIRCLE('',#351,6.25);
#123=CIRCLE('',#352,6.25);
#124=CIRCLE('',#353,6.5);
#125=CIRCLE('',#355,6.25);
#126=CIRCLE('',#356,6.25);
#127=CIRCLE('',#358,7.5);
#128=CIRCLE('',#360,6.);
#129=CIRCLE('',#361,0.25);
#130=CIRCLE('',#363,4.);
#131=CIRCLE('',#365,3.75);
#132=CIRCLE('',#366,3.75);
#133=CIRCLE('',#367,0.25);
#134=CIRCLE('',#369,3.75);
#135=VERTEX_POINT('',#475);
#136=VERTEX_POINT('',#477);
#137=VERTEX_POINT('',#479);
#138=VERTEX_POINT('',#483);
#139=VERTEX_POINT('',#486);
#140=VERTEX_POINT('',#489);
#141=VERTEX_POINT('',#490);
#142=VERTEX_POINT('',#527);
#143=VERTEX_POINT('',#528);
#144=VERTEX_POINT('',#566);
#145=VERTEX_POINT('',#568);
#146=VERTEX_POINT('',#572);
#147=VERTEX_POINT('',#573);
#148=VERTEX_POINT('',#578);
#149=VERTEX_POINT('',#582);
#150=VERTEX_POINT('',#585);
#151=VERTEX_POINT('',#586);
#152=VERTEX_POINT('',#589);
#153=VERTEX_POINT('',#593);
#154=VERTEX_POINT('',#594);
#155=VERTEX_POINT('',#598);
#156=VERTEX_POINT('',#599);
#157=VERTEX_POINT('',#636);
#158=VERTEX_POINT('',#637);
#159=VERTEX_POINT('',#675);
#160=VERTEX_POINT('',#678);
#161=VERTEX_POINT('',#682);
#162=VERTEX_POINT('',#685);
#163=VERTEX_POINT('',#686);
#164=VERTEX_POINT('',#691);
#165=EDGE_CURVE('',#135,#135,#109,.T.);
#166=EDGE_CURVE('',#135,#136,#110,.T.);
#167=EDGE_CURVE('',#136,#137,#111,.T.);
#168=EDGE_CURVE('',#137,#136,#112,.T.);
#169=EDGE_CURVE('',#138,#138,#113,.T.);
#170=EDGE_CURVE('',#139,#139,#114,.T.);
#171=EDGE_CURVE('',#139,#137,#25,.T.);
#172=EDGE_CURVE('',#140,#141,#17,.T.);
#173=EDGE_CURVE('',#141,#140,#18,.T.);
#174=EDGE_CURVE('',#142,#143,#19,.T.);
#175=EDGE_CURVE('',#143,#142,#20,.T.);
#176=EDGE_CURVE('',#138,#144,#115,.T.);
#177=EDGE_CURVE('',#144,#145,#116,.T.);
#178=EDGE_CURVE('',#145,#144,#117,.T.);
#179=EDGE_CURVE('',#146,#147,#118,.T.);
#180=EDGE_CURVE('',#147,#146,#119,.T.);
#181=EDGE_CURVE('',#147,#145,#26,.T.);
#182=EDGE_CURVE('',#148,#148,#120,.T.);
#183=EDGE_CURVE('',#148,#146,#27,.T.);
#184=EDGE_CURVE('',#149,#149,#121,.T.);
#185=EDGE_CURVE('',#150,#151,#122,.T.);
#186=EDGE_CURVE('',#151,#150,#123,.T.);
#187=EDGE_CURVE('',#150,#152,#28,.T.);
#188=EDGE_CURVE('',#152,#152,#124,.T.);
#189=EDGE_CURVE('',#153,#154,#125,.T.);
#190=EDGE_CURVE('',#153,#151,#29,.T.);
#191=EDGE_CURVE('',#154,#153,#126,.T.);
#192=EDGE_CURVE('',#155,#156,#21,.T.);
#193=EDGE_CURVE('',#156,#155,#22,.T.);
#194=EDGE_CURVE('',#157,#158,#23,.T.);
#195=EDGE_CURVE('',#158,#157,#24,.T.);
#196=EDGE_CURVE('',#159,#159,#127,.T.);
#197=EDGE_CURVE('',#160,#160,#128,.T.);
#198=EDGE_CURVE('',#160,#154,#129,.T.);
#199=EDGE_CURVE('',#161,#161,#130,.T.);
#200=EDGE_CURVE('',#162,#163,#131,.T.);
#201=EDGE_CURVE('',#163,#162,#132,.T.);
#202=EDGE_CURVE('',#162,#161,#133,.T.);
#203=EDGE_CURVE('',#163,#164,#30,.T.);
#204=EDGE_CURVE('',#164,#164,#134,.T.);
#205=EDGE_CURVE('',#143,#156,#31,.T.);
#206=EDGE_CURVE('',#141,#158,#32,.T.);
#207=EDGE_CURVE('',#159,#149,#33,.T.);
#208=ORIENTED_EDGE('',*,*,#165,.T.);
#209=ORIENTED_EDGE('',*,*,#166,.T.);
#210=ORIENTED_EDGE('',*,*,#167,.T.);
#211=ORIENTED_EDGE('',*,*,#168,.T.);
#212=ORIENTED_EDGE('',*,*,#166,.F.);
#213=ORIENTED_EDGE('',*,*,#169,.F.);
#214=ORIENTED_EDGE('',*,*,#165,.F.);
#215=ORIENTED_EDGE('',*,*,#170,.T.);
#216=ORIENTED_EDGE('',*,*,#171,.T.);
#217=ORIENTED_EDGE('',*,*,#167,.F.);
#218=ORIENTED_EDGE('',*,*,#168,.F.);
#219=ORIENTED_EDGE('',*,*,#171,.F.);
#220=ORIENTED_EDGE('',*,*,#172,.T.);
#221=ORIENTED_EDGE('',*,*,#173,.T.);
#222=ORIENTED_EDGE('',*,*,#174,.T.);
#223=ORIENTED_EDGE('',*,*,#175,.T.);
#224=ORIENTED_EDGE('',*,*,#169,.T.);
#225=ORIENTED_EDGE('',*,*,#176,.T.);
#226=ORIENTED_EDGE('',*,*,#177,.T.);
#227=ORIENTED_EDGE('',*,*,#178,.T.);
#228=ORIENTED_EDGE('',*,*,#176,.F.);
#229=ORIENTED_EDGE('',*,*,#179,.F.);
#230=ORIENTED_EDGE('',*,*,#180,.F.);
#231=ORIENTED_EDGE('',*,*,#181,.T.);
#232=ORIENTED_EDGE('',*,*,#177,.F.);
#233=ORIENTED_EDGE('',*,*,#178,.F.);
#234=ORIENTED_EDGE('',*,*,#181,.F.);
#235=ORIENTED_EDGE('',*,*,#182,.T.);
#236=ORIENTED_EDGE('',*,*,#183,.T.);
#237=ORIENTED_EDGE('',*,*,#179,.T.);
#238=ORIENTED_EDGE('',*,*,#180,.T.);
#239=ORIENTED_EDGE('',*,*,#183,.F.);
#240=ORIENTED_EDGE('',*,*,#184,.F.);
#241=ORIENTED_EDGE('',*,*,#182,.F.);
#242=ORIENTED_EDGE('',*,*,#185,.T.);
#243=ORIENTED_EDGE('',*,*,#186,.T.);
#244=ORIENTED_EDGE('',*,*,#187,.T.);
#245=ORIENTED_EDGE('',*,*,#188,.T.);
#246=ORIENTED_EDGE('',*,*,#187,.F.);
#247=ORIENTED_EDGE('',*,*,#189,.F.);
#248=ORIENTED_EDGE('',*,*,#190,.T.);
#249=ORIENTED_EDGE('',*,*,#185,.F.);
#250=ORIENTED_EDGE('',*,*,#186,.F.);
#251=ORIENTED_EDGE('',*,*,#190,.F.);
#252=ORIENTED_EDGE('',*,*,#191,.F.);
#253=ORIENTED_EDGE('',*,*,#192,.T.);
#254=ORIENTED_EDGE('',*,*,#193,.T.);
#255=ORIENTED_EDGE('',*,*,#194,.T.);
#256=ORIENTED_EDGE('',*,*,#195,.T.);
#257=ORIENTED_EDGE('',*,*,#196,.T.);
#258=ORIENTED_EDGE('',*,*,#188,.F.);
#259=ORIENTED_EDGE('',*,*,#197,.T.);
#260=ORIENTED_EDGE('',*,*,#198,.T.);
#261=ORIENTED_EDGE('',*,*,#191,.T.);
#262=ORIENTED_EDGE('',*,*,#189,.T.);
#263=ORIENTED_EDGE('',*,*,#198,.F.);
#264=ORIENTED_EDGE('',*,*,#197,.F.);
#265=ORIENTED_EDGE('',*,*,#199,.F.);
#266=ORIENTED_EDGE('',*,*,#200,.T.);
#267=ORIENTED_EDGE('',*,*,#201,.T.);
#268=ORIENTED_EDGE('',*,*,#202,.T.);
#269=ORIENTED_EDGE('',*,*,#199,.T.);
#270=ORIENTED_EDGE('',*,*,#202,.F.);
#271=ORIENTED_EDGE('',*,*,#200,.F.);
#272=ORIENTED_EDGE('',*,*,#201,.F.);
#273=ORIENTED_EDGE('',*,*,#203,.T.);
#274=ORIENTED_EDGE('',*,*,#204,.F.);
#275=ORIENTED_EDGE('',*,*,#203,.F.);
#276=ORIENTED_EDGE('',*,*,#174,.F.);
#277=ORIENTED_EDGE('',*,*,#175,.F.);
#278=ORIENTED_EDGE('',*,*,#205,.T.);
#279=ORIENTED_EDGE('',*,*,#192,.F.);
#280=ORIENTED_EDGE('',*,*,#193,.F.);
#281=ORIENTED_EDGE('',*,*,#205,.F.);
#282=ORIENTED_EDGE('',*,*,#172,.F.);
#283=ORIENTED_EDGE('',*,*,#173,.F.);
#284=ORIENTED_EDGE('',*,*,#206,.T.);
#285=ORIENTED_EDGE('',*,*,#194,.F.);
#286=ORIENTED_EDGE('',*,*,#195,.F.);
#287=ORIENTED_EDGE('',*,*,#206,.F.);
#288=ORIENTED_EDGE('',*,*,#170,.F.);
#289=ORIENTED_EDGE('',*,*,#204,.T.);
#290=ORIENTED_EDGE('',*,*,#196,.F.);
#291=ORIENTED_EDGE('',*,*,#207,.T.);
#292=ORIENTED_EDGE('',*,*,#184,.T.);
#293=ORIENTED_EDGE('',*,*,#207,.F.);
#294=TOROIDAL_SURFACE('',#330,5.3,0.25);
#295=TOROIDAL_SURFACE('',#339,6.,0.25);
#296=TOROIDAL_SURFACE('',#359,6.,0.25);
#297=TOROIDAL_SURFACE('',#364,4.,0.25);
#298=ADVANCED_FACE('',(#64),#294,.T.);
#299=ADVANCED_FACE('',(#65,#50),#59,.T.);
#300=ADVANCED_FACE('',(#66,#51,#52),#43,.F.);
#301=ADVANCED_FACE('',(#67),#295,.T.);
#302=ADVANCED_FACE('',(#68),#44,.T.);
#303=ADVANCED_FACE('',(#69),#15,.T.);
#304=ADVANCED_FACE('',(#70,#53),#60,.T.);
#305=ADVANCED_FACE('',(#71),#16,.T.);
#306=ADVANCED_FACE('',(#72,#54,#55),#45,.T.);
#307=ADVANCED_FACE('',(#73,#56),#61,.T.);
#308=ADVANCED_FACE('',(#74),#296,.T.);
#309=ADVANCED_FACE('',(#75,#57),#62,.T.);
#310=ADVANCED_FACE('',(#76),#297,.T.);
#311=ADVANCED_FACE('',(#77),#46,.F.);
#312=ADVANCED_FACE('',(#78),#47,.F.);
#313=ADVANCED_FACE('',(#79),#48,.F.);
#314=ADVANCED_FACE('',(#80,#58),#63,.T.);
#315=ADVANCED_FACE('',(#81),#49,.T.);
#316=CLOSED_SHELL('',(#298,#299,#300,#301,#302,#303,#304,#305,#306,#307,
#308,#309,#310,#311,#312,#313,#314,#315));
#317=DERIVED_UNIT_ELEMENT(#319,1.);
#318=DERIVED_UNIT_ELEMENT(#706,-3.);
#319=(
MASS_UNIT()
NAMED_UNIT(*)
SI_UNIT(.KILO.,.GRAM.)
);
#320=DERIVED_UNIT((#317,#318));
#321=MEASURE_REPRESENTATION_ITEM('density measure',
POSITIVE_RATIO_MEASURE(7850.),#320);
#322=PROPERTY_DEFINITION_REPRESENTATION(#327,#324);
#323=PROPERTY_DEFINITION_REPRESENTATION(#328,#325);
#324=REPRESENTATION('material name',(#326),#703);
#325=REPRESENTATION('density',(#321),#703);
#326=DESCRIPTIVE_REPRESENTATION_ITEM('Steel','Steel');
#327=PROPERTY_DEFINITION('material property','material name',#713);
#328=PROPERTY_DEFINITION('material property','density of part',#713);
#329=AXIS2_PLACEMENT_3D('',#473,#374,#375);
#330=AXIS2_PLACEMENT_3D('',#474,#376,#377);
#331=AXIS2_PLACEMENT_3D('',#476,#378,#379);
#332=AXIS2_PLACEMENT_3D('',#478,#380,#381);
#333=AXIS2_PLACEMENT_3D('',#480,#382,#383);
#334=AXIS2_PLACEMENT_3D('',#481,#384,#385);
#335=AXIS2_PLACEMENT_3D('',#482,#386,#387);
#336=AXIS2_PLACEMENT_3D('',#484,#388,#389);
#337=AXIS2_PLACEMENT_3D('',#485,#390,#391);
#338=AXIS2_PLACEMENT_3D('',#487,#392,#393);
#339=AXIS2_PLACEMENT_3D('',#565,#395,#396);
#340=AXIS2_PLACEMENT_3D('',#567,#397,#398);
#341=AXIS2_PLACEMENT_3D('',#569,#399,#400);
#342=AXIS2_PLACEMENT_3D('',#570,#401,#402);
#343=AXIS2_PLACEMENT_3D('',#571,#403,#404);
#344=AXIS2_PLACEMENT_3D('',#574,#405,#406);
#345=AXIS2_PLACEMENT_3D('',#575,#407,#408);
#346=AXIS2_PLACEMENT_3D('',#577,#410,#411);
#347=AXIS2_PLACEMENT_3D('',#579,#412,#413);
#348=AXIS2_PLACEMENT_3D('',#581,#415,#416);
#349=AXIS2_PLACEMENT_3D('',#583,#417,#418);
#350=AXIS2_PLACEMENT_3D('',#584,#419,#420);
#351=AXIS2_PLACEMENT_3D('',#587,#421,#422);
#352=AXIS2_PLACEMENT_3D('',#588,#423,#424);
#353=AXIS2_PLACEMENT_3D('',#591,#426,#427);
#354=AXIS2_PLACEMENT_3D('',#592,#428,#429);
#355=AXIS2_PLACEMENT_3D('',#595,#430,#431);
#356=AXIS2_PLACEMENT_3D('',#597,#433,#434);
#357=AXIS2_PLACEMENT_3D('',#674,#435,#436);
#358=AXIS2_PLACEMENT_3D('',#676,#437,#438);
#359=AXIS2_PLACEMENT_3D('',#677,#439,#440);
#360=AXIS2_PLACEMENT_3D('',#679,#441,#442);
#361=AXIS2_PLACEMENT_3D('',#680,#443,#444);
#362=AXIS2_PLACEMENT_3D('',#681,#445,#446);
#363=AXIS2_PLACEMENT_3D('',#683,#447,#448);
#364=AXIS2_PLACEMENT_3D('',#684,#449,#450);
#365=AXIS2_PLACEMENT_3D('',#687,#451,#452);
#366=AXIS2_PLACEMENT_3D('',#688,#453,#454);
#367=AXIS2_PLACEMENT_3D('',#689,#455,#456);
#368=AXIS2_PLACEMENT_3D('',#690,#457,#458);
#369=AXIS2_PLACEMENT_3D('',#693,#460,#461);
#370=AXIS2_PLACEMENT_3D('',#694,#462,#463);
#371=AXIS2_PLACEMENT_3D('',#696,#465,#466);
#372=AXIS2_PLACEMENT_3D('',#698,#468,#469);
#373=AXIS2_PLACEMENT_3D('',#699,#470,#471);
#374=DIRECTION('axis',(0.,0.,1.));
#375=DIRECTION('refdir',(1.,0.,0.));
#376=DIRECTION('center_axis',(1.,0.,0.));
#377=DIRECTION('ref_axis',(0.,0.,-1.));
#378=DIRECTION('center_axis',(-1.,0.,0.));
#379=DIRECTION('ref_axis',(0.,-1.,1.83697019872103E-16));
#380=DIRECTION('center_axis',(0.,-1.,-1.22464679914735E-16));
#381=DIRECTION('ref_axis',(0.,-1.22464679914735E-16,1.));
#382=DIRECTION('center_axis',(1.,0.,0.));
#383=DIRECTION('ref_axis',(0.,-1.,1.83697019872103E-16));
#384=DIRECTION('center_axis',(1.,0.,0.));
#385=DIRECTION('ref_axis',(0.,-1.,1.83697019872103E-16));
#386=DIRECTION('center_axis',(-1.,0.,0.));
#387=DIRECTION('ref_axis',(0.,0.,1.));
#388=DIRECTION('center_axis',(1.,0.,0.));
#389=DIRECTION('ref_axis',(0.,1.,0.));
#390=DIRECTION('center_axis',(1.,0.,0.));
#391=DIRECTION('ref_axis',(0.,1.,0.));
#392=DIRECTION('center_axis',(1.,0.,0.));
#393=DIRECTION('ref_axis',(0.,0.,-1.));
#394=DIRECTION('',(-1.,0.,0.));
#395=DIRECTION('center_axis',(-1.,0.,0.));
#396=DIRECTION('ref_axis',(0.,0.,1.));
#397=DIRECTION('center_axis',(0.,-1.,1.22464679914735E-16));
#398=DIRECTION('ref_axis',(0.,-1.22464679914735E-16,-1.));
#399=DIRECTION('center_axis',(-1.,0.,0.));
#400=DIRECTION('ref_axis',(0.,1.,0.));
#401=DIRECTION('center_axis',(-1.,0.,0.));
#402=DIRECTION('ref_axis',(0.,1.,0.));
#403=DIRECTION('center_axis',(1.,0.,0.));
#404=DIRECTION('ref_axis',(0.,1.,0.));
#405=DIRECTION('center_axis',(1.,0.,0.));
#406=DIRECTION('ref_axis',(0.,-1.,0.));
#407=DIRECTION('center_axis',(1.,0.,0.));
#408=DIRECTION('ref_axis',(0.,-1.,0.));
#409=DIRECTION('',(-1.,0.,0.));
#410=DIRECTION('center_axis',(1.,0.,0.));
#411=DIRECTION('ref_axis',(0.,-1.,0.));
#412=DIRECTION('center_axis',(-1.,0.,0.));
#413=DIRECTION('ref_axis',(0.,-1.,0.));
#414=DIRECTION('',(-0.707106781186547,-0.707106781186547,-8.65956056235493E-17));
#415=DIRECTION('center_axis',(-1.,0.,0.));
#416=DIRECTION('ref_axis',(0.,0.,1.));
#417=DIRECTION('center_axis',(1.,0.,0.));
#418=DIRECTION('ref_axis',(0.,0.,-1.));
#419=DIRECTION('center_axis',(-1.,0.,0.));
#420=DIRECTION('ref_axis',(0.,-1.,0.));
#421=DIRECTION('center_axis',(-1.,0.,0.));
#422=DIRECTION('ref_axis',(0.,-1.,0.));
#423=DIRECTION('center_axis',(-1.,0.,0.));
#424=DIRECTION('ref_axis',(0.,-1.,0.));
#425=DIRECTION('',(-0.707106781186546,0.707106781186549,8.65956056235495E-17));
#426=DIRECTION('center_axis',(1.,0.,0.));
#427=DIRECTION('ref_axis',(0.,-1.,0.));
#428=DIRECTION('center_axis',(1.,0.,0.));
#429=DIRECTION('ref_axis',(0.,1.,0.));
#430=DIRECTION('center_axis',(1.,0.,0.));
#431=DIRECTION('ref_axis',(0.,-1.,1.83697019872103E-16));
#432=DIRECTION('',(-1.,0.,0.));
#433=DIRECTION('center_axis',(1.,0.,0.));
#434=DIRECTION('ref_axis',(0.,-1.,1.83697019872103E-16));
#435=DIRECTION('center_axis',(1.,0.,0.));
#436=DIRECTION('ref_axis',(0.,0.,-1.));
#437=DIRECTION('center_axis',(1.,0.,0.));
#438=DIRECTION('ref_axis',(0.,0.,-1.));
#439=DIRECTION('center_axis',(1.,0.,0.));
#440=DIRECTION('ref_axis',(0.,0.,-1.));
#441=DIRECTION('center_axis',(-1.,0.,0.));
#442=DIRECTION('ref_axis',(0.,-1.,1.83697019872103E-16));
#443=DIRECTION('center_axis',(0.,-1.,-1.22464679914735E-16));
#444=DIRECTION('ref_axis',(0.,-1.22464679914735E-16,1.));
#445=DIRECTION('center_axis',(1.,0.,0.));
#446=DIRECTION('ref_axis',(0.,0.,-1.));
#447=DIRECTION('center_axis',(1.,0.,0.));
#448=DIRECTION('ref_axis',(0.,-1.,1.83697019872103E-16));
#449=DIRECTION('center_axis',(1.,0.,0.));
#450=DIRECTION('ref_axis',(0.,0.,-1.));
#451=DIRECTION('center_axis',(-1.,0.,0.));
#452=DIRECTION('ref_axis',(0.,-1.,1.83697019872103E-16));
#453=DIRECTION('center_axis',(-1.,0.,0.));
#454=DIRECTION('ref_axis',(0.,-1.,1.83697019872103E-16));
#455=DIRECTION('center_axis',(0.,-1.,-1.22464679914735E-16));
#456=DIRECTION('ref_axis',(0.,-1.22464679914735E-16,1.));
#457=DIRECTION('center_axis',(1.,0.,0.));
#458=DIRECTION('ref_axis',(0.,1.,0.));
#459=DIRECTION('',(-1.,0.,0.));
#460=DIRECTION('center_axis',(1.,0.,0.));
#461=DIRECTION('ref_axis',(0.,0.,-1.));
#462=DIRECTION('center_axis',(0.,0.,-1.));
#463=DIRECTION('ref_axis',(1.,0.,0.));
#464=DIRECTION('',(0.,0.,-1.));
#465=DIRECTION('center_axis',(0.,0.,1.));
#466=DIRECTION('ref_axis',(-1.,0.,0.));
#467=DIRECTION('',(0.,0.,1.));
#468=DIRECTION('center_axis',(-1.,0.,0.));
#469=DIRECTION('ref_axis',(0.,0.,1.));
#470=DIRECTION('center_axis',(1.,0.,0.));
#471=DIRECTION('ref_axis',(0.,1.,0.));
#472=DIRECTION('',(-1.,0.,0.));
#473=CARTESIAN_POINT('',(0.,0.,0.));
#474=CARTESIAN_POINT('Origin',(-18.75,0.,0.));
#475=CARTESIAN_POINT('',(-19.,-6.49062803548097E-16,5.3));
#476=CARTESIAN_POINT('Origin',(-19.,0.,0.));
#477=CARTESIAN_POINT('',(-18.75,-6.18446633569413E-16,5.05));
#478=CARTESIAN_POINT('Origin',(-18.75,-6.49062803548097E-16,5.3));
#479=CARTESIAN_POINT('',(-18.75,-5.05,-6.18446633569413E-16));
#480=CARTESIAN_POINT('Origin',(-18.75,0.,0.));
#481=CARTESIAN_POINT('Origin',(-18.75,0.,0.));
#482=CARTESIAN_POINT('Origin',(-19.,6.25,0.));
#483=CARTESIAN_POINT('',(-19.,-7.34788079488412E-16,-6.));
#484=CARTESIAN_POINT('Origin',(-19.,0.,0.));
#485=CARTESIAN_POINT('Origin',(-9.5,0.,0.));
#486=CARTESIAN_POINT('',(0.,-5.05,-6.18446633569413E-16));
#487=CARTESIAN_POINT('Origin',(0.,0.,0.));
#488=CARTESIAN_POINT('',(-9.5,-5.05,-6.18446633569413E-16));
#489=CARTESIAN_POINT('',(-3.,-0.8,4.9862310415784));
#490=CARTESIAN_POINT('',(-2.2,1.09701193625082E-16,5.05));
#491=CARTESIAN_POINT('Ctrl Pts',(-3.,-0.8,4.9862310415784));
#492=CARTESIAN_POINT('Ctrl Pts',(-2.89936677181049,-0.8,4.9862310415784));
#493=CARTESIAN_POINT('Ctrl Pts',(-2.79214390042111,-0.77985365488843,4.9895925005733));
#494=CARTESIAN_POINT('Ctrl Pts',(-2.59509193191917,-0.698158548996337,5.00167768520227));
#495=CARTESIAN_POINT('Ctrl Pts',(-2.505248027866,-0.636618877764474,5.01022074327683));
#496=CARTESIAN_POINT('Ctrl Pts',(-2.36338266464119,-0.494753514539667,5.02621271238531));
#497=CARTESIAN_POINT('Ctrl Pts',(-2.30184178347971,-0.404908946635432,5.03470875052254));
#498=CARTESIAN_POINT('Ctrl Pts',(-2.22014579825665,-0.207854703933438,5.04668602939465));
#499=CARTESIAN_POINT('Ctrl Pts',(-2.2,-0.100631039979927,5.05));
#500=CARTESIAN_POINT('Ctrl Pts',(-2.2,6.93889390390723E-17,5.05));
#501=CARTESIAN_POINT('Ctrl Pts',(-2.2,8.67361737988404E-17,5.05));
#502=CARTESIAN_POINT('Ctrl Pts',(-2.2,0.100631039979928,5.05));
#503=CARTESIAN_POINT('Ctrl Pts',(-2.22014579825665,0.207854703933439,5.04668602939465));
#504=CARTESIAN_POINT('Ctrl Pts',(-2.30184178347971,0.404908946635432,5.03470875052254));
#505=CARTESIAN_POINT('Ctrl Pts',(-2.36338266464119,0.494753514539667,5.02621271238532));
#506=CARTESIAN_POINT('Ctrl Pts',(-2.505248027866,0.636618877764474,5.01022074327683));
#507=CARTESIAN_POINT('Ctrl Pts',(-2.59509193191917,0.698158548996337,5.00167768520227));
#508=CARTESIAN_POINT('Ctrl Pts',(-2.79214390042111,0.77985365488843,4.9895925005733));
#509=CARTESIAN_POINT('Ctrl Pts',(-2.89936677181049,0.8,4.9862310415784));
#510=CARTESIAN_POINT('Ctrl Pts',(-3.10063322818951,0.8,4.9862310415784));
#511=CARTESIAN_POINT('Ctrl Pts',(-3.20785609957889,0.77985365488843,4.9895925005733));
#512=CARTESIAN_POINT('Ctrl Pts',(-3.40490806808083,0.698158548996337,5.00167768520227));
#513=CARTESIAN_POINT('Ctrl Pts',(-3.494751972134,0.636618877764474,5.01022074327683));
#514=CARTESIAN_POINT('Ctrl Pts',(-3.63661733535881,0.494753514539667,5.02621271238532));
#515=CARTESIAN_POINT('Ctrl Pts',(-3.69815821652029,0.404908946635432,5.03470875052254));
#516=CARTESIAN_POINT('Ctrl Pts',(-3.77985420174335,0.207854703933438,5.04668602939465));
#517=CARTESIAN_POINT('Ctrl Pts',(-3.8,0.100631039979927,5.05));
#518=CARTESIAN_POINT('Ctrl Pts',(-3.8,-0.100631039979927,5.05));
#519=CARTESIAN_POINT('Ctrl Pts',(-3.77985420174335,-0.207854703933438,5.04668602939465));
#520=CARTESIAN_POINT('Ctrl Pts',(-3.69815821652029,-0.404908946635432,5.03470875052254));
#521=CARTESIAN_POINT('Ctrl Pts',(-3.63661733535881,-0.494753514539667,5.02621271238532));
#522=CARTESIAN_POINT('Ctrl Pts',(-3.494751972134,-0.636618877764474,5.01022074327683));
#523=CARTESIAN_POINT('Ctrl Pts',(-3.40490806808083,-0.698158548996337,5.00167768520227));
#524=CARTESIAN_POINT('Ctrl Pts',(-3.20785609957889,-0.77985365488843,4.9895925005733));
#525=CARTESIAN_POINT('Ctrl Pts',(-3.10063322818951,-0.8,4.9862310415784));
#526=CARTESIAN_POINT('Ctrl Pts',(-3.,-0.8,4.9862310415784));
#527=CARTESIAN_POINT('',(-3.,0.8,-4.9862310415784));
#528=CARTESIAN_POINT('',(-3.8,8.36803414854303E-17,-5.05));
#529=CARTESIAN_POINT('Ctrl Pts',(-3.,0.8,-4.9862310415784));
#530=CARTESIAN_POINT('Ctrl Pts',(-2.89936677181049,0.8,-4.9862310415784));
#531=CARTESIAN_POINT('Ctrl Pts',(-2.79214390042111,0.77985365488843,-4.9895925005733));
#532=CARTESIAN_POINT('Ctrl Pts',(-2.59509193191917,0.698158548996337,-5.00167768520227));
#533=CARTESIAN_POINT('Ctrl Pts',(-2.505248027866,0.636618877764473,-5.01022074327683));
#534=CARTESIAN_POINT('Ctrl Pts',(-2.36338266464119,0.494753514539666,-5.02621271238532));
#535=CARTESIAN_POINT('Ctrl Pts',(-2.30184178347971,0.404908946635431,-5.03470875052254));
#536=CARTESIAN_POINT('Ctrl Pts',(-2.22014579825665,0.207854703933438,-5.04668602939465));
#537=CARTESIAN_POINT('Ctrl Pts',(-2.2,0.100631039979927,-5.05));
#538=CARTESIAN_POINT('Ctrl Pts',(-2.2,-0.100631039979928,-5.05));
#539=CARTESIAN_POINT('Ctrl Pts',(-2.22014579825665,-0.207854703933439,-5.04668602939465));
#540=CARTESIAN_POINT('Ctrl Pts',(-2.30184178347971,-0.404908946635432,-5.03470875052254));
#541=CARTESIAN_POINT('Ctrl Pts',(-2.36338266464119,-0.494753514539667,-5.02621271238532));
#542=CARTESIAN_POINT('Ctrl Pts',(-2.505248027866,-0.636618877764474,-5.01022074327683));
#543=CARTESIAN_POINT('Ctrl Pts',(-2.59509193191917,-0.698158548996337,-5.00167768520227));
#544=CARTESIAN_POINT('Ctrl Pts',(-2.79214390042111,-0.77985365488843,-4.9895925005733));
#545=CARTESIAN_POINT('Ctrl Pts',(-2.89936677181049,-0.8,-4.9862310415784));
#546=CARTESIAN_POINT('Ctrl Pts',(-3.10063322818951,-0.8,-4.9862310415784));
#547=CARTESIAN_POINT('Ctrl Pts',(-3.20785609957889,-0.779853654888429,-4.9895925005733));
#548=CARTESIAN_POINT('Ctrl Pts',(-3.40490806808083,-0.698158548996338,-5.00167768520227));
#549=CARTESIAN_POINT('Ctrl Pts',(-3.494751972134,-0.636618877764474,-5.01022074327683));
#550=CARTESIAN_POINT('Ctrl Pts',(-3.63661733535881,-0.494753514539667,-5.02621271238532));
#551=CARTESIAN_POINT('Ctrl Pts',(-3.69815821652029,-0.404908946635432,-5.03470875052254));
#552=CARTESIAN_POINT('Ctrl Pts',(-3.77985420174335,-0.207854703933438,-5.04668602939465));
#553=CARTESIAN_POINT('Ctrl Pts',(-3.8,-0.100631039979927,-5.05));
#554=CARTESIAN_POINT('Ctrl Pts',(-3.8,5.20417042793042E-17,-5.05));
#555=CARTESIAN_POINT('Ctrl Pts',(-3.8,6.93889390390723E-17,-5.05));
#556=CARTESIAN_POINT('Ctrl Pts',(-3.8,0.100631039979928,-5.05));
#557=CARTESIAN_POINT('Ctrl Pts',(-3.77985420174335,0.207854703933438,-5.04668602939465));
#558=CARTESIAN_POINT('Ctrl Pts',(-3.69815821652029,0.404908946635432,-5.03470875052254));
#559=CARTESIAN_POINT('Ctrl Pts',(-3.63661733535881,0.494753514539667,-5.02621271238532));
#560=CARTESIAN_POINT('Ctrl Pts',(-3.494751972134,0.636618877764474,-5.01022074327683));
#561=CARTESIAN_POINT('Ctrl Pts',(-3.40490806808083,0.698158548996337,-5.00167768520227));
#562=CARTESIAN_POINT('Ctrl Pts',(-3.20785609957889,0.77985365488843,-4.9895925005733));
#563=CARTESIAN_POINT('Ctrl Pts',(-3.10063322818951,0.8,-4.9862310415784));
#564=CARTESIAN_POINT('Ctrl Pts',(-3.,0.8,-4.9862310415784));
#565=CARTESIAN_POINT('Origin',(-18.75,0.,0.));
#566=CARTESIAN_POINT('',(-18.75,-7.65404249467096E-16,-6.25));
#567=CARTESIAN_POINT('Origin',(-18.75,-7.34788079488412E-16,-6.));
#568=CARTESIAN_POINT('',(-18.75,-6.25,7.65404249467096E-16));
#569=CARTESIAN_POINT('Origin',(-18.75,0.,0.));
#570=CARTESIAN_POINT('Origin',(-18.75,0.,0.));
#571=CARTESIAN_POINT('Origin',(-13.25,0.,0.));
#572=CARTESIAN_POINT('',(-7.75,6.25,7.65404249467096E-16));
#573=CARTESIAN_POINT('',(-7.75,-6.25,-7.65404249467096E-16));
#574=CARTESIAN_POINT('Origin',(-7.75,0.,0.));
#575=CARTESIAN_POINT('Origin',(-7.75,0.,0.));
#576=CARTESIAN_POINT('',(-13.25,-6.25,-7.65404249467096E-16));
#577=CARTESIAN_POINT('Origin',(-7.625,0.,0.));
#578=CARTESIAN_POINT('',(-7.5,6.5,-7.9602041944578E-16));
#579=CARTESIAN_POINT('Origin',(-7.5,0.,0.));
#580=CARTESIAN_POINT('',(-7.625,6.375,7.80712334456438E-16));
#581=CARTESIAN_POINT('Origin',(-7.5,7.5,0.));
#582=CARTESIAN_POINT('',(-7.5,-7.5,-9.18485099360515E-16));
#583=CARTESIAN_POINT('Origin',(-7.5,0.,0.));
#584=CARTESIAN_POINT('Origin',(-6.375,0.,0.));
#585=CARTESIAN_POINT('',(-6.25,6.25,-7.65404249467096E-16));
#586=CARTESIAN_POINT('',(-6.25,-6.25,-7.65404249467096E-16));
#587=CARTESIAN_POINT('Origin',(-6.25,0.,0.));
#588=CARTESIAN_POINT('Origin',(-6.25,0.,0.));
#589=CARTESIAN_POINT('',(-6.5,6.5,7.9602041944578E-16));
#590=CARTESIAN_POINT('',(-6.375,6.375,7.80712334456438E-16));
#591=CARTESIAN_POINT('Origin',(-6.5,0.,0.));
#592=CARTESIAN_POINT('Origin',(-2.75,0.,0.));
#593=CARTESIAN_POINT('',(0.75,-6.25,-7.65404249467096E-16));
#594=CARTESIAN_POINT('',(0.75,-7.65404249467096E-16,6.25));
#595=CARTESIAN_POINT('Origin',(0.75,0.,0.));
#596=CARTESIAN_POINT('',(-2.75,-6.25,-7.65404249467096E-16));
#597=CARTESIAN_POINT('Origin',(0.75,0.,0.));
#598=CARTESIAN_POINT('',(-3.,0.8,-6.19858854901662));
#599=CARTESIAN_POINT('',(-3.8,9.79717439317883E-17,-6.25));
#600=CARTESIAN_POINT('Ctrl Pts',(-3.,0.8,-6.19858854901662));
#601=CARTESIAN_POINT('Ctrl Pts',(-3.1005687909132,0.8,-6.19858854901662));
#602=CARTESIAN_POINT('Ctrl Pts',(-3.20776474238417,0.779878686828093,-6.20128863014245));
#603=CARTESIAN_POINT('Ctrl Pts',(-3.40483505406976,0.698201652458175,-6.21101488333221));
#604=CARTESIAN_POINT('Ctrl Pts',(-3.49471893975007,0.636651910148411,-6.21789773034171));
#605=CARTESIAN_POINT('Ctrl Pts',(-3.63665125782471,0.494719592073766,-6.23079692106492));
#606=CARTESIAN_POINT('Ctrl Pts',(-3.69820151132475,0.404835423062276,-6.23765508245224));
#607=CARTESIAN_POINT('Ctrl Pts',(-3.77987892015923,0.207764150937023,-6.24732476382448));
#608=CARTESIAN_POINT('Ctrl Pts',(-3.8,0.100567866485196,-6.25));
#609=CARTESIAN_POINT('Ctrl Pts',(-3.8,-2.25514051876985E-16,-6.25));
#610=CARTESIAN_POINT('Ctrl Pts',(-3.8,-3.46944695195361E-17,-6.25));
#611=CARTESIAN_POINT('Ctrl Pts',(-3.8,-0.100567866485197,-6.25));
#612=CARTESIAN_POINT('Ctrl Pts',(-3.77987892015923,-0.207764150937023,-6.24732476382448));
#613=CARTESIAN_POINT('Ctrl Pts',(-3.69820151132475,-0.404835423062276,-6.23765508245224));
#614=CARTESIAN_POINT('Ctrl Pts',(-3.63665125782471,-0.494719592073766,-6.23079692106492));
#615=CARTESIAN_POINT('Ctrl Pts',(-3.49471893975007,-0.636651910148411,-6.21789773034171));
#616=CARTESIAN_POINT('Ctrl Pts',(-3.40483505406976,-0.698201652458175,-6.21101488333221));
#617=CARTESIAN_POINT('Ctrl Pts',(-3.20776474238417,-0.779878686828093,-6.20128863014245));
#618=CARTESIAN_POINT('Ctrl Pts',(-3.1005687909132,-0.8,-6.19858854901662));
#619=CARTESIAN_POINT('Ctrl Pts',(-2.8994312090868,-0.8,-6.19858854901662));
#620=CARTESIAN_POINT('Ctrl Pts',(-2.79223525761583,-0.779878686828093,-6.20128863014245));
#621=CARTESIAN_POINT('Ctrl Pts',(-2.59516494593024,-0.698201652458175,-6.21101488333221));
#622=CARTESIAN_POINT('Ctrl Pts',(-2.50528106024994,-0.636651910148411,-6.21789773034171));
#623=CARTESIAN_POINT('Ctrl Pts',(-2.36334874217529,-0.494719592073766,-6.23079692106492));
#624=CARTESIAN_POINT('Ctrl Pts',(-2.30179848867525,-0.404835423062276,-6.23765508245224));
#625=CARTESIAN_POINT('Ctrl Pts',(-2.22012107984077,-0.207764150937022,-6.24732476382448));
#626=CARTESIAN_POINT('Ctrl Pts',(-2.2,-0.100567866485197,-6.25));
#627=CARTESIAN_POINT('Ctrl Pts',(-2.2,0.100567866485197,-6.25));
#628=CARTESIAN_POINT('Ctrl Pts',(-2.22012107984077,0.207764150937022,-6.24732476382448));
#629=CARTESIAN_POINT('Ctrl Pts',(-2.30179848867525,0.404835423062276,-6.23765508245224));
#630=CARTESIAN_POINT('Ctrl Pts',(-2.36334874217529,0.494719592073766,-6.23079692106492));
#631=CARTESIAN_POINT('Ctrl Pts',(-2.50528106024994,0.636651910148411,-6.21789773034171));
#632=CARTESIAN_POINT('Ctrl Pts',(-2.59516494593024,0.698201652458175,-6.21101488333221));
#633=CARTESIAN_POINT('Ctrl Pts',(-2.79223525761583,0.779878686828093,-6.20128863014245));
#634=CARTESIAN_POINT('Ctrl Pts',(-2.8994312090868,0.8,-6.19858854901662));
#635=CARTESIAN_POINT('Ctrl Pts',(-3.,0.8,-6.19858854901662));
#636=CARTESIAN_POINT('',(-3.,-0.8,6.19858854901662));
#637=CARTESIAN_POINT('',(-2.2,9.79717439317883E-17,6.25));
#638=CARTESIAN_POINT('Ctrl Pts',(-3.,-0.8,6.19858854901662));
#639=CARTESIAN_POINT('Ctrl Pts',(-3.1005687909132,-0.8,6.19858854901662));
#640=CARTESIAN_POINT('Ctrl Pts',(-3.20776474238417,-0.779878686828093,6.20128863014245));
#641=CARTESIAN_POINT('Ctrl Pts',(-3.40483505406976,-0.698201652458175,6.21101488333221));
#642=CARTESIAN_POINT('Ctrl Pts',(-3.49471893975007,-0.636651910148411,6.21789773034171));
#643=CARTESIAN_POINT('Ctrl Pts',(-3.63665125782471,-0.494719592073766,6.23079692106492));
#644=CARTESIAN_POINT('Ctrl Pts',(-3.69820151132475,-0.404835423062276,6.23765508245224));
#645=CARTESIAN_POINT('Ctrl Pts',(-3.77987892015923,-0.207764150937023,6.24732476382448));
#646=CARTESIAN_POINT('Ctrl Pts',(-3.8,-0.100567866485196,6.25));
#647=CARTESIAN_POINT('Ctrl Pts',(-3.8,0.100567866485197,6.25));
#648=CARTESIAN_POINT('Ctrl Pts',(-3.77987892015923,0.207764150937023,6.24732476382448));
#649=CARTESIAN_POINT('Ctrl Pts',(-3.69820151132475,0.404835423062276,6.23765508245224));
#650=CARTESIAN_POINT('Ctrl Pts',(-3.63665125782471,0.494719592073766,6.23079692106492));
#651=CARTESIAN_POINT('Ctrl Pts',(-3.49471893975007,0.636651910148411,6.21789773034171));
#652=CARTESIAN_POINT('Ctrl Pts',(-3.40483505406976,0.698201652458175,6.21101488333221));
#653=CARTESIAN_POINT('Ctrl Pts',(-3.20776474238417,0.779878686828093,6.20128863014245));
#654=CARTESIAN_POINT('Ctrl Pts',(-3.1005687909132,0.8,6.19858854901662));
#655=CARTESIAN_POINT('Ctrl Pts',(-2.8994312090868,0.8,6.19858854901662));
#656=CARTESIAN_POINT('Ctrl Pts',(-2.79223525761583,0.779878686828093,6.20128863014245));
#657=CARTESIAN_POINT('Ctrl Pts',(-2.59516494593024,0.698201652458175,6.21101488333221));
#658=CARTESIAN_POINT('Ctrl Pts',(-2.50528106024994,0.636651910148411,6.21789773034171));
#659=CARTESIAN_POINT('Ctrl Pts',(-2.36334874217529,0.494719592073766,6.23079692106492));
#660=CARTESIAN_POINT('Ctrl Pts',(-2.30179848867525,0.404835423062276,6.23765508245224));
#661=CARTESIAN_POINT('Ctrl Pts',(-2.22012107984077,0.207764150937023,6.24732476382448));
#662=CARTESIAN_POINT('Ctrl Pts',(-2.2,0.100567866485197,6.25));
#663=CARTESIAN_POINT('Ctrl Pts',(-2.2,-3.46944695195361E-17,6.25));
#664=CARTESIAN_POINT('Ctrl Pts',(-2.2,-8.67361737988404E-17,6.25));
#665=CARTESIAN_POINT('Ctrl Pts',(-2.2,-0.100567866485197,6.25));
#666=CARTESIAN_POINT('Ctrl Pts',(-2.22012107984077,-0.207764150937023,6.24732476382448));
#667=CARTESIAN_POINT('Ctrl Pts',(-2.30179848867525,-0.404835423062276,6.23765508245224));
#668=CARTESIAN_POINT('Ctrl Pts',(-2.36334874217529,-0.494719592073766,6.23079692106492));
#669=CARTESIAN_POINT('Ctrl Pts',(-2.50528106024994,-0.636651910148411,6.21789773034171));
#670=CARTESIAN_POINT('Ctrl Pts',(-2.59516494593024,-0.698201652458175,6.21101488333221));
#671=CARTESIAN_POINT('Ctrl Pts',(-2.79223525761583,-0.779878686828093,6.20128863014245));
#672=CARTESIAN_POINT('Ctrl Pts',(-2.89943120908681,-0.8,6.19858854901662));
#673=CARTESIAN_POINT('Ctrl Pts',(-3.,-0.8,6.19858854901662));
#674=CARTESIAN_POINT('Origin',(-6.5,6.25,0.));
#675=CARTESIAN_POINT('',(-6.5,-7.5,-9.18485099360515E-16));
#676=CARTESIAN_POINT('Origin',(-6.5,0.,0.));
#677=CARTESIAN_POINT('Origin',(0.75,0.,0.));
#678=CARTESIAN_POINT('',(1.,-7.34788079488412E-16,6.));
#679=CARTESIAN_POINT('Origin',(1.,0.,0.));
#680=CARTESIAN_POINT('Origin',(0.75,-7.34788079488412E-16,6.));
#681=CARTESIAN_POINT('Origin',(1.,3.75,0.));
#682=CARTESIAN_POINT('',(1.,-4.89858719658941E-16,4.));
#683=CARTESIAN_POINT('Origin',(1.,0.,0.));
#684=CARTESIAN_POINT('Origin',(0.75,0.,0.));
#685=CARTESIAN_POINT('',(0.75,-4.59242549680257E-16,3.75));
#686=CARTESIAN_POINT('',(0.75,-3.75,-4.59242549680257E-16));
#687=CARTESIAN_POINT('Origin',(0.75,0.,0.));
#688=CARTESIAN_POINT('Origin',(0.75,0.,0.));
#689=CARTESIAN_POINT('Origin',(0.75,-4.89858719658941E-16,4.));
#690=CARTESIAN_POINT('Origin',(0.5,0.,0.));
#691=CARTESIAN_POINT('',(0.,-3.75,-4.59242549680257E-16));
#692=CARTESIAN_POINT('',(0.5,-3.75,-4.59242549680257E-16));
#693=CARTESIAN_POINT('Origin',(0.,0.,0.));
#694=CARTESIAN_POINT('Origin',(-3.,0.,-7.5));
#695=CARTESIAN_POINT('',(-3.8,9.79717439317883E-17,-7.5));
#696=CARTESIAN_POINT('Origin',(-3.,0.,7.5));
#697=CARTESIAN_POINT('',(-2.2,9.79717439317883E-17,7.5));
#698=CARTESIAN_POINT('Origin',(0.,5.05,0.));
#699=CARTESIAN_POINT('Origin',(-7.,0.,0.));
#700=CARTESIAN_POINT('',(-7.,-7.5,-9.18485099360515E-16));
#701=UNCERTAINTY_MEASURE_WITH_UNIT(LENGTH_MEASURE(0.01),#705,
'DISTANCE_ACCURACY_VALUE',
'Maximum model space distance between geometric entities at asserted c
onnectivities');
#702=UNCERTAINTY_MEASURE_WITH_UNIT(LENGTH_MEASURE(0.01),#705,
'DISTANCE_ACCURACY_VALUE',
'Maximum model space distance between geometric entities at asserted c
onnectivities');
#703=(
GEOMETRIC_REPRESENTATION_CONTEXT(3)
GLOBAL_UNCERTAINTY_ASSIGNED_CONTEXT((#701))
GLOBAL_UNIT_ASSIGNED_CONTEXT((#705,#707,#708))
REPRESENTATION_CONTEXT('','3D')
);
#704=(
GEOMETRIC_REPRESENTATION_CONTEXT(3)
GLOBAL_UNCERTAINTY_ASSIGNED_CONTEXT((#702))
GLOBAL_UNIT_ASSIGNED_CONTEXT((#705,#707,#708))
REPRESENTATION_CONTEXT('','3D')
);
#705=(
LENGTH_UNIT()
NAMED_UNIT(*)
SI_UNIT(.MILLI.,.METRE.)
);
#706=(
LENGTH_UNIT()
NAMED_UNIT(*)
SI_UNIT($,.METRE.)
);
#707=(
NAMED_UNIT(*)
PLANE_ANGLE_UNIT()
SI_UNIT($,.RADIAN.)
);
#708=(
NAMED_UNIT(*)
SI_UNIT($,.STERADIAN.)
SOLID_ANGLE_UNIT()
);
#709=SHAPE_DEFINITION_REPRESENTATION(#710,#711);
#710=PRODUCT_DEFINITION_SHAPE('',$,#713);
#711=SHAPE_REPRESENTATION('',(#329),#703);
#712=PRODUCT_DEFINITION_CONTEXT('part definition',#717,'design');
#713=PRODUCT_DEFINITION('2026-07-04-17-59-53-109','motor housing',#714,
#712);
#714=PRODUCT_DEFINITION_FORMATION('',$,#719);
#715=PRODUCT_RELATED_PRODUCT_CATEGORY('motor housing','motor housing',(#719));
#716=APPLICATION_PROTOCOL_DEFINITION('international standard',
'automotive_design',2009,#717);
#717=APPLICATION_CONTEXT(
'Core Data for Automotive Mechanical Design Process');
#718=PRODUCT_CONTEXT('part definition',#717,'mechanical');
#719=PRODUCT('2026-07-04-17-59-53-109','motor housing',$,(#718));
#720=PRESENTATION_STYLE_ASSIGNMENT((#722));
#721=PRESENTATION_STYLE_ASSIGNMENT((#723));
#722=SURFACE_STYLE_USAGE(.BOTH.,#724);
#723=SURFACE_STYLE_USAGE(.BOTH.,#725);
#724=SURFACE_SIDE_STYLE('',(#726));
#725=SURFACE_SIDE_STYLE('',(#727));
#726=SURFACE_STYLE_FILL_AREA(#728);
#727=SURFACE_STYLE_FILL_AREA(#729);
#728=FILL_AREA_STYLE('Steel - Satin',(#730));
#729=FILL_AREA_STYLE('Steel - Galvanized (Small)',(#731));
#730=FILL_AREA_STYLE_COLOUR('Steel - Satin',#732);
#731=FILL_AREA_STYLE_COLOUR('Steel - Galvanized (Small)',#733);
#732=COLOUR_RGB('Steel - Satin',0.627450980392157,0.627450980392157,0.627450980392157);
#733=COLOUR_RGB('Steel - Galvanized (Small)',0.,0.,0.);
ENDSEC;
END-ISO-10303-21;
