ISO-10303-21;
HEADER;
/* Generated by software containing ST-Developer
 * from STEP Tools, Inc. (www.steptools.com) 
 */

FILE_DESCRIPTION(
/* description */ (''),
/* implementation_level */ '2;1');

FILE_NAME(
/* name */ 'motor.step',
/* time_stamp */ '2026-07-04T17:58:42+05:30',
/* author */ (''),
/* organization */ (''),
/* preprocessor_version */ 'ST-DEVELOPER v20.1',
/* originating_system */ 'Autodesk Translation Framework v15.8.0.0',
/* authorisation */ '');

FILE_SCHEMA (('AUTOMOTIVE_DESIGN { 1 0 10303 214 3 1 1 }'));
ENDSEC;

DATA;
#10=MECHANICAL_DESIGN_GEOMETRIC_PRESENTATION_REPRESENTATION('',(#13),#266);
#11=SHAPE_REPRESENTATION_RELATIONSHIP('SRR','None',#273,#12);
#12=ADVANCED_BREP_SHAPE_REPRESENTATION('',(#14),#265);
#13=STYLED_ITEM('',(#282),#14);
#14=MANIFOLD_SOLID_BREP('Body1',#142);
#15=FACE_BOUND('',#41,.T.);
#16=FACE_BOUND('',#44,.T.);
#17=FACE_BOUND('',#47,.T.);
#18=FACE_BOUND('',#50,.T.);
#19=PLANE('',#159);
#20=PLANE('',#160);
#21=PLANE('',#164);
#22=PLANE('',#168);
#23=PLANE('',#172);
#24=PLANE('',#176);
#25=FACE_OUTER_BOUND('',#36,.T.);
#26=FACE_OUTER_BOUND('',#37,.T.);
#27=FACE_OUTER_BOUND('',#38,.T.);
#28=FACE_OUTER_BOUND('',#39,.T.);
#29=FACE_OUTER_BOUND('',#40,.T.);
#30=FACE_OUTER_BOUND('',#42,.T.);
#31=FACE_OUTER_BOUND('',#43,.T.);
#32=FACE_OUTER_BOUND('',#45,.T.);
#33=FACE_OUTER_BOUND('',#46,.T.);
#34=FACE_OUTER_BOUND('',#48,.T.);
#35=FACE_OUTER_BOUND('',#49,.T.);
#36=EDGE_LOOP('',(#96,#97,#98,#99));
#37=EDGE_LOOP('',(#100));
#38=EDGE_LOOP('',(#101));
#39=EDGE_LOOP('',(#102,#103,#104,#105));
#40=EDGE_LOOP('',(#106));
#41=EDGE_LOOP('',(#107));
#42=EDGE_LOOP('',(#108,#109,#110,#111));
#43=EDGE_LOOP('',(#112));
#44=EDGE_LOOP('',(#113));
#45=EDGE_LOOP('',(#114,#115,#116,#117));
#46=EDGE_LOOP('',(#118));
#47=EDGE_LOOP('',(#119));
#48=EDGE_LOOP('',(#120,#121,#122,#123));
#49=EDGE_LOOP('',(#124));
#50=EDGE_LOOP('',(#125));
#51=LINE('',#231,#56);
#52=LINE('',#240,#57);
#53=LINE('',#247,#58);
#54=LINE('',#254,#59);
#55=LINE('',#261,#60);
#56=VECTOR('',#183,0.5);
#57=VECTOR('',#196,0.5);
#58=VECTOR('',#205,3.);
#59=VECTOR('',#214,5.);
#60=VECTOR('',#223,3.5);
#61=CIRCLE('',#157,0.5);
#62=CIRCLE('',#158,0.5);
#63=CIRCLE('',#161,0.5);
#64=CIRCLE('',#163,0.5);
#65=CIRCLE('',#165,3.);
#66=CIRCLE('',#167,3.);
#67=CIRCLE('',#169,5.);
#68=CIRCLE('',#171,5.);
#69=CIRCLE('',#173,3.5);
#70=CIRCLE('',#175,3.5);
#71=VERTEX_POINT('',#228);
#72=VERTEX_POINT('',#230);
#73=VERTEX_POINT('',#235);
#74=VERTEX_POINT('',#238);
#75=VERTEX_POINT('',#242);
#76=VERTEX_POINT('',#245);
#77=VERTEX_POINT('',#249);
#78=VERTEX_POINT('',#252);
#79=VERTEX_POINT('',#256);
#80=VERTEX_POINT('',#259);
#81=EDGE_CURVE('',#71,#71,#61,.T.);
#82=EDGE_CURVE('',#71,#72,#51,.T.);
#83=EDGE_CURVE('',#72,#72,#62,.T.);
#84=EDGE_CURVE('',#73,#73,#63,.T.);
#85=EDGE_CURVE('',#74,#74,#64,.T.);
#86=EDGE_CURVE('',#74,#73,#52,.T.);
#87=EDGE_CURVE('',#75,#75,#65,.T.);
#88=EDGE_CURVE('',#76,#76,#66,.T.);
#89=EDGE_CURVE('',#76,#75,#53,.T.);
#90=EDGE_CURVE('',#77,#77,#67,.T.);
#91=EDGE_CURVE('',#78,#78,#68,.T.);
#92=EDGE_CURVE('',#78,#77,#54,.T.);
#93=EDGE_CURVE('',#79,#79,#69,.T.);
#94=EDGE_CURVE('',#80,#80,#70,.T.);
#95=EDGE_CURVE('',#80,#79,#55,.T.);
#96=ORIENTED_EDGE('',*,*,#81,.F.);
#97=ORIENTED_EDGE('',*,*,#82,.T.);
#98=ORIENTED_EDGE('',*,*,#83,.T.);
#99=ORIENTED_EDGE('',*,*,#82,.F.);
#100=ORIENTED_EDGE('',*,*,#81,.T.);
#101=ORIENTED_EDGE('',*,*,#84,.F.);
#102=ORIENTED_EDGE('',*,*,#85,.F.);
#103=ORIENTED_EDGE('',*,*,#86,.T.);
#104=ORIENTED_EDGE('',*,*,#84,.T.);
#105=ORIENTED_EDGE('',*,*,#86,.F.);
#106=ORIENTED_EDGE('',*,*,#87,.F.);
#107=ORIENTED_EDGE('',*,*,#85,.T.);
#108=ORIENTED_EDGE('',*,*,#88,.F.);
#109=ORIENTED_EDGE('',*,*,#89,.T.);
#110=ORIENTED_EDGE('',*,*,#87,.T.);
#111=ORIENTED_EDGE('',*,*,#89,.F.);
#112=ORIENTED_EDGE('',*,*,#90,.F.);
#113=ORIENTED_EDGE('',*,*,#88,.T.);
#114=ORIENTED_EDGE('',*,*,#91,.F.);
#115=ORIENTED_EDGE('',*,*,#92,.T.);
#116=ORIENTED_EDGE('',*,*,#90,.T.);
#117=ORIENTED_EDGE('',*,*,#92,.F.);
#118=ORIENTED_EDGE('',*,*,#91,.T.);
#119=ORIENTED_EDGE('',*,*,#93,.F.);
#120=ORIENTED_EDGE('',*,*,#94,.F.);
#121=ORIENTED_EDGE('',*,*,#95,.T.);
#122=ORIENTED_EDGE('',*,*,#93,.T.);
#123=ORIENTED_EDGE('',*,*,#95,.F.);
#124=ORIENTED_EDGE('',*,*,#94,.T.);
#125=ORIENTED_EDGE('',*,*,#83,.F.);
#126=CYLINDRICAL_SURFACE('',#156,0.5);
#127=CYLINDRICAL_SURFACE('',#162,0.5);
#128=CYLINDRICAL_SURFACE('',#166,3.);
#129=CYLINDRICAL_SURFACE('',#170,5.);
#130=CYLINDRICAL_SURFACE('',#174,3.5);
#131=ADVANCED_FACE('',(#25),#126,.T.);
#132=ADVANCED_FACE('',(#26),#19,.T.);
#133=ADVANCED_FACE('',(#27),#20,.T.);
#134=ADVANCED_FACE('',(#28),#127,.T.);
#135=ADVANCED_FACE('',(#29,#15),#21,.T.);
#136=ADVANCED_FACE('',(#30),#128,.T.);
#137=ADVANCED_FACE('',(#31,#16),#22,.T.);
#138=ADVANCED_FACE('',(#32),#129,.T.);
#139=ADVANCED_FACE('',(#33,#17),#23,.T.);
#140=ADVANCED_FACE('',(#34),#130,.T.);
#141=ADVANCED_FACE('',(#35,#18),#24,.T.);
#142=CLOSED_SHELL('',(#131,#132,#133,#134,#135,#136,#137,#138,#139,#140,
#141));
#143=DERIVED_UNIT_ELEMENT(#145,1.);
#144=DERIVED_UNIT_ELEMENT(#268,-3.);
#145=(
MASS_UNIT()
NAMED_UNIT(*)
SI_UNIT(.KILO.,.GRAM.)
);
#146=DERIVED_UNIT((#143,#144));
#147=MEASURE_REPRESENTATION_ITEM('density measure',
POSITIVE_RATIO_MEASURE(7850.),#146);
#148=PROPERTY_DEFINITION_REPRESENTATION(#153,#150);
#149=PROPERTY_DEFINITION_REPRESENTATION(#154,#151);
#150=REPRESENTATION('material name',(#152),#265);
#151=REPRESENTATION('density',(#147),#265);
#152=DESCRIPTIVE_REPRESENTATION_ITEM('Steel','Steel');
#153=PROPERTY_DEFINITION('material property','material name',#275);
#154=PROPERTY_DEFINITION('material property','density of part',#275);
#155=AXIS2_PLACEMENT_3D('',#226,#177,#178);
#156=AXIS2_PLACEMENT_3D('',#227,#179,#180);
#157=AXIS2_PLACEMENT_3D('',#229,#181,#182);
#158=AXIS2_PLACEMENT_3D('',#232,#184,#185);
#159=AXIS2_PLACEMENT_3D('',#233,#186,#187);
#160=AXIS2_PLACEMENT_3D('',#234,#188,#189);
#161=AXIS2_PLACEMENT_3D('',#236,#190,#191);
#162=AXIS2_PLACEMENT_3D('',#237,#192,#193);
#163=AXIS2_PLACEMENT_3D('',#239,#194,#195);
#164=AXIS2_PLACEMENT_3D('',#241,#197,#198);
#165=AXIS2_PLACEMENT_3D('',#243,#199,#200);
#166=AXIS2_PLACEMENT_3D('',#244,#201,#202);
#167=AXIS2_PLACEMENT_3D('',#246,#203,#204);
#168=AXIS2_PLACEMENT_3D('',#248,#206,#207);
#169=AXIS2_PLACEMENT_3D('',#250,#208,#209);
#170=AXIS2_PLACEMENT_3D('',#251,#210,#211);
#171=AXIS2_PLACEMENT_3D('',#253,#212,#213);
#172=AXIS2_PLACEMENT_3D('',#255,#215,#216);
#173=AXIS2_PLACEMENT_3D('',#257,#217,#218);
#174=AXIS2_PLACEMENT_3D('',#258,#219,#220);
#175=AXIS2_PLACEMENT_3D('',#260,#221,#222);
#176=AXIS2_PLACEMENT_3D('',#262,#224,#225);
#177=DIRECTION('axis',(0.,0.,1.));
#178=DIRECTION('refdir',(1.,0.,0.));
#179=DIRECTION('center_axis',(-1.,0.,0.));
#180=DIRECTION('ref_axis',(0.,0.,1.));
#181=DIRECTION('center_axis',(-1.,0.,0.));
#182=DIRECTION('ref_axis',(0.,0.,1.));
#183=DIRECTION('',(1.,0.,0.));
#184=DIRECTION('center_axis',(-1.,0.,0.));
#185=DIRECTION('ref_axis',(0.,0.,1.));
#186=DIRECTION('center_axis',(-1.,0.,0.));
#187=DIRECTION('ref_axis',(0.,0.,1.));
#188=DIRECTION('center_axis',(1.,0.,0.));
#189=DIRECTION('ref_axis',(0.,0.,-1.));
#190=DIRECTION('center_axis',(-1.,0.,0.));
#191=DIRECTION('ref_axis',(0.,0.,1.));
#192=DIRECTION('center_axis',(-1.,0.,0.));
#193=DIRECTION('ref_axis',(0.,0.,1.));
#194=DIRECTION('center_axis',(-1.,0.,0.));
#195=DIRECTION('ref_axis',(0.,0.,1.));
#196=DIRECTION('',(1.,0.,0.));
#197=DIRECTION('center_axis',(1.,0.,0.));
#198=DIRECTION('ref_axis',(0.,0.,-1.));
#199=DIRECTION('center_axis',(-1.,0.,0.));
#200=DIRECTION('ref_axis',(0.,0.,1.));
#201=DIRECTION('center_axis',(-1.,0.,0.));
#202=DIRECTION('ref_axis',(0.,0.,1.));
#203=DIRECTION('center_axis',(-1.,0.,0.));
#204=DIRECTION('ref_axis',(0.,0.,1.));
#205=DIRECTION('',(1.,0.,0.));
#206=DIRECTION('center_axis',(1.,0.,0.));
#207=DIRECTION('ref_axis',(0.,0.,-1.));
#208=DIRECTION('center_axis',(-1.,0.,0.));
#209=DIRECTION('ref_axis',(0.,0.,1.));
#210=DIRECTION('center_axis',(-1.,0.,0.));
#211=DIRECTION('ref_axis',(0.,0.,1.));
#212=DIRECTION('center_axis',(-1.,0.,0.));
#213=DIRECTION('ref_axis',(0.,0.,1.));
#214=DIRECTION('',(1.,0.,0.));
#215=DIRECTION('center_axis',(-1.,0.,0.));
#216=DIRECTION('ref_axis',(0.,0.,1.));
#217=DIRECTION('center_axis',(-1.,0.,0.));
#218=DIRECTION('ref_axis',(0.,0.,1.));
#219=DIRECTION('center_axis',(-1.,0.,0.));
#220=DIRECTION('ref_axis',(0.,0.,1.));
#221=DIRECTION('center_axis',(-1.,0.,0.));
#222=DIRECTION('ref_axis',(0.,0.,1.));
#223=DIRECTION('',(1.,0.,0.));
#224=DIRECTION('center_axis',(-1.,0.,0.));
#225=DIRECTION('ref_axis',(0.,0.,1.));
#226=CARTESIAN_POINT('',(0.,0.,0.));
#227=CARTESIAN_POINT('Origin',(1.5,0.,-6.93889390390723E-17));
#228=CARTESIAN_POINT('',(0.,-6.12323399573677E-17,-0.5));
#229=CARTESIAN_POINT('Origin',(0.,0.,-6.93889390390723E-17));
#230=CARTESIAN_POINT('',(3.,-6.12323399573677E-17,-0.5));
#231=CARTESIAN_POINT('',(1.5,-6.12323399573677E-17,-0.5));
#232=CARTESIAN_POINT('Origin',(3.,0.,-6.93889390390723E-17));
#233=CARTESIAN_POINT('Origin',(0.,0.,0.));
#234=CARTESIAN_POINT('Origin',(35.5,0.,0.5));
#235=CARTESIAN_POINT('',(35.5,-6.12323399573677E-17,-0.5));
#236=CARTESIAN_POINT('Origin',(35.5,0.,-6.93889390390723E-17));
#237=CARTESIAN_POINT('Origin',(33.95,0.,-6.93889390390723E-17));
#238=CARTESIAN_POINT('',(32.4,-6.12323399573677E-17,-0.5));
#239=CARTESIAN_POINT('Origin',(32.4,0.,-6.93889390390723E-17));
#240=CARTESIAN_POINT('',(33.95,-6.12323399573677E-17,-0.5));
#241=CARTESIAN_POINT('Origin',(32.4,0.,3.));
#242=CARTESIAN_POINT('',(32.4,-3.67394039744206E-16,-3.));
#243=CARTESIAN_POINT('Origin',(32.4,0.,-6.93889390390723E-17));
#244=CARTESIAN_POINT('Origin',(32.125,0.,-6.93889390390723E-17));
#245=CARTESIAN_POINT('',(31.85,-3.67394039744206E-16,-3.));
#246=CARTESIAN_POINT('Origin',(31.85,0.,-6.93889390390723E-17));
#247=CARTESIAN_POINT('',(32.125,-3.67394039744206E-16,-3.));
#248=CARTESIAN_POINT('Origin',(31.85,0.,5.));
#249=CARTESIAN_POINT('',(31.85,-6.12323399573677E-16,-5.));
#250=CARTESIAN_POINT('Origin',(31.85,0.,-6.93889390390723E-17));
#251=CARTESIAN_POINT('Origin',(18.725,0.,-6.93889390390723E-17));
#252=CARTESIAN_POINT('',(5.6,-6.12323399573677E-16,-5.));
#253=CARTESIAN_POINT('Origin',(5.6,0.,-6.93889390390723E-17));
#254=CARTESIAN_POINT('',(18.725,-6.12323399573677E-16,-5.));
#255=CARTESIAN_POINT('Origin',(5.6,0.,3.5));
#256=CARTESIAN_POINT('',(5.6,-4.28626379701574E-16,-3.5));
#257=CARTESIAN_POINT('Origin',(5.6,0.,-6.93889390390723E-17));
#258=CARTESIAN_POINT('Origin',(4.3,0.,-6.93889390390723E-17));
#259=CARTESIAN_POINT('',(3.,-4.28626379701574E-16,-3.5));
#260=CARTESIAN_POINT('Origin',(3.,0.,-6.93889390390723E-17));
#261=CARTESIAN_POINT('',(4.3,-4.28626379701574E-16,-3.5));
#262=CARTESIAN_POINT('Origin',(3.,0.,0.5));
#263=UNCERTAINTY_MEASURE_WITH_UNIT(LENGTH_MEASURE(0.01),#267,
'DISTANCE_ACCURACY_VALUE',
'Maximum model space distance between geometric entities at asserted c
onnectivities');
#264=UNCERTAINTY_MEASURE_WITH_UNIT(LENGTH_MEASURE(0.01),#267,
'DISTANCE_ACCURACY_VALUE',
'Maximum model space distance between geometric entities at asserted c
onnectivities');
#265=(
GEOMETRIC_REPRESENTATION_CONTEXT(3)
GLOBAL_UNCERTAINTY_ASSIGNED_CONTEXT((#263))
GLOBAL_UNIT_ASSIGNED_CONTEXT((#267,#269,#270))
REPRESENTATION_CONTEXT('','3D')
);
#266=(
GEOMETRIC_REPRESENTATION_CONTEXT(3)
GLOBAL_UNCERTAINTY_ASSIGNED_CONTEXT((#264))
GLOBAL_UNIT_ASSIGNED_CONTEXT((#267,#269,#270))
REPRESENTATION_CONTEXT('','3D')
);
#267=(
LENGTH_UNIT()
NAMED_UNIT(*)
SI_UNIT(.MILLI.,.METRE.)
);
#268=(
LENGTH_UNIT()
NAMED_UNIT(*)
SI_UNIT($,.METRE.)
);
#269=(
NAMED_UNIT(*)
PLANE_ANGLE_UNIT()
SI_UNIT($,.RADIAN.)
);
#270=(
NAMED_UNIT(*)
SI_UNIT($,.STERADIAN.)
SOLID_ANGLE_UNIT()
);
#271=SHAPE_DEFINITION_REPRESENTATION(#272,#273);
#272=PRODUCT_DEFINITION_SHAPE('',$,#275);
#273=SHAPE_REPRESENTATION('',(#155),#265);
#274=PRODUCT_DEFINITION_CONTEXT('part definition',#279,'design');
#275=PRODUCT_DEFINITION('2026-07-04-17-58-42-160','motor',#276,#274);
#276=PRODUCT_DEFINITION_FORMATION('',$,#281);
#277=PRODUCT_RELATED_PRODUCT_CATEGORY('motor','motor',(#281));
#278=APPLICATION_PROTOCOL_DEFINITION('international standard',
'automotive_design',2009,#279);
#279=APPLICATION_CONTEXT(
'Core Data for Automotive Mechanical Design Process');
#280=PRODUCT_CONTEXT('part definition',#279,'mechanical');
#281=PRODUCT('2026-07-04-17-58-42-160','motor',$,(#280));
#282=PRESENTATION_STYLE_ASSIGNMENT((#283));
#283=SURFACE_STYLE_USAGE(.BOTH.,#284);
#284=SURFACE_SIDE_STYLE('',(#285));
#285=SURFACE_STYLE_FILL_AREA(#286);
#286=FILL_AREA_STYLE('Steel - Satin',(#287));
#287=FILL_AREA_STYLE_COLOUR('Steel - Satin',#288);
#288=COLOUR_RGB('Steel - Satin',0.627450980392157,0.627450980392157,0.627450980392157);
ENDSEC;
END-ISO-10303-21;
