ISO-10303-21;
HEADER;
/* Generated by software containing ST-Developer
 * from STEP Tools, Inc. (www.steptools.com) 
 */

FILE_DESCRIPTION(
/* description */ (''),
/* implementation_level */ '2;1');

FILE_NAME(
/* name */ 'payload_camera.step',
/* time_stamp */ '2026-07-04T18:01:44+05:30',
/* author */ (''),
/* organization */ (''),
/* preprocessor_version */ 'ST-DEVELOPER v20.1',
/* originating_system */ 'Autodesk Translation Framework v15.8.0.0',
/* authorisation */ '');

FILE_SCHEMA (('AUTOMOTIVE_DESIGN { 1 0 10303 214 3 1 1 }'));
ENDSEC;

DATA;
#10=MECHANICAL_DESIGN_GEOMETRIC_PRESENTATION_REPRESENTATION('',(#13),#801);
#11=SHAPE_REPRESENTATION_RELATIONSHIP('SRR','None',#808,#12);
#12=ADVANCED_BREP_SHAPE_REPRESENTATION('',(#14),#800);
#13=STYLED_ITEM('',(#818),#14);
#14=MANIFOLD_SOLID_BREP('Body1',#465);
#15=FACE_BOUND('',#103,.T.);
#16=FACE_BOUND('',#105,.T.);
#17=FACE_BOUND('',#114,.T.);
#18=FACE_BOUND('',#120,.T.);
#19=FACE_BOUND('',#121,.T.);
#20=FACE_BOUND('',#122,.T.);
#21=FACE_BOUND('',#123,.T.);
#22=FACE_BOUND('',#124,.T.);
#23=FACE_BOUND('',#126,.T.);
#24=FACE_BOUND('',#127,.T.);
#25=FACE_BOUND('',#128,.T.);
#26=FACE_BOUND('',#129,.T.);
#27=FACE_BOUND('',#130,.T.);
#28=CIRCLE('',#484,3.75);
#29=CIRCLE('',#485,3.75);
#30=CIRCLE('',#487,3.75);
#31=CIRCLE('',#488,3.75);
#32=CIRCLE('',#490,3.75);
#33=CIRCLE('',#491,3.75);
#34=CIRCLE('',#493,3.75);
#35=CIRCLE('',#494,3.75);
#36=CIRCLE('',#496,27.);
#37=CIRCLE('',#497,27.);
#38=CIRCLE('',#500,28.);
#39=CIRCLE('',#501,28.);
#40=CIRCLE('',#505,1.75);
#41=CIRCLE('',#506,1.75);
#42=CIRCLE('',#508,1.75);
#43=CIRCLE('',#509,1.75);
#44=CIRCLE('',#511,1.75);
#45=CIRCLE('',#512,1.75);
#46=CIRCLE('',#514,1.75);
#47=CIRCLE('',#515,1.75);
#48=CIRCLE('',#517,25.);
#49=CIRCLE('',#518,25.);
#50=CIRCLE('',#521,30.);
#51=CIRCLE('',#522,30.);
#52=CYLINDRICAL_SURFACE('',#483,3.75);
#53=CYLINDRICAL_SURFACE('',#486,3.75);
#54=CYLINDRICAL_SURFACE('',#489,3.75);
#55=CYLINDRICAL_SURFACE('',#492,3.75);
#56=CYLINDRICAL_SURFACE('',#495,27.);
#57=CYLINDRICAL_SURFACE('',#499,28.);
#58=CYLINDRICAL_SURFACE('',#504,1.75);
#59=CYLINDRICAL_SURFACE('',#507,1.75);
#60=CYLINDRICAL_SURFACE('',#510,1.75);
#61=CYLINDRICAL_SURFACE('',#513,1.75);
#62=CYLINDRICAL_SURFACE('',#516,25.);
#63=CYLINDRICAL_SURFACE('',#520,30.);
#64=FACE_OUTER_BOUND('',#91,.T.);
#65=FACE_OUTER_BOUND('',#92,.T.);
#66=FACE_OUTER_BOUND('',#93,.T.);
#67=FACE_OUTER_BOUND('',#94,.T.);
#68=FACE_OUTER_BOUND('',#95,.T.);
#69=FACE_OUTER_BOUND('',#96,.T.);
#70=FACE_OUTER_BOUND('',#97,.T.);
#71=FACE_OUTER_BOUND('',#98,.T.);
#72=FACE_OUTER_BOUND('',#99,.T.);
#73=FACE_OUTER_BOUND('',#100,.T.);
#74=FACE_OUTER_BOUND('',#101,.T.);
#75=FACE_OUTER_BOUND('',#102,.T.);
#76=FACE_OUTER_BOUND('',#104,.T.);
#77=FACE_OUTER_BOUND('',#106,.T.);
#78=FACE_OUTER_BOUND('',#107,.T.);
#79=FACE_OUTER_BOUND('',#108,.T.);
#80=FACE_OUTER_BOUND('',#109,.T.);
#81=FACE_OUTER_BOUND('',#110,.T.);
#82=FACE_OUTER_BOUND('',#111,.T.);
#83=FACE_OUTER_BOUND('',#112,.T.);
#84=FACE_OUTER_BOUND('',#113,.T.);
#85=FACE_OUTER_BOUND('',#115,.T.);
#86=FACE_OUTER_BOUND('',#116,.T.);
#87=FACE_OUTER_BOUND('',#117,.T.);
#88=FACE_OUTER_BOUND('',#118,.T.);
#89=FACE_OUTER_BOUND('',#119,.T.);
#90=FACE_OUTER_BOUND('',#125,.T.);
#91=EDGE_LOOP('',(#303,#304,#305,#306));
#92=EDGE_LOOP('',(#307,#308,#309,#310));
#93=EDGE_LOOP('',(#311,#312,#313,#314));
#94=EDGE_LOOP('',(#315,#316,#317,#318));
#95=EDGE_LOOP('',(#319,#320,#321,#322));
#96=EDGE_LOOP('',(#323,#324,#325,#326));
#97=EDGE_LOOP('',(#327,#328,#329,#330));
#98=EDGE_LOOP('',(#331,#332,#333,#334));
#99=EDGE_LOOP('',(#335,#336,#337,#338));
#100=EDGE_LOOP('',(#339));
#101=EDGE_LOOP('',(#340,#341,#342,#343));
#102=EDGE_LOOP('',(#344));
#103=EDGE_LOOP('',(#345));
#104=EDGE_LOOP('',(#346,#347,#348,#349,#350,#351,#352,#353));
#105=EDGE_LOOP('',(#354));
#106=EDGE_LOOP('',(#355,#356,#357,#358));
#107=EDGE_LOOP('',(#359,#360,#361,#362));
#108=EDGE_LOOP('',(#363,#364,#365,#366));
#109=EDGE_LOOP('',(#367,#368,#369,#370));
#110=EDGE_LOOP('',(#371,#372,#373,#374));
#111=EDGE_LOOP('',(#375));
#112=EDGE_LOOP('',(#376,#377,#378,#379));
#113=EDGE_LOOP('',(#380));
#114=EDGE_LOOP('',(#381));
#115=EDGE_LOOP('',(#382,#383,#384,#385));
#116=EDGE_LOOP('',(#386,#387,#388,#389));
#117=EDGE_LOOP('',(#390,#391,#392,#393));
#118=EDGE_LOOP('',(#394,#395,#396,#397));
#119=EDGE_LOOP('',(#398,#399,#400,#401));
#120=EDGE_LOOP('',(#402));
#121=EDGE_LOOP('',(#403));
#122=EDGE_LOOP('',(#404));
#123=EDGE_LOOP('',(#405));
#124=EDGE_LOOP('',(#406));
#125=EDGE_LOOP('',(#407,#408,#409,#410));
#126=EDGE_LOOP('',(#411,#412,#413,#414,#415,#416,#417,#418));
#127=EDGE_LOOP('',(#419));
#128=EDGE_LOOP('',(#420));
#129=EDGE_LOOP('',(#421));
#130=EDGE_LOOP('',(#422));
#131=LINE('',#674,#167);
#132=LINE('',#676,#168);
#133=LINE('',#678,#169);
#134=LINE('',#679,#170);
#135=LINE('',#683,#171);
#136=LINE('',#685,#172);
#137=LINE('',#687,#173);
#138=LINE('',#688,#174);
#139=LINE('',#692,#175);
#140=LINE('',#694,#176);
#141=LINE('',#696,#177);
#142=LINE('',#697,#178);
#143=LINE('',#701,#179);
#144=LINE('',#703,#180);
#145=LINE('',#705,#181);
#146=LINE('',#706,#182);
#147=LINE('',#723,#183);
#148=LINE('',#730,#184);
#149=LINE('',#738,#185);
#150=LINE('',#744,#186);
#151=LINE('',#750,#187);
#152=LINE('',#756,#188);
#153=LINE('',#762,#189);
#154=LINE('',#769,#190);
#155=LINE('',#775,#191);
#156=LINE('',#777,#192);
#157=LINE('',#779,#193);
#158=LINE('',#780,#194);
#159=LINE('',#783,#195);
#160=LINE('',#785,#196);
#161=LINE('',#786,#197);
#162=LINE('',#789,#198);
#163=LINE('',#791,#199);
#164=LINE('',#792,#200);
#165=LINE('',#794,#201);
#166=LINE('',#795,#202);
#167=VECTOR('',#534,10.);
#168=VECTOR('',#535,10.);
#169=VECTOR('',#536,10.);
#170=VECTOR('',#537,10.);
#171=VECTOR('',#540,10.);
#172=VECTOR('',#541,10.);
#173=VECTOR('',#542,10.);
#174=VECTOR('',#543,10.);
#175=VECTOR('',#546,10.);
#176=VECTOR('',#547,10.);
#177=VECTOR('',#548,10.);
#178=VECTOR('',#549,10.);
#179=VECTOR('',#552,10.);
#180=VECTOR('',#553,10.);
#181=VECTOR('',#554,10.);
#182=VECTOR('',#555,10.);
#183=VECTOR('',#584,25.);
#184=VECTOR('',#593,30.);
#185=VECTOR('',#604,1.75);
#186=VECTOR('',#611,1.75);
#187=VECTOR('',#618,1.75);
#188=VECTOR('',#625,1.75);
#189=VECTOR('',#632,25.);
#190=VECTOR('',#641,30.);
#191=VECTOR('',#648,10.);
#192=VECTOR('',#649,10.);
#193=VECTOR('',#650,10.);
#194=VECTOR('',#651,10.);
#195=VECTOR('',#654,10.);
#196=VECTOR('',#655,10.);
#197=VECTOR('',#656,10.);
#198=VECTOR('',#659,10.);
#199=VECTOR('',#660,10.);
#200=VECTOR('',#661,10.);
#201=VECTOR('',#664,10.);
#202=VECTOR('',#665,10.);
#203=VERTEX_POINT('',#672);
#204=VERTEX_POINT('',#673);
#205=VERTEX_POINT('',#675);
#206=VERTEX_POINT('',#677);
#207=VERTEX_POINT('',#681);
#208=VERTEX_POINT('',#682);
#209=VERTEX_POINT('',#684);
#210=VERTEX_POINT('',#686);
#211=VERTEX_POINT('',#690);
#212=VERTEX_POINT('',#691);
#213=VERTEX_POINT('',#693);
#214=VERTEX_POINT('',#695);
#215=VERTEX_POINT('',#699);
#216=VERTEX_POINT('',#700);
#217=VERTEX_POINT('',#702);
#218=VERTEX_POINT('',#704);
#219=VERTEX_POINT('',#720);
#220=VERTEX_POINT('',#722);
#221=VERTEX_POINT('',#727);
#222=VERTEX_POINT('',#729);
#223=VERTEX_POINT('',#735);
#224=VERTEX_POINT('',#737);
#225=VERTEX_POINT('',#741);
#226=VERTEX_POINT('',#743);
#227=VERTEX_POINT('',#747);
#228=VERTEX_POINT('',#749);
#229=VERTEX_POINT('',#753);
#230=VERTEX_POINT('',#755);
#231=VERTEX_POINT('',#759);
#232=VERTEX_POINT('',#761);
#233=VERTEX_POINT('',#766);
#234=VERTEX_POINT('',#768);
#235=VERTEX_POINT('',#773);
#236=VERTEX_POINT('',#774);
#237=VERTEX_POINT('',#776);
#238=VERTEX_POINT('',#778);
#239=VERTEX_POINT('',#782);
#240=VERTEX_POINT('',#784);
#241=VERTEX_POINT('',#788);
#242=VERTEX_POINT('',#790);
#243=EDGE_CURVE('',#203,#204,#131,.T.);
#244=EDGE_CURVE('',#205,#204,#132,.T.);
#245=EDGE_CURVE('',#205,#206,#133,.T.);
#246=EDGE_CURVE('',#206,#203,#134,.F.);
#247=EDGE_CURVE('',#207,#208,#135,.T.);
#248=EDGE_CURVE('',#208,#209,#136,.F.);
#249=EDGE_CURVE('',#209,#210,#137,.T.);
#250=EDGE_CURVE('',#207,#210,#138,.T.);
#251=EDGE_CURVE('',#211,#212,#139,.T.);
#252=EDGE_CURVE('',#213,#212,#140,.T.);
#253=EDGE_CURVE('',#213,#214,#141,.T.);
#254=EDGE_CURVE('',#214,#211,#142,.F.);
#255=EDGE_CURVE('',#215,#216,#143,.T.);
#256=EDGE_CURVE('',#217,#216,#144,.T.);
#257=EDGE_CURVE('',#217,#218,#145,.T.);
#258=EDGE_CURVE('',#218,#215,#146,.F.);
#259=EDGE_CURVE('',#210,#217,#28,.T.);
#260=EDGE_CURVE('',#209,#218,#29,.T.);
#261=EDGE_CURVE('',#215,#214,#30,.T.);
#262=EDGE_CURVE('',#216,#213,#31,.T.);
#263=EDGE_CURVE('',#211,#206,#32,.T.);
#264=EDGE_CURVE('',#212,#205,#33,.T.);
#265=EDGE_CURVE('',#203,#208,#34,.T.);
#266=EDGE_CURVE('',#204,#207,#35,.T.);
#267=EDGE_CURVE('',#219,#219,#36,.T.);
#268=EDGE_CURVE('',#219,#220,#147,.T.);
#269=EDGE_CURVE('',#220,#220,#37,.T.);
#270=EDGE_CURVE('',#221,#221,#38,.T.);
#271=EDGE_CURVE('',#221,#222,#148,.T.);
#272=EDGE_CURVE('',#222,#222,#39,.F.);
#273=EDGE_CURVE('',#223,#223,#40,.T.);
#274=EDGE_CURVE('',#223,#224,#149,.T.);
#275=EDGE_CURVE('',#224,#224,#41,.T.);
#276=EDGE_CURVE('',#225,#225,#42,.T.);
#277=EDGE_CURVE('',#225,#226,#150,.T.);
#278=EDGE_CURVE('',#226,#226,#43,.T.);
#279=EDGE_CURVE('',#227,#227,#44,.T.);
#280=EDGE_CURVE('',#227,#228,#151,.T.);
#281=EDGE_CURVE('',#228,#228,#45,.T.);
#282=EDGE_CURVE('',#229,#229,#46,.T.);
#283=EDGE_CURVE('',#229,#230,#152,.T.);
#284=EDGE_CURVE('',#230,#230,#47,.T.);
#285=EDGE_CURVE('',#231,#231,#48,.T.);
#286=EDGE_CURVE('',#231,#232,#153,.T.);
#287=EDGE_CURVE('',#232,#232,#49,.T.);
#288=EDGE_CURVE('',#233,#233,#50,.T.);
#289=EDGE_CURVE('',#233,#234,#154,.T.);
#290=EDGE_CURVE('',#234,#234,#51,.T.);
#291=EDGE_CURVE('',#235,#236,#155,.T.);
#292=EDGE_CURVE('',#235,#237,#156,.T.);
#293=EDGE_CURVE('',#238,#237,#157,.T.);
#294=EDGE_CURVE('',#236,#238,#158,.T.);
#295=EDGE_CURVE('',#236,#239,#159,.T.);
#296=EDGE_CURVE('',#240,#238,#160,.T.);
#297=EDGE_CURVE('',#239,#240,#161,.T.);
#298=EDGE_CURVE('',#239,#241,#162,.T.);
#299=EDGE_CURVE('',#242,#240,#163,.T.);
#300=EDGE_CURVE('',#241,#242,#164,.T.);
#301=EDGE_CURVE('',#241,#235,#165,.T.);
#302=EDGE_CURVE('',#237,#242,#166,.T.);
#303=ORIENTED_EDGE('',*,*,#243,.T.);
#304=ORIENTED_EDGE('',*,*,#244,.F.);
#305=ORIENTED_EDGE('',*,*,#245,.T.);
#306=ORIENTED_EDGE('',*,*,#246,.T.);
#307=ORIENTED_EDGE('',*,*,#247,.T.);
#308=ORIENTED_EDGE('',*,*,#248,.T.);
#309=ORIENTED_EDGE('',*,*,#249,.T.);
#310=ORIENTED_EDGE('',*,*,#250,.F.);
#311=ORIENTED_EDGE('',*,*,#251,.T.);
#312=ORIENTED_EDGE('',*,*,#252,.F.);
#313=ORIENTED_EDGE('',*,*,#253,.T.);
#314=ORIENTED_EDGE('',*,*,#254,.T.);
#315=ORIENTED_EDGE('',*,*,#255,.T.);
#316=ORIENTED_EDGE('',*,*,#256,.F.);
#317=ORIENTED_EDGE('',*,*,#257,.T.);
#318=ORIENTED_EDGE('',*,*,#258,.T.);
#319=ORIENTED_EDGE('',*,*,#257,.F.);
#320=ORIENTED_EDGE('',*,*,#259,.F.);
#321=ORIENTED_EDGE('',*,*,#249,.F.);
#322=ORIENTED_EDGE('',*,*,#260,.T.);
#323=ORIENTED_EDGE('',*,*,#255,.F.);
#324=ORIENTED_EDGE('',*,*,#261,.T.);
#325=ORIENTED_EDGE('',*,*,#253,.F.);
#326=ORIENTED_EDGE('',*,*,#262,.F.);
#327=ORIENTED_EDGE('',*,*,#251,.F.);
#328=ORIENTED_EDGE('',*,*,#263,.T.);
#329=ORIENTED_EDGE('',*,*,#245,.F.);
#330=ORIENTED_EDGE('',*,*,#264,.F.);
#331=ORIENTED_EDGE('',*,*,#243,.F.);
#332=ORIENTED_EDGE('',*,*,#265,.T.);
#333=ORIENTED_EDGE('',*,*,#247,.F.);
#334=ORIENTED_EDGE('',*,*,#266,.F.);
#335=ORIENTED_EDGE('',*,*,#267,.F.);
#336=ORIENTED_EDGE('',*,*,#268,.T.);
#337=ORIENTED_EDGE('',*,*,#269,.T.);
#338=ORIENTED_EDGE('',*,*,#268,.F.);
#339=ORIENTED_EDGE('',*,*,#267,.T.);
#340=ORIENTED_EDGE('',*,*,#270,.T.);
#341=ORIENTED_EDGE('',*,*,#271,.T.);
#342=ORIENTED_EDGE('',*,*,#272,.T.);
#343=ORIENTED_EDGE('',*,*,#271,.F.);
#344=ORIENTED_EDGE('',*,*,#272,.F.);
#345=ORIENTED_EDGE('',*,*,#269,.F.);
#346=ORIENTED_EDGE('',*,*,#260,.F.);
#347=ORIENTED_EDGE('',*,*,#248,.F.);
#348=ORIENTED_EDGE('',*,*,#265,.F.);
#349=ORIENTED_EDGE('',*,*,#246,.F.);
#350=ORIENTED_EDGE('',*,*,#263,.F.);
#351=ORIENTED_EDGE('',*,*,#254,.F.);
#352=ORIENTED_EDGE('',*,*,#261,.F.);
#353=ORIENTED_EDGE('',*,*,#258,.F.);
#354=ORIENTED_EDGE('',*,*,#270,.F.);
#355=ORIENTED_EDGE('',*,*,#273,.F.);
#356=ORIENTED_EDGE('',*,*,#274,.T.);
#357=ORIENTED_EDGE('',*,*,#275,.F.);
#358=ORIENTED_EDGE('',*,*,#274,.F.);
#359=ORIENTED_EDGE('',*,*,#276,.F.);
#360=ORIENTED_EDGE('',*,*,#277,.T.);
#361=ORIENTED_EDGE('',*,*,#278,.F.);
#362=ORIENTED_EDGE('',*,*,#277,.F.);
#363=ORIENTED_EDGE('',*,*,#279,.F.);
#364=ORIENTED_EDGE('',*,*,#280,.T.);
#365=ORIENTED_EDGE('',*,*,#281,.F.);
#366=ORIENTED_EDGE('',*,*,#280,.F.);
#367=ORIENTED_EDGE('',*,*,#282,.F.);
#368=ORIENTED_EDGE('',*,*,#283,.T.);
#369=ORIENTED_EDGE('',*,*,#284,.F.);
#370=ORIENTED_EDGE('',*,*,#283,.F.);
#371=ORIENTED_EDGE('',*,*,#285,.F.);
#372=ORIENTED_EDGE('',*,*,#286,.T.);
#373=ORIENTED_EDGE('',*,*,#287,.T.);
#374=ORIENTED_EDGE('',*,*,#286,.F.);
#375=ORIENTED_EDGE('',*,*,#287,.F.);
#376=ORIENTED_EDGE('',*,*,#288,.F.);
#377=ORIENTED_EDGE('',*,*,#289,.T.);
#378=ORIENTED_EDGE('',*,*,#290,.F.);
#379=ORIENTED_EDGE('',*,*,#289,.F.);
#380=ORIENTED_EDGE('',*,*,#288,.T.);
#381=ORIENTED_EDGE('',*,*,#285,.T.);
#382=ORIENTED_EDGE('',*,*,#291,.F.);
#383=ORIENTED_EDGE('',*,*,#292,.T.);
#384=ORIENTED_EDGE('',*,*,#293,.F.);
#385=ORIENTED_EDGE('',*,*,#294,.F.);
#386=ORIENTED_EDGE('',*,*,#295,.F.);
#387=ORIENTED_EDGE('',*,*,#294,.T.);
#388=ORIENTED_EDGE('',*,*,#296,.F.);
#389=ORIENTED_EDGE('',*,*,#297,.F.);
#390=ORIENTED_EDGE('',*,*,#298,.F.);
#391=ORIENTED_EDGE('',*,*,#297,.T.);
#392=ORIENTED_EDGE('',*,*,#299,.F.);
#393=ORIENTED_EDGE('',*,*,#300,.F.);
#394=ORIENTED_EDGE('',*,*,#301,.F.);
#395=ORIENTED_EDGE('',*,*,#300,.T.);
#396=ORIENTED_EDGE('',*,*,#302,.F.);
#397=ORIENTED_EDGE('',*,*,#292,.F.);
#398=ORIENTED_EDGE('',*,*,#302,.T.);
#399=ORIENTED_EDGE('',*,*,#299,.T.);
#400=ORIENTED_EDGE('',*,*,#296,.T.);
#401=ORIENTED_EDGE('',*,*,#293,.T.);
#402=ORIENTED_EDGE('',*,*,#290,.T.);
#403=ORIENTED_EDGE('',*,*,#282,.T.);
#404=ORIENTED_EDGE('',*,*,#279,.T.);
#405=ORIENTED_EDGE('',*,*,#276,.T.);
#406=ORIENTED_EDGE('',*,*,#273,.T.);
#407=ORIENTED_EDGE('',*,*,#301,.T.);
#408=ORIENTED_EDGE('',*,*,#291,.T.);
#409=ORIENTED_EDGE('',*,*,#295,.T.);
#410=ORIENTED_EDGE('',*,*,#298,.T.);
#411=ORIENTED_EDGE('',*,*,#256,.T.);
#412=ORIENTED_EDGE('',*,*,#262,.T.);
#413=ORIENTED_EDGE('',*,*,#252,.T.);
#414=ORIENTED_EDGE('',*,*,#264,.T.);
#415=ORIENTED_EDGE('',*,*,#244,.T.);
#416=ORIENTED_EDGE('',*,*,#266,.T.);
#417=ORIENTED_EDGE('',*,*,#250,.T.);
#418=ORIENTED_EDGE('',*,*,#259,.T.);
#419=ORIENTED_EDGE('',*,*,#275,.T.);
#420=ORIENTED_EDGE('',*,*,#278,.T.);
#421=ORIENTED_EDGE('',*,*,#281,.T.);
#422=ORIENTED_EDGE('',*,*,#284,.T.);
#423=PLANE('',#479);
#424=PLANE('',#480);
#425=PLANE('',#481);
#426=PLANE('',#482);
#427=PLANE('',#498);
#428=PLANE('',#502);
#429=PLANE('',#503);
#430=PLANE('',#519);
#431=PLANE('',#523);
#432=PLANE('',#524);
#433=PLANE('',#525);
#434=PLANE('',#526);
#435=PLANE('',#527);
#436=PLANE('',#528);
#437=PLANE('',#529);
#438=ADVANCED_FACE('',(#64),#423,.F.);
#439=ADVANCED_FACE('',(#65),#424,.F.);
#440=ADVANCED_FACE('',(#66),#425,.F.);
#441=ADVANCED_FACE('',(#67),#426,.F.);
#442=ADVANCED_FACE('',(#68),#52,.T.);
#443=ADVANCED_FACE('',(#69),#53,.T.);
#444=ADVANCED_FACE('',(#70),#54,.T.);
#445=ADVANCED_FACE('',(#71),#55,.T.);
#446=ADVANCED_FACE('',(#72),#56,.T.);
#447=ADVANCED_FACE('',(#73),#427,.F.);
#448=ADVANCED_FACE('',(#74),#57,.F.);
#449=ADVANCED_FACE('',(#75,#15),#428,.F.);
#450=ADVANCED_FACE('',(#76,#16),#429,.F.);
#451=ADVANCED_FACE('',(#77),#58,.F.);
#452=ADVANCED_FACE('',(#78),#59,.F.);
#453=ADVANCED_FACE('',(#79),#60,.F.);
#454=ADVANCED_FACE('',(#80),#61,.F.);
#455=ADVANCED_FACE('',(#81),#62,.F.);
#456=ADVANCED_FACE('',(#82),#430,.T.);
#457=ADVANCED_FACE('',(#83),#63,.T.);
#458=ADVANCED_FACE('',(#84,#17),#431,.T.);
#459=ADVANCED_FACE('',(#85),#432,.T.);
#460=ADVANCED_FACE('',(#86),#433,.T.);
#461=ADVANCED_FACE('',(#87),#434,.T.);
#462=ADVANCED_FACE('',(#88),#435,.T.);
#463=ADVANCED_FACE('',(#89,#18,#19,#20,#21,#22),#436,.T.);
#464=ADVANCED_FACE('',(#90,#23,#24,#25,#26,#27),#437,.F.);
#465=CLOSED_SHELL('',(#438,#439,#440,#441,#442,#443,#444,#445,#446,#447,
#448,#449,#450,#451,#452,#453,#454,#455,#456,#457,#458,#459,#460,#461,#462,
#463,#464));
#466=DERIVED_UNIT_ELEMENT(#468,1.);
#467=DERIVED_UNIT_ELEMENT(#803,-3.);
#468=(
MASS_UNIT()
NAMED_UNIT(*)
SI_UNIT(.KILO.,.GRAM.)
);
#469=DERIVED_UNIT((#466,#467));
#470=MEASURE_REPRESENTATION_ITEM('density measure',
POSITIVE_RATIO_MEASURE(7850.),#469);
#471=PROPERTY_DEFINITION_REPRESENTATION(#476,#473);
#472=PROPERTY_DEFINITION_REPRESENTATION(#477,#474);
#473=REPRESENTATION('material name',(#475),#800);
#474=REPRESENTATION('density',(#470),#800);
#475=DESCRIPTIVE_REPRESENTATION_ITEM('Steel','Steel');
#476=PROPERTY_DEFINITION('material property','material name',#810);
#477=PROPERTY_DEFINITION('material property','density of part',#810);
#478=AXIS2_PLACEMENT_3D('',#670,#530,#531);
#479=AXIS2_PLACEMENT_3D('',#671,#532,#533);
#480=AXIS2_PLACEMENT_3D('',#680,#538,#539);
#481=AXIS2_PLACEMENT_3D('',#689,#544,#545);
#482=AXIS2_PLACEMENT_3D('',#698,#550,#551);
#483=AXIS2_PLACEMENT_3D('',#707,#556,#557);
#484=AXIS2_PLACEMENT_3D('',#708,#558,#559);
#485=AXIS2_PLACEMENT_3D('',#709,#560,#561);
#486=AXIS2_PLACEMENT_3D('',#710,#562,#563);
#487=AXIS2_PLACEMENT_3D('',#711,#564,#565);
#488=AXIS2_PLACEMENT_3D('',#712,#566,#567);
#489=AXIS2_PLACEMENT_3D('',#713,#568,#569);
#490=AXIS2_PLACEMENT_3D('',#714,#570,#571);
#491=AXIS2_PLACEMENT_3D('',#715,#572,#573);
#492=AXIS2_PLACEMENT_3D('',#716,#574,#575);
#493=AXIS2_PLACEMENT_3D('',#717,#576,#577);
#494=AXIS2_PLACEMENT_3D('',#718,#578,#579);
#495=AXIS2_PLACEMENT_3D('',#719,#580,#581);
#496=AXIS2_PLACEMENT_3D('',#721,#582,#583);
#497=AXIS2_PLACEMENT_3D('',#724,#585,#586);
#498=AXIS2_PLACEMENT_3D('',#725,#587,#588);
#499=AXIS2_PLACEMENT_3D('',#726,#589,#590);
#500=AXIS2_PLACEMENT_3D('',#728,#591,#592);
#501=AXIS2_PLACEMENT_3D('',#731,#594,#595);
#502=AXIS2_PLACEMENT_3D('',#732,#596,#597);
#503=AXIS2_PLACEMENT_3D('',#733,#598,#599);
#504=AXIS2_PLACEMENT_3D('',#734,#600,#601);
#505=AXIS2_PLACEMENT_3D('',#736,#602,#603);
#506=AXIS2_PLACEMENT_3D('',#739,#605,#606);
#507=AXIS2_PLACEMENT_3D('',#740,#607,#608);
#508=AXIS2_PLACEMENT_3D('',#742,#609,#610);
#509=AXIS2_PLACEMENT_3D('',#745,#612,#613);
#510=AXIS2_PLACEMENT_3D('',#746,#614,#615);
#511=AXIS2_PLACEMENT_3D('',#748,#616,#617);
#512=AXIS2_PLACEMENT_3D('',#751,#619,#620);
#513=AXIS2_PLACEMENT_3D('',#752,#621,#622);
#514=AXIS2_PLACEMENT_3D('',#754,#623,#624);
#515=AXIS2_PLACEMENT_3D('',#757,#626,#627);
#516=AXIS2_PLACEMENT_3D('',#758,#628,#629);
#517=AXIS2_PLACEMENT_3D('',#760,#630,#631);
#518=AXIS2_PLACEMENT_3D('',#763,#633,#634);
#519=AXIS2_PLACEMENT_3D('',#764,#635,#636);
#520=AXIS2_PLACEMENT_3D('',#765,#637,#638);
#521=AXIS2_PLACEMENT_3D('',#767,#639,#640);
#522=AXIS2_PLACEMENT_3D('',#770,#642,#643);
#523=AXIS2_PLACEMENT_3D('',#771,#644,#645);
#524=AXIS2_PLACEMENT_3D('',#772,#646,#647);
#525=AXIS2_PLACEMENT_3D('',#781,#652,#653);
#526=AXIS2_PLACEMENT_3D('',#787,#657,#658);
#527=AXIS2_PLACEMENT_3D('',#793,#662,#663);
#528=AXIS2_PLACEMENT_3D('',#796,#666,#667);
#529=AXIS2_PLACEMENT_3D('',#797,#668,#669);
#530=DIRECTION('axis',(0.,0.,1.));
#531=DIRECTION('refdir',(1.,0.,0.));
#532=DIRECTION('center_axis',(0.,-1.,0.));
#533=DIRECTION('ref_axis',(1.,0.,0.));
#534=DIRECTION('',(0.,0.,-1.));
#535=DIRECTION('',(1.,0.,0.));
#536=DIRECTION('',(0.,0.,1.));
#537=DIRECTION('',(-1.,0.,0.));
#538=DIRECTION('center_axis',(1.,0.,0.));
#539=DIRECTION('ref_axis',(0.,1.,0.));
#540=DIRECTION('',(0.,0.,1.));
#541=DIRECTION('',(0.,-1.,0.));
#542=DIRECTION('',(0.,0.,-1.));
#543=DIRECTION('',(0.,1.,0.));
#544=DIRECTION('center_axis',(-1.,0.,0.));
#545=DIRECTION('ref_axis',(0.,-1.,0.));
#546=DIRECTION('',(0.,0.,-1.));
#547=DIRECTION('',(0.,-1.,0.));
#548=DIRECTION('',(0.,0.,1.));
#549=DIRECTION('',(0.,1.,0.));
#550=DIRECTION('center_axis',(0.,1.,0.));
#551=DIRECTION('ref_axis',(-1.,0.,0.));
#552=DIRECTION('',(0.,0.,-1.));
#553=DIRECTION('',(-1.,0.,0.));
#554=DIRECTION('',(0.,0.,1.));
#555=DIRECTION('',(1.,0.,0.));
#556=DIRECTION('center_axis',(0.,0.,-1.));
#557=DIRECTION('ref_axis',(-0.707106781186548,-0.707106781186547,0.));
#558=DIRECTION('center_axis',(0.,0.,-1.));
#559=DIRECTION('ref_axis',(1.,0.,0.));
#560=DIRECTION('center_axis',(0.,0.,-1.));
#561=DIRECTION('ref_axis',(1.,0.,0.));
#562=DIRECTION('center_axis',(0.,0.,-1.));
#563=DIRECTION('ref_axis',(1.,0.,0.));
#564=DIRECTION('center_axis',(0.,0.,-1.));
#565=DIRECTION('ref_axis',(1.,0.,0.));
#566=DIRECTION('center_axis',(0.,0.,-1.));
#567=DIRECTION('ref_axis',(1.,0.,0.));
#568=DIRECTION('center_axis',(0.,0.,-1.));
#569=DIRECTION('ref_axis',(1.,0.,0.));
#570=DIRECTION('center_axis',(0.,0.,-1.));
#571=DIRECTION('ref_axis',(1.,0.,0.));
#572=DIRECTION('center_axis',(0.,0.,-1.));
#573=DIRECTION('ref_axis',(1.,0.,0.));
#574=DIRECTION('center_axis',(0.,0.,-1.));
#575=DIRECTION('ref_axis',(-0.707106781186548,0.707106781186547,0.));
#576=DIRECTION('center_axis',(0.,0.,-1.));
#577=DIRECTION('ref_axis',(1.,0.,0.));
#578=DIRECTION('center_axis',(0.,0.,-1.));
#579=DIRECTION('ref_axis',(1.,0.,0.));
#580=DIRECTION('center_axis',(0.,0.,-1.));
#581=DIRECTION('ref_axis',(-1.,0.,0.));
#582=DIRECTION('center_axis',(0.,0.,-1.));
#583=DIRECTION('ref_axis',(-1.,0.,0.));
#584=DIRECTION('',(0.,0.,1.));
#585=DIRECTION('center_axis',(0.,0.,-1.));
#586=DIRECTION('ref_axis',(-1.,0.,0.));
#587=DIRECTION('center_axis',(0.,0.,1.));
#588=DIRECTION('ref_axis',(-1.,0.,0.));
#589=DIRECTION('center_axis',(0.,0.,1.));
#590=DIRECTION('ref_axis',(-1.,0.,0.));
#591=DIRECTION('center_axis',(0.,0.,-1.));
#592=DIRECTION('ref_axis',(-1.,0.,0.));
#593=DIRECTION('',(0.,0.,1.));
#594=DIRECTION('center_axis',(0.,0.,-1.));
#595=DIRECTION('ref_axis',(-1.,0.,0.));
#596=DIRECTION('center_axis',(0.,0.,1.));
#597=DIRECTION('ref_axis',(-1.,0.,0.));
#598=DIRECTION('center_axis',(0.,0.,1.));
#599=DIRECTION('ref_axis',(1.,0.,0.));
#600=DIRECTION('center_axis',(0.,0.,-1.));
#601=DIRECTION('ref_axis',(1.,0.,0.));
#602=DIRECTION('center_axis',(0.,0.,-1.));
#603=DIRECTION('ref_axis',(1.,0.,0.));
#604=DIRECTION('',(0.,0.,-1.));
#605=DIRECTION('center_axis',(0.,0.,1.));
#606=DIRECTION('ref_axis',(1.,0.,0.));
#607=DIRECTION('center_axis',(0.,0.,-1.));
#608=DIRECTION('ref_axis',(1.,0.,0.));
#609=DIRECTION('center_axis',(0.,0.,-1.));
#610=DIRECTION('ref_axis',(1.,0.,0.));
#611=DIRECTION('',(0.,0.,-1.));
#612=DIRECTION('center_axis',(0.,0.,1.));
#613=DIRECTION('ref_axis',(1.,0.,0.));
#614=DIRECTION('center_axis',(0.,0.,-1.));
#615=DIRECTION('ref_axis',(1.,0.,0.));
#616=DIRECTION('center_axis',(0.,0.,-1.));
#617=DIRECTION('ref_axis',(1.,0.,0.));
#618=DIRECTION('',(0.,0.,-1.));
#619=DIRECTION('center_axis',(0.,0.,1.));
#620=DIRECTION('ref_axis',(1.,0.,0.));
#621=DIRECTION('center_axis',(0.,0.,-1.));
#622=DIRECTION('ref_axis',(1.,0.,0.));
#623=DIRECTION('center_axis',(0.,0.,-1.));
#624=DIRECTION('ref_axis',(1.,0.,0.));
#625=DIRECTION('',(0.,0.,-1.));
#626=DIRECTION('center_axis',(0.,0.,1.));
#627=DIRECTION('ref_axis',(1.,0.,0.));
#628=DIRECTION('center_axis',(0.,0.,-1.));
#629=DIRECTION('ref_axis',(-1.,0.,0.));
#630=DIRECTION('center_axis',(0.,0.,-1.));
#631=DIRECTION('ref_axis',(-1.,0.,0.));
#632=DIRECTION('',(0.,0.,-1.));
#633=DIRECTION('center_axis',(0.,0.,-1.));
#634=DIRECTION('ref_axis',(-1.,0.,0.));
#635=DIRECTION('center_axis',(0.,0.,1.));
#636=DIRECTION('ref_axis',(-1.,0.,0.));
#637=DIRECTION('center_axis',(0.,0.,1.));
#638=DIRECTION('ref_axis',(-1.,0.,0.));
#639=DIRECTION('center_axis',(0.,0.,1.));
#640=DIRECTION('ref_axis',(-1.,0.,0.));
#641=DIRECTION('',(0.,0.,-1.));
#642=DIRECTION('center_axis',(0.,0.,-1.));
#643=DIRECTION('ref_axis',(-1.,0.,0.));
#644=DIRECTION('center_axis',(0.,0.,1.));
#645=DIRECTION('ref_axis',(-1.,0.,0.));
#646=DIRECTION('center_axis',(1.,0.,0.));
#647=DIRECTION('ref_axis',(0.,1.,0.));
#648=DIRECTION('',(0.,-1.,0.));
#649=DIRECTION('',(0.,0.,1.));
#650=DIRECTION('',(0.,1.,0.));
#651=DIRECTION('',(0.,0.,1.));
#652=DIRECTION('center_axis',(0.,-1.,0.));
#653=DIRECTION('ref_axis',(1.,0.,0.));
#654=DIRECTION('',(-1.,0.,0.));
#655=DIRECTION('',(1.,0.,0.));
#656=DIRECTION('',(0.,0.,1.));
#657=DIRECTION('center_axis',(-1.,0.,0.));
#658=DIRECTION('ref_axis',(0.,-1.,0.));
#659=DIRECTION('',(0.,1.,0.));
#660=DIRECTION('',(0.,-1.,0.));
#661=DIRECTION('',(0.,0.,1.));
#662=DIRECTION('center_axis',(0.,1.,0.));
#663=DIRECTION('ref_axis',(-1.,0.,0.));
#664=DIRECTION('',(1.,0.,0.));
#665=DIRECTION('',(-1.,0.,0.));
#666=DIRECTION('center_axis',(0.,0.,1.));
#667=DIRECTION('ref_axis',(1.,0.,0.));
#668=DIRECTION('center_axis',(0.,0.,1.));
#669=DIRECTION('ref_axis',(1.,0.,0.));
#670=CARTESIAN_POINT('',(0.,0.,0.));
#671=CARTESIAN_POINT('Origin',(-45.,-43.,0.));
#672=CARTESIAN_POINT('',(37.8278556148876,-43.,13.));
#673=CARTESIAN_POINT('',(37.8278556148876,-43.,0.));
#674=CARTESIAN_POINT('',(37.8278556148876,-43.,6.75));
#675=CARTESIAN_POINT('',(-37.8278556148876,-43.,0.));
#676=CARTESIAN_POINT('',(-22.5,-43.,0.));
#677=CARTESIAN_POINT('',(-37.8278556148876,-43.,13.));
#678=CARTESIAN_POINT('',(-37.8278556148876,-43.,6.75));
#679=CARTESIAN_POINT('',(-22.5,-43.,13.));
#680=CARTESIAN_POINT('Origin',(43.,-45.,0.));
#681=CARTESIAN_POINT('',(43.,-37.8278556148876,0.));
#682=CARTESIAN_POINT('',(43.,-37.8278556148876,13.));
#683=CARTESIAN_POINT('',(43.,-37.8278556148876,6.75));
#684=CARTESIAN_POINT('',(43.,37.8278556148876,13.));
#685=CARTESIAN_POINT('',(43.,-22.5,13.));
#686=CARTESIAN_POINT('',(43.,37.8278556148876,0.));
#687=CARTESIAN_POINT('',(43.,37.8278556148876,6.75));
#688=CARTESIAN_POINT('',(43.,-22.5,0.));
#689=CARTESIAN_POINT('Origin',(-43.,45.,0.));
#690=CARTESIAN_POINT('',(-43.,-37.8278556148876,13.));
#691=CARTESIAN_POINT('',(-43.,-37.8278556148876,0.));
#692=CARTESIAN_POINT('',(-43.,-37.8278556148876,6.75));
#693=CARTESIAN_POINT('',(-43.,37.8278556148876,0.));
#694=CARTESIAN_POINT('',(-43.,22.5,0.));
#695=CARTESIAN_POINT('',(-43.,37.8278556148876,13.));
#696=CARTESIAN_POINT('',(-43.,37.8278556148876,6.75));
#697=CARTESIAN_POINT('',(-43.,22.5,13.));
#698=CARTESIAN_POINT('Origin',(45.,43.,0.));
#699=CARTESIAN_POINT('',(-37.8278556148876,43.,13.));
#700=CARTESIAN_POINT('',(-37.8278556148876,43.,0.));
#701=CARTESIAN_POINT('',(-37.8278556148876,43.,6.75));
#702=CARTESIAN_POINT('',(37.8278556148876,43.,0.));
#703=CARTESIAN_POINT('',(22.5,43.,0.));
#704=CARTESIAN_POINT('',(37.8278556148876,43.,13.));
#705=CARTESIAN_POINT('',(37.8278556148876,43.,6.75));
#706=CARTESIAN_POINT('',(22.5,43.,13.));
#707=CARTESIAN_POINT('Origin',(41.,41.,6.75));
#708=CARTESIAN_POINT('Origin',(41.,41.,0.));
#709=CARTESIAN_POINT('Origin',(41.,41.,13.));
#710=CARTESIAN_POINT('Origin',(-41.,41.,6.75));
#711=CARTESIAN_POINT('Origin',(-41.,41.,13.));
#712=CARTESIAN_POINT('Origin',(-41.,41.,0.));
#713=CARTESIAN_POINT('Origin',(-41.,-41.,6.75));
#714=CARTESIAN_POINT('Origin',(-41.,-41.,13.));
#715=CARTESIAN_POINT('Origin',(-41.,-41.,0.));
#716=CARTESIAN_POINT('Origin',(41.,-41.,6.75));
#717=CARTESIAN_POINT('Origin',(41.,-41.,13.));
#718=CARTESIAN_POINT('Origin',(41.,-41.,0.));
#719=CARTESIAN_POINT('Origin',(0.,0.,80.));
#720=CARTESIAN_POINT('',(27.,-3.30654635769785E-15,63.));
#721=CARTESIAN_POINT('Origin',(0.,0.,63.));
#722=CARTESIAN_POINT('',(27.,-3.30654635769785E-15,78.));
#723=CARTESIAN_POINT('',(27.,-3.30654635769785E-15,80.));
#724=CARTESIAN_POINT('Origin',(0.,0.,78.));
#725=CARTESIAN_POINT('Origin',(0.,0.,63.));
#726=CARTESIAN_POINT('Origin',(0.,0.,15.));
#727=CARTESIAN_POINT('',(28.,-3.42901103761259E-15,13.));
#728=CARTESIAN_POINT('Origin',(0.,0.,13.));
#729=CARTESIAN_POINT('',(28.,-3.42901103761259E-15,78.));
#730=CARTESIAN_POINT('',(28.,3.42901103761259E-15,15.));
#731=CARTESIAN_POINT('Origin',(0.,0.,78.));
#732=CARTESIAN_POINT('Origin',(0.,0.,78.));
#733=CARTESIAN_POINT('Origin',(0.,0.,13.));
#734=CARTESIAN_POINT('Origin',(41.,41.,6.75));
#735=CARTESIAN_POINT('',(39.25,41.,15.));
#736=CARTESIAN_POINT('Origin',(41.,41.,15.));
#737=CARTESIAN_POINT('',(39.25,41.,0.));
#738=CARTESIAN_POINT('',(39.25,41.,6.75));
#739=CARTESIAN_POINT('Origin',(41.,41.,0.));
#740=CARTESIAN_POINT('Origin',(-41.,41.,6.75));
#741=CARTESIAN_POINT('',(-42.75,41.,15.));
#742=CARTESIAN_POINT('Origin',(-41.,41.,15.));
#743=CARTESIAN_POINT('',(-42.75,41.,0.));
#744=CARTESIAN_POINT('',(-42.75,41.,6.75));
#745=CARTESIAN_POINT('Origin',(-41.,41.,0.));
#746=CARTESIAN_POINT('Origin',(-41.,-41.,6.75));
#747=CARTESIAN_POINT('',(-42.75,-41.,15.));
#748=CARTESIAN_POINT('Origin',(-41.,-41.,15.));
#749=CARTESIAN_POINT('',(-42.75,-41.,0.));
#750=CARTESIAN_POINT('',(-42.75,-41.,6.75));
#751=CARTESIAN_POINT('Origin',(-41.,-41.,0.));
#752=CARTESIAN_POINT('Origin',(41.,-41.,6.75));
#753=CARTESIAN_POINT('',(39.25,-41.,15.));
#754=CARTESIAN_POINT('Origin',(41.,-41.,15.));
#755=CARTESIAN_POINT('',(39.25,-41.,0.));
#756=CARTESIAN_POINT('',(39.25,-41.,6.75));
#757=CARTESIAN_POINT('Origin',(41.,-41.,0.));
#758=CARTESIAN_POINT('Origin',(0.,0.,80.));
#759=CARTESIAN_POINT('',(25.,3.06161699786838E-15,80.));
#760=CARTESIAN_POINT('Origin',(0.,0.,80.));
#761=CARTESIAN_POINT('',(25.,3.06161699786838E-15,65.));
#762=CARTESIAN_POINT('',(25.,-3.06161699786838E-15,80.));
#763=CARTESIAN_POINT('Origin',(0.,0.,65.));
#764=CARTESIAN_POINT('Origin',(0.,0.,65.));
#765=CARTESIAN_POINT('Origin',(0.,0.,15.));
#766=CARTESIAN_POINT('',(30.,3.67394039744206E-15,80.));
#767=CARTESIAN_POINT('Origin',(0.,0.,80.));
#768=CARTESIAN_POINT('',(30.,3.67394039744206E-15,15.));
#769=CARTESIAN_POINT('',(30.,3.67394039744206E-15,15.));
#770=CARTESIAN_POINT('Origin',(0.,0.,15.));
#771=CARTESIAN_POINT('Origin',(0.,0.,80.));
#772=CARTESIAN_POINT('Origin',(45.,-45.,0.));
#773=CARTESIAN_POINT('',(45.,45.,0.));
#774=CARTESIAN_POINT('',(45.,-45.,0.));
#775=CARTESIAN_POINT('',(45.,45.,0.));
#776=CARTESIAN_POINT('',(45.,45.,15.));
#777=CARTESIAN_POINT('',(45.,45.,0.));
#778=CARTESIAN_POINT('',(45.,-45.,15.));
#779=CARTESIAN_POINT('',(45.,45.,15.));
#780=CARTESIAN_POINT('',(45.,-45.,0.));
#781=CARTESIAN_POINT('Origin',(-45.,-45.,0.));
#782=CARTESIAN_POINT('',(-45.,-45.,0.));
#783=CARTESIAN_POINT('',(45.,-45.,0.));
#784=CARTESIAN_POINT('',(-45.,-45.,15.));
#785=CARTESIAN_POINT('',(45.,-45.,15.));
#786=CARTESIAN_POINT('',(-45.,-45.,0.));
#787=CARTESIAN_POINT('Origin',(-45.,45.,0.));
#788=CARTESIAN_POINT('',(-45.,45.,0.));
#789=CARTESIAN_POINT('',(-45.,-45.,0.));
#790=CARTESIAN_POINT('',(-45.,45.,15.));
#791=CARTESIAN_POINT('',(-45.,-45.,15.));
#792=CARTESIAN_POINT('',(-45.,45.,0.));
#793=CARTESIAN_POINT('Origin',(45.,45.,0.));
#794=CARTESIAN_POINT('',(-45.,45.,0.));
#795=CARTESIAN_POINT('',(-45.,45.,15.));
#796=CARTESIAN_POINT('Origin',(0.,0.,15.));
#797=CARTESIAN_POINT('Origin',(0.,0.,0.));
#798=UNCERTAINTY_MEASURE_WITH_UNIT(LENGTH_MEASURE(0.01),#802,
'DISTANCE_ACCURACY_VALUE',
'Maximum model space distance between geometric entities at asserted c
onnectivities');
#799=UNCERTAINTY_MEASURE_WITH_UNIT(LENGTH_MEASURE(0.01),#802,
'DISTANCE_ACCURACY_VALUE',
'Maximum model space distance between geometric entities at asserted c
onnectivities');
#800=(
GEOMETRIC_REPRESENTATION_CONTEXT(3)
GLOBAL_UNCERTAINTY_ASSIGNED_CONTEXT((#798))
GLOBAL_UNIT_ASSIGNED_CONTEXT((#802,#804,#805))
REPRESENTATION_CONTEXT('','3D')
);
#801=(
GEOMETRIC_REPRESENTATION_CONTEXT(3)
GLOBAL_UNCERTAINTY_ASSIGNED_CONTEXT((#799))
GLOBAL_UNIT_ASSIGNED_CONTEXT((#802,#804,#805))
REPRESENTATION_CONTEXT('','3D')
);
#802=(
LENGTH_UNIT()
NAMED_UNIT(*)
SI_UNIT(.MILLI.,.METRE.)
);
#803=(
LENGTH_UNIT()
NAMED_UNIT(*)
SI_UNIT($,.METRE.)
);
#804=(
NAMED_UNIT(*)
PLANE_ANGLE_UNIT()
SI_UNIT($,.RADIAN.)
);
#805=(
NAMED_UNIT(*)
SI_UNIT($,.STERADIAN.)
SOLID_ANGLE_UNIT()
);
#806=SHAPE_DEFINITION_REPRESENTATION(#807,#808);
#807=PRODUCT_DEFINITION_SHAPE('',$,#810);
#808=SHAPE_REPRESENTATION('',(#478),#800);
#809=PRODUCT_DEFINITION_CONTEXT('part definition',#814,'design');
#810=PRODUCT_DEFINITION('2026-07-04-18-01-44-489','payload camera',#811,
#809);
#811=PRODUCT_DEFINITION_FORMATION('',$,#816);
#812=PRODUCT_RELATED_PRODUCT_CATEGORY('payload camera','payload camera',
(#816));
#813=APPLICATION_PROTOCOL_DEFINITION('international standard',
'automotive_design',2009,#814);
#814=APPLICATION_CONTEXT(
'Core Data for Automotive Mechanical Design Process');
#815=PRODUCT_CONTEXT('part definition',#814,'mechanical');
#816=PRODUCT('2026-07-04-18-01-44-489','payload camera',$,(#815));
#817=PRESENTATION_STYLE_ASSIGNMENT((#819));
#818=PRESENTATION_STYLE_ASSIGNMENT((#820));
#819=SURFACE_STYLE_USAGE(.BOTH.,#821);
#820=SURFACE_STYLE_USAGE(.BOTH.,#822);
#821=SURFACE_SIDE_STYLE('',(#823));
#822=SURFACE_SIDE_STYLE('',(#824));
#823=SURFACE_STYLE_FILL_AREA(#825);
#824=SURFACE_STYLE_FILL_AREA(#826);
#825=FILL_AREA_STYLE('Steel - Satin',(#827));
#826=FILL_AREA_STYLE('Paint - Metallic (Dark Grey)',(#828));
#827=FILL_AREA_STYLE_COLOUR('Steel - Satin',#829);
#828=FILL_AREA_STYLE_COLOUR('Paint - Metallic (Dark Grey)',#830);
#829=COLOUR_RGB('Steel - Satin',0.627450980392157,0.627450980392157,0.627450980392157);
#830=COLOUR_RGB('Paint - Metallic (Dark Grey)',0.349019607843137,0.349019607843137,
0.349019607843137);
ENDSEC;
END-ISO-10303-21;
