ISO-10303-21;
HEADER;
/* Generated by software containing ST-Developer
 * from STEP Tools, Inc. (www.steptools.com) 
 */

FILE_DESCRIPTION(
/* description */ (''),
/* implementation_level */ '2;1');

FILE_NAME(
/* name */ 'reactionwheels_plate.step',
/* time_stamp */ '2026-07-04T18:00:46+05:30',
/* author */ (''),
/* organization */ (''),
/* preprocessor_version */ 'ST-DEVELOPER v20.1',
/* originating_system */ 'Autodesk Translation Framework v15.8.0.0',
/* authorisation */ '');

FILE_SCHEMA (('AUTOMOTIVE_DESIGN { 1 0 10303 214 3 1 1 }'));
ENDSEC;

DATA;
#10=MECHANICAL_DESIGN_GEOMETRIC_PRESENTATION_REPRESENTATION('',(#13),#2237);
#11=SHAPE_REPRESENTATION_RELATIONSHIP('SRR','None',#2244,#12);
#12=ADVANCED_BREP_SHAPE_REPRESENTATION('',(#14),#2236);
#13=STYLED_ITEM('',(#2254),#14);
#14=MANIFOLD_SOLID_BREP('Body1',#1248);
#15=CONICAL_SURFACE('',#1388,0.85,0.785398163397448);
#16=CONICAL_SURFACE('',#1392,0.835355339059327,0.392699081698713);
#17=CONICAL_SURFACE('',#1397,0.85,0.785398163397438);
#18=CONICAL_SURFACE('',#1398,0.85,0.785398163397437);
#19=CONICAL_SURFACE('',#1399,1.25,0.785398163397448);
#20=CONICAL_SURFACE('',#1403,1.25,0.785398163397448);
#21=CONICAL_SURFACE('',#1407,1.25,0.785398163397437);
#22=CONICAL_SURFACE('',#1411,1.25,0.785398163397437);
#23=CONICAL_SURFACE('',#1415,1.25,0.785398163397437);
#24=CONICAL_SURFACE('',#1419,1.25,0.785398163397437);
#25=CONICAL_SURFACE('',#1423,1.25,0.785398163397449);
#26=CONICAL_SURFACE('',#1427,1.25,0.785398163397448);
#27=CONICAL_SURFACE('',#1428,1.25,0.785398163397438);
#28=CONICAL_SURFACE('',#1429,1.25,0.785398163397438);
#29=CONICAL_SURFACE('',#1430,0.85,0.785398163397449);
#30=CONICAL_SURFACE('',#1431,1.25,0.785398163397449);
#31=CONICAL_SURFACE('',#1432,1.25,0.785398163397438);
#32=CONICAL_SURFACE('',#1433,1.25,0.785398163397438);
#33=CONICAL_SURFACE('',#1434,1.25,0.785398163397449);
#34=FACE_BOUND('',#181,.T.);
#35=FACE_BOUND('',#182,.T.);
#36=FACE_BOUND('',#183,.T.);
#37=FACE_BOUND('',#184,.T.);
#38=FACE_BOUND('',#185,.T.);
#39=FACE_BOUND('',#186,.T.);
#40=FACE_BOUND('',#187,.T.);
#41=FACE_BOUND('',#188,.T.);
#42=FACE_BOUND('',#189,.T.);
#43=FACE_BOUND('',#209,.T.);
#44=FACE_BOUND('',#210,.T.);
#45=FACE_BOUND('',#211,.T.);
#46=FACE_BOUND('',#212,.T.);
#47=FACE_BOUND('',#213,.T.);
#48=FACE_BOUND('',#214,.T.);
#49=FACE_BOUND('',#215,.T.);
#50=FACE_BOUND('',#216,.T.);
#51=FACE_BOUND('',#217,.T.);
#52=PLANE('',#1312);
#53=PLANE('',#1315);
#54=PLANE('',#1318);
#55=PLANE('',#1321);
#56=PLANE('',#1322);
#57=PLANE('',#1376);
#58=PLANE('',#1378);
#59=PLANE('',#1436);
#60=PLANE('',#1438);
#61=PLANE('',#1439);
#62=TOROIDAL_SURFACE('',#1265,1.10000000000001,0.1);
#63=TOROIDAL_SURFACE('',#1271,0.4,0.1);
#64=TOROIDAL_SURFACE('',#1277,0.4,0.1);
#65=TOROIDAL_SURFACE('',#1283,0.4,0.1);
#66=TOROIDAL_SURFACE('',#1289,2.09999999999999,0.1);
#67=TOROIDAL_SURFACE('',#1295,0.4,0.1);
#68=TOROIDAL_SURFACE('',#1301,0.4,0.1);
#69=TOROIDAL_SURFACE('',#1307,0.4,0.1);
#70=TOROIDAL_SURFACE('',#1332,0.4,0.1);
#71=TOROIDAL_SURFACE('',#1339,0.4,0.1);
#72=TOROIDAL_SURFACE('',#1345,0.4,0.1);
#73=TOROIDAL_SURFACE('',#1351,1.10000000000001,0.1);
#74=TOROIDAL_SURFACE('',#1357,0.4,0.1);
#75=TOROIDAL_SURFACE('',#1362,0.4,0.1);
#76=TOROIDAL_SURFACE('',#1367,0.4,0.1);
#77=TOROIDAL_SURFACE('',#1372,2.09999999999999,0.1);
#78=FACE_OUTER_BOUND('',#156,.T.);
#79=FACE_OUTER_BOUND('',#157,.T.);
#80=FACE_OUTER_BOUND('',#158,.T.);
#81=FACE_OUTER_BOUND('',#159,.T.);
#82=FACE_OUTER_BOUND('',#160,.T.);
#83=FACE_OUTER_BOUND('',#161,.T.);
#84=FACE_OUTER_BOUND('',#162,.T.);
#85=FACE_OUTER_BOUND('',#163,.T.);
#86=FACE_OUTER_BOUND('',#164,.T.);
#87=FACE_OUTER_BOUND('',#165,.T.);
#88=FACE_OUTER_BOUND('',#166,.T.);
#89=FACE_OUTER_BOUND('',#167,.T.);
#90=FACE_OUTER_BOUND('',#168,.T.);
#91=FACE_OUTER_BOUND('',#169,.T.);
#92=FACE_OUTER_BOUND('',#170,.T.);
#93=FACE_OUTER_BOUND('',#171,.T.);
#94=FACE_OUTER_BOUND('',#172,.T.);
#95=FACE_OUTER_BOUND('',#173,.T.);
#96=FACE_OUTER_BOUND('',#174,.T.);
#97=FACE_OUTER_BOUND('',#175,.T.);
#98=FACE_OUTER_BOUND('',#176,.T.);
#99=FACE_OUTER_BOUND('',#177,.T.);
#100=FACE_OUTER_BOUND('',#178,.T.);
#101=FACE_OUTER_BOUND('',#179,.T.);
#102=FACE_OUTER_BOUND('',#180,.T.);
#103=FACE_OUTER_BOUND('',#190,.T.);
#104=FACE_OUTER_BOUND('',#191,.T.);
#105=FACE_OUTER_BOUND('',#192,.T.);
#106=FACE_OUTER_BOUND('',#193,.T.);
#107=FACE_OUTER_BOUND('',#194,.T.);
#108=FACE_OUTER_BOUND('',#195,.T.);
#109=FACE_OUTER_BOUND('',#196,.T.);
#110=FACE_OUTER_BOUND('',#197,.T.);
#111=FACE_OUTER_BOUND('',#198,.T.);
#112=FACE_OUTER_BOUND('',#199,.T.);
#113=FACE_OUTER_BOUND('',#200,.T.);
#114=FACE_OUTER_BOUND('',#201,.T.);
#115=FACE_OUTER_BOUND('',#202,.T.);
#116=FACE_OUTER_BOUND('',#203,.T.);
#117=FACE_OUTER_BOUND('',#204,.T.);
#118=FACE_OUTER_BOUND('',#205,.T.);
#119=FACE_OUTER_BOUND('',#206,.T.);
#120=FACE_OUTER_BOUND('',#207,.T.);
#121=FACE_OUTER_BOUND('',#208,.T.);
#122=FACE_OUTER_BOUND('',#218,.T.);
#123=FACE_OUTER_BOUND('',#219,.T.);
#124=FACE_OUTER_BOUND('',#220,.T.);
#125=FACE_OUTER_BOUND('',#221,.T.);
#126=FACE_OUTER_BOUND('',#222,.T.);
#127=FACE_OUTER_BOUND('',#223,.T.);
#128=FACE_OUTER_BOUND('',#224,.T.);
#129=FACE_OUTER_BOUND('',#225,.T.);
#130=FACE_OUTER_BOUND('',#226,.T.);
#131=FACE_OUTER_BOUND('',#227,.T.);
#132=FACE_OUTER_BOUND('',#228,.T.);
#133=FACE_OUTER_BOUND('',#229,.T.);
#134=FACE_OUTER_BOUND('',#230,.T.);
#135=FACE_OUTER_BOUND('',#231,.T.);
#136=FACE_OUTER_BOUND('',#232,.T.);
#137=FACE_OUTER_BOUND('',#233,.T.);
#138=FACE_OUTER_BOUND('',#234,.T.);
#139=FACE_OUTER_BOUND('',#235,.T.);
#140=FACE_OUTER_BOUND('',#236,.T.);
#141=FACE_OUTER_BOUND('',#237,.T.);
#142=FACE_OUTER_BOUND('',#238,.T.);
#143=FACE_OUTER_BOUND('',#239,.T.);
#144=FACE_OUTER_BOUND('',#240,.T.);
#145=FACE_OUTER_BOUND('',#241,.T.);
#146=FACE_OUTER_BOUND('',#242,.T.);
#147=FACE_OUTER_BOUND('',#243,.T.);
#148=FACE_OUTER_BOUND('',#244,.T.);
#149=FACE_OUTER_BOUND('',#245,.T.);
#150=FACE_OUTER_BOUND('',#246,.T.);
#151=FACE_OUTER_BOUND('',#247,.T.);
#152=FACE_OUTER_BOUND('',#248,.T.);
#153=FACE_OUTER_BOUND('',#249,.T.);
#154=FACE_OUTER_BOUND('',#250,.T.);
#155=FACE_OUTER_BOUND('',#251,.T.);
#156=EDGE_LOOP('',(#783,#784,#785,#786));
#157=EDGE_LOOP('',(#787,#788,#789,#790));
#158=EDGE_LOOP('',(#791,#792,#793,#794));
#159=EDGE_LOOP('',(#795,#796,#797,#798));
#160=EDGE_LOOP('',(#799,#800,#801,#802));
#161=EDGE_LOOP('',(#803,#804,#805,#806));
#162=EDGE_LOOP('',(#807,#808,#809,#810));
#163=EDGE_LOOP('',(#811,#812,#813,#814));
#164=EDGE_LOOP('',(#815,#816,#817,#818));
#165=EDGE_LOOP('',(#819,#820,#821,#822));
#166=EDGE_LOOP('',(#823,#824,#825,#826));
#167=EDGE_LOOP('',(#827,#828,#829,#830));
#168=EDGE_LOOP('',(#831,#832,#833,#834));
#169=EDGE_LOOP('',(#835,#836,#837,#838));
#170=EDGE_LOOP('',(#839,#840,#841,#842));
#171=EDGE_LOOP('',(#843,#844,#845,#846));
#172=EDGE_LOOP('',(#847,#848,#849,#850));
#173=EDGE_LOOP('',(#851,#852,#853,#854));
#174=EDGE_LOOP('',(#855,#856,#857,#858));
#175=EDGE_LOOP('',(#859,#860,#861,#862));
#176=EDGE_LOOP('',(#863,#864,#865,#866));
#177=EDGE_LOOP('',(#867,#868,#869,#870));
#178=EDGE_LOOP('',(#871,#872,#873,#874));
#179=EDGE_LOOP('',(#875,#876,#877,#878));
#180=EDGE_LOOP('',(#879,#880,#881,#882,#883,#884,#885,#886,#887,#888,#889,
#890,#891,#892,#893,#894));
#181=EDGE_LOOP('',(#895));
#182=EDGE_LOOP('',(#896));
#183=EDGE_LOOP('',(#897));
#184=EDGE_LOOP('',(#898));
#185=EDGE_LOOP('',(#899));
#186=EDGE_LOOP('',(#900));
#187=EDGE_LOOP('',(#901));
#188=EDGE_LOOP('',(#902));
#189=EDGE_LOOP('',(#903));
#190=EDGE_LOOP('',(#904,#905,#906,#907));
#191=EDGE_LOOP('',(#908,#909,#910,#911));
#192=EDGE_LOOP('',(#912,#913,#914,#915));
#193=EDGE_LOOP('',(#916,#917,#918,#919));
#194=EDGE_LOOP('',(#920,#921,#922,#923));
#195=EDGE_LOOP('',(#924,#925,#926,#927));
#196=EDGE_LOOP('',(#928,#929,#930,#931));
#197=EDGE_LOOP('',(#932,#933,#934,#935));
#198=EDGE_LOOP('',(#936,#937,#938,#939));
#199=EDGE_LOOP('',(#940,#941,#942,#943));
#200=EDGE_LOOP('',(#944,#945,#946,#947));
#201=EDGE_LOOP('',(#948,#949,#950,#951));
#202=EDGE_LOOP('',(#952,#953,#954,#955));
#203=EDGE_LOOP('',(#956,#957,#958,#959));
#204=EDGE_LOOP('',(#960,#961,#962,#963));
#205=EDGE_LOOP('',(#964,#965,#966,#967));
#206=EDGE_LOOP('',(#968,#969,#970,#971));
#207=EDGE_LOOP('',(#972,#973,#974,#975));
#208=EDGE_LOOP('',(#976,#977,#978,#979,#980,#981,#982,#983,#984,#985,#986,
#987,#988,#989,#990,#991));
#209=EDGE_LOOP('',(#992));
#210=EDGE_LOOP('',(#993));
#211=EDGE_LOOP('',(#994));
#212=EDGE_LOOP('',(#995));
#213=EDGE_LOOP('',(#996));
#214=EDGE_LOOP('',(#997));
#215=EDGE_LOOP('',(#998));
#216=EDGE_LOOP('',(#999));
#217=EDGE_LOOP('',(#1000));
#218=EDGE_LOOP('',(#1001,#1002,#1003,#1004));
#219=EDGE_LOOP('',(#1005,#1006,#1007,#1008));
#220=EDGE_LOOP('',(#1009,#1010,#1011,#1012));
#221=EDGE_LOOP('',(#1013,#1014,#1015,#1016));
#222=EDGE_LOOP('',(#1017,#1018,#1019,#1020));
#223=EDGE_LOOP('',(#1021,#1022,#1023,#1024));
#224=EDGE_LOOP('',(#1025,#1026,#1027,#1028));
#225=EDGE_LOOP('',(#1029,#1030,#1031,#1032));
#226=EDGE_LOOP('',(#1033,#1034,#1035,#1036));
#227=EDGE_LOOP('',(#1037,#1038,#1039,#1040));
#228=EDGE_LOOP('',(#1041,#1042,#1043,#1044));
#229=EDGE_LOOP('',(#1045,#1046,#1047,#1048));
#230=EDGE_LOOP('',(#1049,#1050,#1051,#1052));
#231=EDGE_LOOP('',(#1053,#1054,#1055,#1056));
#232=EDGE_LOOP('',(#1057,#1058,#1059,#1060));
#233=EDGE_LOOP('',(#1061,#1062,#1063,#1064));
#234=EDGE_LOOP('',(#1065,#1066,#1067,#1068));
#235=EDGE_LOOP('',(#1069,#1070,#1071,#1072));
#236=EDGE_LOOP('',(#1073,#1074,#1075,#1076));
#237=EDGE_LOOP('',(#1077,#1078,#1079,#1080));
#238=EDGE_LOOP('',(#1081,#1082,#1083,#1084));
#239=EDGE_LOOP('',(#1085,#1086,#1087,#1088));
#240=EDGE_LOOP('',(#1089,#1090,#1091,#1092));
#241=EDGE_LOOP('',(#1093,#1094,#1095,#1096));
#242=EDGE_LOOP('',(#1097,#1098,#1099,#1100));
#243=EDGE_LOOP('',(#1101,#1102,#1103,#1104));
#244=EDGE_LOOP('',(#1105,#1106,#1107,#1108));
#245=EDGE_LOOP('',(#1109,#1110,#1111,#1112));
#246=EDGE_LOOP('',(#1113,#1114,#1115,#1116));
#247=EDGE_LOOP('',(#1117,#1118,#1119,#1120));
#248=EDGE_LOOP('',(#1121,#1122,#1123,#1124));
#249=EDGE_LOOP('',(#1125,#1126,#1127,#1128));
#250=EDGE_LOOP('',(#1129,#1130,#1131,#1132));
#251=EDGE_LOOP('',(#1133,#1134,#1135,#1136));
#252=LINE('',#1883,#328);
#253=LINE('',#1886,#329);
#254=LINE('',#1897,#330);
#255=LINE('',#1898,#331);
#256=LINE('',#1909,#332);
#257=LINE('',#1910,#333);
#258=LINE('',#1921,#334);
#259=LINE('',#1922,#335);
#260=LINE('',#1933,#336);
#261=LINE('',#1934,#337);
#262=LINE('',#1945,#338);
#263=LINE('',#1946,#339);
#264=LINE('',#1957,#340);
#265=LINE('',#1958,#341);
#266=LINE('',#1969,#342);
#267=LINE('',#1970,#343);
#268=LINE('',#1976,#344);
#269=LINE('',#1979,#345);
#270=LINE('',#1982,#346);
#271=LINE('',#1983,#347);
#272=LINE('',#1986,#348);
#273=LINE('',#1990,#349);
#274=LINE('',#1991,#350);
#275=LINE('',#1994,#351);
#276=LINE('',#1998,#352);
#277=LINE('',#1999,#353);
#278=LINE('',#2002,#354);
#279=LINE('',#2006,#355);
#280=LINE('',#2007,#356);
#281=LINE('',#2040,#357);
#282=LINE('',#2041,#358);
#283=LINE('',#2052,#359);
#284=LINE('',#2053,#360);
#285=LINE('',#2064,#361);
#286=LINE('',#2065,#362);
#287=LINE('',#2074,#363);
#288=LINE('',#2082,#364);
#289=LINE('',#2090,#365);
#290=LINE('',#2098,#366);
#291=LINE('',#2104,#367);
#292=LINE('',#2105,#368);
#293=LINE('',#2107,#369);
#294=LINE('',#2109,#370);
#295=LINE('',#2131,#371);
#296=LINE('',#2135,#372);
#297=LINE('',#2141,#373);
#298=LINE('',#2146,#374);
#299=LINE('',#2148,#375);
#300=LINE('',#2150,#376);
#301=LINE('',#2153,#377);
#302=LINE('',#2157,#378);
#303=LINE('',#2161,#379);
#304=LINE('',#2165,#380);
#305=LINE('',#2169,#381);
#306=LINE('',#2173,#382);
#307=LINE('',#2177,#383);
#308=LINE('',#2181,#384);
#309=LINE('',#2185,#385);
#310=LINE('',#2189,#386);
#311=LINE('',#2193,#387);
#312=LINE('',#2197,#388);
#313=LINE('',#2202,#389);
#314=LINE('',#2206,#390);
#315=LINE('',#2208,#391);
#316=LINE('',#2210,#392);
#317=LINE('',#2212,#393);
#318=LINE('',#2214,#394);
#319=LINE('',#2216,#395);
#320=LINE('',#2218,#396);
#321=LINE('',#2220,#397);
#322=LINE('',#2222,#398);
#323=LINE('',#2224,#399);
#324=LINE('',#2225,#400);
#325=LINE('',#2227,#401);
#326=LINE('',#2229,#402);
#327=LINE('',#2232,#403);
#328=VECTOR('',#1447,10.);
#329=VECTOR('',#1450,10.);
#330=VECTOR('',#1463,10.);
#331=VECTOR('',#1464,10.);
#332=VECTOR('',#1477,10.);
#333=VECTOR('',#1478,10.);
#334=VECTOR('',#1491,10.);
#335=VECTOR('',#1492,10.);
#336=VECTOR('',#1505,10.);
#337=VECTOR('',#1506,10.);
#338=VECTOR('',#1519,10.);
#339=VECTOR('',#1520,10.);
#340=VECTOR('',#1533,10.);
#341=VECTOR('',#1534,10.);
#342=VECTOR('',#1547,10.);
#343=VECTOR('',#1548,10.);
#344=VECTOR('',#1557,10.);
#345=VECTOR('',#1560,10.);
#346=VECTOR('',#1563,10.);
#347=VECTOR('',#1564,10.);
#348=VECTOR('',#1567,10.);
#349=VECTOR('',#1572,10.);
#350=VECTOR('',#1573,10.);
#351=VECTOR('',#1576,10.);
#352=VECTOR('',#1581,10.);
#353=VECTOR('',#1582,10.);
#354=VECTOR('',#1585,10.);
#355=VECTOR('',#1590,10.);
#356=VECTOR('',#1591,10.);
#357=VECTOR('',#1626,10.);
#358=VECTOR('',#1627,10.);
#359=VECTOR('',#1640,10.);
#360=VECTOR('',#1641,10.);
#361=VECTOR('',#1654,10.);
#362=VECTOR('',#1655,10.);
#363=VECTOR('',#1668,10.);
#364=VECTOR('',#1679,10.);
#365=VECTOR('',#1690,10.);
#366=VECTOR('',#1701,10.);
#367=VECTOR('',#1710,10.);
#368=VECTOR('',#1711,10.);
#369=VECTOR('',#1714,10.);
#370=VECTOR('',#1717,10.);
#371=VECTOR('',#1740,0.85);
#372=VECTOR('',#1745,0.8);
#373=VECTOR('',#1752,0.835355339059327);
#374=VECTOR('',#1759,0.800000000000001);
#375=VECTOR('',#1762,0.85);
#376=VECTOR('',#1765,0.85);
#377=VECTOR('',#1768,1.25);
#378=VECTOR('',#1773,1.2);
#379=VECTOR('',#1778,1.25);
#380=VECTOR('',#1783,1.2);
#381=VECTOR('',#1788,1.25);
#382=VECTOR('',#1793,1.2);
#383=VECTOR('',#1798,1.25);
#384=VECTOR('',#1803,1.2);
#385=VECTOR('',#1808,1.25);
#386=VECTOR('',#1813,1.2);
#387=VECTOR('',#1818,1.25);
#388=VECTOR('',#1823,1.2);
#389=VECTOR('',#1830,1.25);
#390=VECTOR('',#1835,1.2);
#391=VECTOR('',#1838,1.25);
#392=VECTOR('',#1841,1.25);
#393=VECTOR('',#1844,1.25);
#394=VECTOR('',#1847,0.85);
#395=VECTOR('',#1850,1.25);
#396=VECTOR('',#1853,1.25);
#397=VECTOR('',#1856,1.25);
#398=VECTOR('',#1859,1.25);
#399=VECTOR('',#1862,10.);
#400=VECTOR('',#1863,10.);
#401=VECTOR('',#1866,10.);
#402=VECTOR('',#1869,10.);
#403=VECTOR('',#1874,10.);
#404=CIRCLE('',#1263,0.100000000000002);
#405=CIRCLE('',#1264,0.1);
#406=CIRCLE('',#1266,0.1);
#407=CIRCLE('',#1267,1.00000000000001);
#408=CIRCLE('',#1268,1.10000000000001);
#409=CIRCLE('',#1270,0.1);
#410=CIRCLE('',#1272,0.1);
#411=CIRCLE('',#1273,0.5);
#412=CIRCLE('',#1274,0.4);
#413=CIRCLE('',#1276,0.1);
#414=CIRCLE('',#1278,0.1);
#415=CIRCLE('',#1279,0.5);
#416=CIRCLE('',#1280,0.4);
#417=CIRCLE('',#1282,0.1);
#418=CIRCLE('',#1284,0.1);
#419=CIRCLE('',#1285,0.5);
#420=CIRCLE('',#1286,0.4);
#421=CIRCLE('',#1288,0.1);
#422=CIRCLE('',#1290,0.1);
#423=CIRCLE('',#1291,1.99999999999999);
#424=CIRCLE('',#1292,2.09999999999999);
#425=CIRCLE('',#1294,0.1);
#426=CIRCLE('',#1296,0.1);
#427=CIRCLE('',#1297,0.5);
#428=CIRCLE('',#1298,0.4);
#429=CIRCLE('',#1300,0.1);
#430=CIRCLE('',#1302,0.1);
#431=CIRCLE('',#1303,0.5);
#432=CIRCLE('',#1304,0.4);
#433=CIRCLE('',#1306,0.1);
#434=CIRCLE('',#1308,0.5);
#435=CIRCLE('',#1309,0.4);
#436=CIRCLE('',#1311,1.99999999999999);
#437=CIRCLE('',#1314,0.5);
#438=CIRCLE('',#1317,0.5);
#439=CIRCLE('',#1320,0.5);
#440=CIRCLE('',#1323,1.3);
#441=CIRCLE('',#1324,1.3);
#442=CIRCLE('',#1325,1.3);
#443=CIRCLE('',#1326,1.3);
#444=CIRCLE('',#1327,1.3);
#445=CIRCLE('',#1328,0.899999999999999);
#446=CIRCLE('',#1329,1.3);
#447=CIRCLE('',#1330,0.9);
#448=CIRCLE('',#1331,1.3);
#449=CIRCLE('',#1333,0.099999999999999);
#450=CIRCLE('',#1334,0.4);
#451=CIRCLE('',#1335,0.1);
#452=CIRCLE('',#1336,0.5);
#453=CIRCLE('',#1338,0.1);
#454=CIRCLE('',#1340,0.1);
#455=CIRCLE('',#1341,0.5);
#456=CIRCLE('',#1342,0.4);
#457=CIRCLE('',#1344,0.1);
#458=CIRCLE('',#1346,0.1);
#459=CIRCLE('',#1347,0.5);
#460=CIRCLE('',#1348,0.4);
#461=CIRCLE('',#1350,0.1);
#462=CIRCLE('',#1352,0.1);
#463=CIRCLE('',#1353,1.00000000000001);
#464=CIRCLE('',#1354,1.10000000000001);
#465=CIRCLE('',#1356,0.1);
#466=CIRCLE('',#1358,0.1);
#467=CIRCLE('',#1359,0.4);
#468=CIRCLE('',#1361,0.1);
#469=CIRCLE('',#1363,0.1);
#470=CIRCLE('',#1364,0.4);
#471=CIRCLE('',#1366,0.1);
#472=CIRCLE('',#1368,0.1);
#473=CIRCLE('',#1369,0.4);
#474=CIRCLE('',#1371,0.1);
#475=CIRCLE('',#1373,0.1);
#476=CIRCLE('',#1374,2.09999999999999);
#477=CIRCLE('',#1379,0.9);
#478=CIRCLE('',#1380,1.3);
#479=CIRCLE('',#1381,1.3);
#480=CIRCLE('',#1382,1.3);
#481=CIRCLE('',#1383,1.3);
#482=CIRCLE('',#1384,1.3);
#483=CIRCLE('',#1385,1.3);
#484=CIRCLE('',#1386,1.3);
#485=CIRCLE('',#1387,0.899999999999999);
#486=CIRCLE('',#1389,0.8);
#487=CIRCLE('',#1391,0.8);
#488=CIRCLE('',#1393,0.870710678118654);
#489=CIRCLE('',#1394,0.800000000000001);
#490=CIRCLE('',#1396,0.800000000000001);
#491=CIRCLE('',#1400,1.2);
#492=CIRCLE('',#1402,1.2);
#493=CIRCLE('',#1404,1.2);
#494=CIRCLE('',#1406,1.2);
#495=CIRCLE('',#1408,1.2);
#496=CIRCLE('',#1410,1.2);
#497=CIRCLE('',#1412,1.2);
#498=CIRCLE('',#1414,1.2);
#499=CIRCLE('',#1416,1.2);
#500=CIRCLE('',#1418,1.2);
#501=CIRCLE('',#1420,1.2);
#502=CIRCLE('',#1422,1.2);
#503=CIRCLE('',#1424,1.2);
#504=CIRCLE('',#1426,1.2);
#505=VERTEX_POINT('',#1879);
#506=VERTEX_POINT('',#1880);
#507=VERTEX_POINT('',#1882);
#508=VERTEX_POINT('',#1884);
#509=VERTEX_POINT('',#1888);
#510=VERTEX_POINT('',#1889);
#511=VERTEX_POINT('',#1894);
#512=VERTEX_POINT('',#1895);
#513=VERTEX_POINT('',#1900);
#514=VERTEX_POINT('',#1901);
#515=VERTEX_POINT('',#1906);
#516=VERTEX_POINT('',#1907);
#517=VERTEX_POINT('',#1912);
#518=VERTEX_POINT('',#1913);
#519=VERTEX_POINT('',#1918);
#520=VERTEX_POINT('',#1919);
#521=VERTEX_POINT('',#1924);
#522=VERTEX_POINT('',#1925);
#523=VERTEX_POINT('',#1930);
#524=VERTEX_POINT('',#1931);
#525=VERTEX_POINT('',#1936);
#526=VERTEX_POINT('',#1937);
#527=VERTEX_POINT('',#1942);
#528=VERTEX_POINT('',#1943);
#529=VERTEX_POINT('',#1948);
#530=VERTEX_POINT('',#1949);
#531=VERTEX_POINT('',#1954);
#532=VERTEX_POINT('',#1955);
#533=VERTEX_POINT('',#1960);
#534=VERTEX_POINT('',#1961);
#535=VERTEX_POINT('',#1966);
#536=VERTEX_POINT('',#1967);
#537=VERTEX_POINT('',#1975);
#538=VERTEX_POINT('',#1977);
#539=VERTEX_POINT('',#1981);
#540=VERTEX_POINT('',#1985);
#541=VERTEX_POINT('',#1989);
#542=VERTEX_POINT('',#1993);
#543=VERTEX_POINT('',#1997);
#544=VERTEX_POINT('',#2001);
#545=VERTEX_POINT('',#2005);
#546=VERTEX_POINT('',#2009);
#547=VERTEX_POINT('',#2011);
#548=VERTEX_POINT('',#2013);
#549=VERTEX_POINT('',#2015);
#550=VERTEX_POINT('',#2017);
#551=VERTEX_POINT('',#2019);
#552=VERTEX_POINT('',#2021);
#553=VERTEX_POINT('',#2023);
#554=VERTEX_POINT('',#2025);
#555=VERTEX_POINT('',#2028);
#556=VERTEX_POINT('',#2029);
#557=VERTEX_POINT('',#2031);
#558=VERTEX_POINT('',#2033);
#559=VERTEX_POINT('',#2037);
#560=VERTEX_POINT('',#2038);
#561=VERTEX_POINT('',#2043);
#562=VERTEX_POINT('',#2044);
#563=VERTEX_POINT('',#2049);
#564=VERTEX_POINT('',#2050);
#565=VERTEX_POINT('',#2055);
#566=VERTEX_POINT('',#2056);
#567=VERTEX_POINT('',#2061);
#568=VERTEX_POINT('',#2062);
#569=VERTEX_POINT('',#2067);
#570=VERTEX_POINT('',#2072);
#571=VERTEX_POINT('',#2076);
#572=VERTEX_POINT('',#2080);
#573=VERTEX_POINT('',#2084);
#574=VERTEX_POINT('',#2088);
#575=VERTEX_POINT('',#2092);
#576=VERTEX_POINT('',#2096);
#577=VERTEX_POINT('',#2100);
#578=VERTEX_POINT('',#2111);
#579=VERTEX_POINT('',#2113);
#580=VERTEX_POINT('',#2115);
#581=VERTEX_POINT('',#2117);
#582=VERTEX_POINT('',#2119);
#583=VERTEX_POINT('',#2121);
#584=VERTEX_POINT('',#2123);
#585=VERTEX_POINT('',#2125);
#586=VERTEX_POINT('',#2127);
#587=VERTEX_POINT('',#2130);
#588=VERTEX_POINT('',#2134);
#589=VERTEX_POINT('',#2138);
#590=VERTEX_POINT('',#2140);
#591=VERTEX_POINT('',#2144);
#592=VERTEX_POINT('',#2152);
#593=VERTEX_POINT('',#2156);
#594=VERTEX_POINT('',#2160);
#595=VERTEX_POINT('',#2164);
#596=VERTEX_POINT('',#2168);
#597=VERTEX_POINT('',#2172);
#598=VERTEX_POINT('',#2176);
#599=VERTEX_POINT('',#2180);
#600=VERTEX_POINT('',#2184);
#601=VERTEX_POINT('',#2188);
#602=VERTEX_POINT('',#2192);
#603=VERTEX_POINT('',#2196);
#604=VERTEX_POINT('',#2200);
#605=VERTEX_POINT('',#2204);
#606=EDGE_CURVE('',#505,#506,#404,.T.);
#607=EDGE_CURVE('',#506,#507,#252,.T.);
#608=EDGE_CURVE('',#507,#508,#405,.T.);
#609=EDGE_CURVE('',#508,#505,#253,.T.);
#610=EDGE_CURVE('',#509,#510,#406,.T.);
#611=EDGE_CURVE('',#510,#508,#407,.T.);
#612=EDGE_CURVE('',#507,#509,#408,.T.);
#613=EDGE_CURVE('',#511,#512,#409,.T.);
#614=EDGE_CURVE('',#512,#510,#254,.T.);
#615=EDGE_CURVE('',#509,#511,#255,.T.);
#616=EDGE_CURVE('',#513,#514,#410,.T.);
#617=EDGE_CURVE('',#514,#512,#411,.T.);
#618=EDGE_CURVE('',#511,#513,#412,.T.);
#619=EDGE_CURVE('',#515,#516,#413,.T.);
#620=EDGE_CURVE('',#516,#514,#256,.T.);
#621=EDGE_CURVE('',#513,#515,#257,.T.);
#622=EDGE_CURVE('',#517,#518,#414,.T.);
#623=EDGE_CURVE('',#518,#516,#415,.T.);
#624=EDGE_CURVE('',#515,#517,#416,.T.);
#625=EDGE_CURVE('',#519,#520,#417,.T.);
#626=EDGE_CURVE('',#520,#518,#258,.T.);
#627=EDGE_CURVE('',#517,#519,#259,.T.);
#628=EDGE_CURVE('',#521,#522,#418,.T.);
#629=EDGE_CURVE('',#522,#520,#419,.T.);
#630=EDGE_CURVE('',#519,#521,#420,.T.);
#631=EDGE_CURVE('',#523,#524,#421,.T.);
#632=EDGE_CURVE('',#524,#522,#260,.T.);
#633=EDGE_CURVE('',#521,#523,#261,.T.);
#634=EDGE_CURVE('',#525,#526,#422,.T.);
#635=EDGE_CURVE('',#526,#524,#423,.T.);
#636=EDGE_CURVE('',#523,#525,#424,.T.);
#637=EDGE_CURVE('',#527,#528,#425,.T.);
#638=EDGE_CURVE('',#528,#526,#262,.T.);
#639=EDGE_CURVE('',#525,#527,#263,.T.);
#640=EDGE_CURVE('',#529,#530,#426,.T.);
#641=EDGE_CURVE('',#530,#528,#427,.T.);
#642=EDGE_CURVE('',#527,#529,#428,.T.);
#643=EDGE_CURVE('',#531,#532,#429,.T.);
#644=EDGE_CURVE('',#532,#530,#264,.T.);
#645=EDGE_CURVE('',#529,#531,#265,.T.);
#646=EDGE_CURVE('',#533,#534,#430,.T.);
#647=EDGE_CURVE('',#534,#532,#431,.T.);
#648=EDGE_CURVE('',#531,#533,#432,.T.);
#649=EDGE_CURVE('',#535,#536,#433,.T.);
#650=EDGE_CURVE('',#536,#534,#266,.T.);
#651=EDGE_CURVE('',#533,#535,#267,.T.);
#652=EDGE_CURVE('',#505,#536,#434,.T.);
#653=EDGE_CURVE('',#535,#506,#435,.T.);
#654=EDGE_CURVE('',#526,#537,#268,.T.);
#655=EDGE_CURVE('',#538,#537,#436,.T.);
#656=EDGE_CURVE('',#524,#538,#269,.T.);
#657=EDGE_CURVE('',#539,#528,#270,.T.);
#658=EDGE_CURVE('',#537,#539,#271,.T.);
#659=EDGE_CURVE('',#530,#540,#272,.T.);
#660=EDGE_CURVE('',#539,#540,#437,.T.);
#661=EDGE_CURVE('',#541,#532,#273,.T.);
#662=EDGE_CURVE('',#540,#541,#274,.T.);
#663=EDGE_CURVE('',#534,#542,#275,.T.);
#664=EDGE_CURVE('',#541,#542,#438,.T.);
#665=EDGE_CURVE('',#543,#536,#276,.T.);
#666=EDGE_CURVE('',#542,#543,#277,.T.);
#667=EDGE_CURVE('',#505,#544,#278,.T.);
#668=EDGE_CURVE('',#543,#544,#439,.T.);
#669=EDGE_CURVE('',#508,#545,#279,.T.);
#670=EDGE_CURVE('',#544,#545,#280,.T.);
#671=EDGE_CURVE('',#546,#546,#440,.T.);
#672=EDGE_CURVE('',#547,#547,#441,.T.);
#673=EDGE_CURVE('',#548,#548,#442,.T.);
#674=EDGE_CURVE('',#549,#549,#443,.T.);
#675=EDGE_CURVE('',#550,#550,#444,.T.);
#676=EDGE_CURVE('',#551,#551,#445,.T.);
#677=EDGE_CURVE('',#552,#552,#446,.T.);
#678=EDGE_CURVE('',#553,#553,#447,.T.);
#679=EDGE_CURVE('',#554,#554,#448,.T.);
#680=EDGE_CURVE('',#555,#556,#449,.T.);
#681=EDGE_CURVE('',#556,#557,#450,.T.);
#682=EDGE_CURVE('',#557,#558,#451,.T.);
#683=EDGE_CURVE('',#558,#555,#452,.T.);
#684=EDGE_CURVE('',#559,#560,#453,.T.);
#685=EDGE_CURVE('',#560,#558,#281,.T.);
#686=EDGE_CURVE('',#557,#559,#282,.T.);
#687=EDGE_CURVE('',#561,#562,#454,.T.);
#688=EDGE_CURVE('',#562,#560,#455,.T.);
#689=EDGE_CURVE('',#559,#561,#456,.T.);
#690=EDGE_CURVE('',#563,#564,#457,.T.);
#691=EDGE_CURVE('',#564,#562,#283,.T.);
#692=EDGE_CURVE('',#561,#563,#284,.T.);
#693=EDGE_CURVE('',#565,#566,#458,.T.);
#694=EDGE_CURVE('',#566,#564,#459,.T.);
#695=EDGE_CURVE('',#563,#565,#460,.T.);
#696=EDGE_CURVE('',#567,#568,#461,.T.);
#697=EDGE_CURVE('',#568,#566,#285,.T.);
#698=EDGE_CURVE('',#565,#567,#286,.T.);
#699=EDGE_CURVE('',#569,#545,#462,.T.);
#700=EDGE_CURVE('',#545,#568,#463,.T.);
#701=EDGE_CURVE('',#567,#569,#464,.T.);
#702=EDGE_CURVE('',#570,#544,#465,.T.);
#703=EDGE_CURVE('',#569,#570,#287,.T.);
#704=EDGE_CURVE('',#571,#543,#466,.T.);
#705=EDGE_CURVE('',#570,#571,#467,.T.);
#706=EDGE_CURVE('',#572,#542,#468,.T.);
#707=EDGE_CURVE('',#571,#572,#288,.T.);
#708=EDGE_CURVE('',#573,#541,#469,.T.);
#709=EDGE_CURVE('',#572,#573,#470,.T.);
#710=EDGE_CURVE('',#574,#540,#471,.T.);
#711=EDGE_CURVE('',#573,#574,#289,.T.);
#712=EDGE_CURVE('',#575,#539,#472,.T.);
#713=EDGE_CURVE('',#574,#575,#473,.T.);
#714=EDGE_CURVE('',#576,#537,#474,.T.);
#715=EDGE_CURVE('',#575,#576,#290,.T.);
#716=EDGE_CURVE('',#577,#538,#475,.T.);
#717=EDGE_CURVE('',#576,#577,#476,.T.);
#718=EDGE_CURVE('',#577,#556,#291,.T.);
#719=EDGE_CURVE('',#555,#538,#292,.T.);
#720=EDGE_CURVE('',#522,#555,#293,.T.);
#721=EDGE_CURVE('',#558,#520,#294,.T.);
#722=EDGE_CURVE('',#578,#578,#477,.T.);
#723=EDGE_CURVE('',#579,#579,#478,.T.);
#724=EDGE_CURVE('',#580,#580,#479,.T.);
#725=EDGE_CURVE('',#581,#581,#480,.T.);
#726=EDGE_CURVE('',#582,#582,#481,.T.);
#727=EDGE_CURVE('',#583,#583,#482,.T.);
#728=EDGE_CURVE('',#584,#584,#483,.T.);
#729=EDGE_CURVE('',#585,#585,#484,.T.);
#730=EDGE_CURVE('',#586,#586,#485,.T.);
#731=EDGE_CURVE('',#578,#587,#295,.T.);
#732=EDGE_CURVE('',#587,#587,#486,.T.);
#733=EDGE_CURVE('',#587,#588,#296,.T.);
#734=EDGE_CURVE('',#588,#588,#487,.T.);
#735=EDGE_CURVE('',#589,#589,#488,.T.);
#736=EDGE_CURVE('',#589,#590,#297,.T.);
#737=EDGE_CURVE('',#590,#590,#489,.T.);
#738=EDGE_CURVE('',#591,#591,#490,.T.);
#739=EDGE_CURVE('',#591,#590,#298,.T.);
#740=EDGE_CURVE('',#589,#551,#299,.T.);
#741=EDGE_CURVE('',#586,#591,#300,.T.);
#742=EDGE_CURVE('',#579,#592,#301,.T.);
#743=EDGE_CURVE('',#592,#592,#491,.T.);
#744=EDGE_CURVE('',#592,#593,#302,.T.);
#745=EDGE_CURVE('',#593,#593,#492,.T.);
#746=EDGE_CURVE('',#585,#594,#303,.T.);
#747=EDGE_CURVE('',#594,#594,#493,.T.);
#748=EDGE_CURVE('',#594,#595,#304,.T.);
#749=EDGE_CURVE('',#595,#595,#494,.T.);
#750=EDGE_CURVE('',#580,#596,#305,.T.);
#751=EDGE_CURVE('',#596,#596,#495,.T.);
#752=EDGE_CURVE('',#596,#597,#306,.T.);
#753=EDGE_CURVE('',#597,#597,#496,.T.);
#754=EDGE_CURVE('',#584,#598,#307,.T.);
#755=EDGE_CURVE('',#598,#598,#497,.T.);
#756=EDGE_CURVE('',#598,#599,#308,.T.);
#757=EDGE_CURVE('',#599,#599,#498,.T.);
#758=EDGE_CURVE('',#581,#600,#309,.T.);
#759=EDGE_CURVE('',#600,#600,#499,.T.);
#760=EDGE_CURVE('',#600,#601,#310,.T.);
#761=EDGE_CURVE('',#601,#601,#500,.T.);
#762=EDGE_CURVE('',#583,#602,#311,.T.);
#763=EDGE_CURVE('',#602,#602,#501,.T.);
#764=EDGE_CURVE('',#602,#603,#312,.T.);
#765=EDGE_CURVE('',#603,#603,#502,.T.);
#766=EDGE_CURVE('',#604,#604,#503,.T.);
#767=EDGE_CURVE('',#604,#546,#313,.T.);
#768=EDGE_CURVE('',#605,#605,#504,.T.);
#769=EDGE_CURVE('',#605,#604,#314,.T.);
#770=EDGE_CURVE('',#582,#605,#315,.T.);
#771=EDGE_CURVE('',#597,#554,#316,.T.);
#772=EDGE_CURVE('',#599,#547,#317,.T.);
#773=EDGE_CURVE('',#588,#553,#318,.T.);
#774=EDGE_CURVE('',#593,#548,#319,.T.);
#775=EDGE_CURVE('',#603,#552,#320,.T.);
#776=EDGE_CURVE('',#601,#549,#321,.T.);
#777=EDGE_CURVE('',#595,#550,#322,.T.);
#778=EDGE_CURVE('',#514,#564,#323,.T.);
#779=EDGE_CURVE('',#566,#512,#324,.T.);
#780=EDGE_CURVE('',#562,#516,#325,.T.);
#781=EDGE_CURVE('',#518,#560,#326,.T.);
#782=EDGE_CURVE('',#510,#568,#327,.T.);
#783=ORIENTED_EDGE('',*,*,#606,.T.);
#784=ORIENTED_EDGE('',*,*,#607,.T.);
#785=ORIENTED_EDGE('',*,*,#608,.T.);
#786=ORIENTED_EDGE('',*,*,#609,.T.);
#787=ORIENTED_EDGE('',*,*,#610,.T.);
#788=ORIENTED_EDGE('',*,*,#611,.T.);
#789=ORIENTED_EDGE('',*,*,#608,.F.);
#790=ORIENTED_EDGE('',*,*,#612,.T.);
#791=ORIENTED_EDGE('',*,*,#613,.T.);
#792=ORIENTED_EDGE('',*,*,#614,.T.);
#793=ORIENTED_EDGE('',*,*,#610,.F.);
#794=ORIENTED_EDGE('',*,*,#615,.T.);
#795=ORIENTED_EDGE('',*,*,#616,.T.);
#796=ORIENTED_EDGE('',*,*,#617,.T.);
#797=ORIENTED_EDGE('',*,*,#613,.F.);
#798=ORIENTED_EDGE('',*,*,#618,.T.);
#799=ORIENTED_EDGE('',*,*,#619,.T.);
#800=ORIENTED_EDGE('',*,*,#620,.T.);
#801=ORIENTED_EDGE('',*,*,#616,.F.);
#802=ORIENTED_EDGE('',*,*,#621,.T.);
#803=ORIENTED_EDGE('',*,*,#622,.T.);
#804=ORIENTED_EDGE('',*,*,#623,.T.);
#805=ORIENTED_EDGE('',*,*,#619,.F.);
#806=ORIENTED_EDGE('',*,*,#624,.T.);
#807=ORIENTED_EDGE('',*,*,#625,.T.);
#808=ORIENTED_EDGE('',*,*,#626,.T.);
#809=ORIENTED_EDGE('',*,*,#622,.F.);
#810=ORIENTED_EDGE('',*,*,#627,.T.);
#811=ORIENTED_EDGE('',*,*,#628,.T.);
#812=ORIENTED_EDGE('',*,*,#629,.T.);
#813=ORIENTED_EDGE('',*,*,#625,.F.);
#814=ORIENTED_EDGE('',*,*,#630,.T.);
#815=ORIENTED_EDGE('',*,*,#631,.T.);
#816=ORIENTED_EDGE('',*,*,#632,.T.);
#817=ORIENTED_EDGE('',*,*,#628,.F.);
#818=ORIENTED_EDGE('',*,*,#633,.T.);
#819=ORIENTED_EDGE('',*,*,#634,.T.);
#820=ORIENTED_EDGE('',*,*,#635,.T.);
#821=ORIENTED_EDGE('',*,*,#631,.F.);
#822=ORIENTED_EDGE('',*,*,#636,.T.);
#823=ORIENTED_EDGE('',*,*,#637,.T.);
#824=ORIENTED_EDGE('',*,*,#638,.T.);
#825=ORIENTED_EDGE('',*,*,#634,.F.);
#826=ORIENTED_EDGE('',*,*,#639,.T.);
#827=ORIENTED_EDGE('',*,*,#640,.T.);
#828=ORIENTED_EDGE('',*,*,#641,.T.);
#829=ORIENTED_EDGE('',*,*,#637,.F.);
#830=ORIENTED_EDGE('',*,*,#642,.T.);
#831=ORIENTED_EDGE('',*,*,#643,.T.);
#832=ORIENTED_EDGE('',*,*,#644,.T.);
#833=ORIENTED_EDGE('',*,*,#640,.F.);
#834=ORIENTED_EDGE('',*,*,#645,.T.);
#835=ORIENTED_EDGE('',*,*,#646,.T.);
#836=ORIENTED_EDGE('',*,*,#647,.T.);
#837=ORIENTED_EDGE('',*,*,#643,.F.);
#838=ORIENTED_EDGE('',*,*,#648,.T.);
#839=ORIENTED_EDGE('',*,*,#649,.T.);
#840=ORIENTED_EDGE('',*,*,#650,.T.);
#841=ORIENTED_EDGE('',*,*,#646,.F.);
#842=ORIENTED_EDGE('',*,*,#651,.T.);
#843=ORIENTED_EDGE('',*,*,#606,.F.);
#844=ORIENTED_EDGE('',*,*,#652,.T.);
#845=ORIENTED_EDGE('',*,*,#649,.F.);
#846=ORIENTED_EDGE('',*,*,#653,.T.);
#847=ORIENTED_EDGE('',*,*,#635,.F.);
#848=ORIENTED_EDGE('',*,*,#654,.T.);
#849=ORIENTED_EDGE('',*,*,#655,.F.);
#850=ORIENTED_EDGE('',*,*,#656,.F.);
#851=ORIENTED_EDGE('',*,*,#638,.F.);
#852=ORIENTED_EDGE('',*,*,#657,.F.);
#853=ORIENTED_EDGE('',*,*,#658,.F.);
#854=ORIENTED_EDGE('',*,*,#654,.F.);
#855=ORIENTED_EDGE('',*,*,#641,.F.);
#856=ORIENTED_EDGE('',*,*,#659,.T.);
#857=ORIENTED_EDGE('',*,*,#660,.F.);
#858=ORIENTED_EDGE('',*,*,#657,.T.);
#859=ORIENTED_EDGE('',*,*,#644,.F.);
#860=ORIENTED_EDGE('',*,*,#661,.F.);
#861=ORIENTED_EDGE('',*,*,#662,.F.);
#862=ORIENTED_EDGE('',*,*,#659,.F.);
#863=ORIENTED_EDGE('',*,*,#647,.F.);
#864=ORIENTED_EDGE('',*,*,#663,.T.);
#865=ORIENTED_EDGE('',*,*,#664,.F.);
#866=ORIENTED_EDGE('',*,*,#661,.T.);
#867=ORIENTED_EDGE('',*,*,#650,.F.);
#868=ORIENTED_EDGE('',*,*,#665,.F.);
#869=ORIENTED_EDGE('',*,*,#666,.F.);
#870=ORIENTED_EDGE('',*,*,#663,.F.);
#871=ORIENTED_EDGE('',*,*,#652,.F.);
#872=ORIENTED_EDGE('',*,*,#667,.T.);
#873=ORIENTED_EDGE('',*,*,#668,.F.);
#874=ORIENTED_EDGE('',*,*,#665,.T.);
#875=ORIENTED_EDGE('',*,*,#609,.F.);
#876=ORIENTED_EDGE('',*,*,#669,.T.);
#877=ORIENTED_EDGE('',*,*,#670,.F.);
#878=ORIENTED_EDGE('',*,*,#667,.F.);
#879=ORIENTED_EDGE('',*,*,#607,.F.);
#880=ORIENTED_EDGE('',*,*,#653,.F.);
#881=ORIENTED_EDGE('',*,*,#651,.F.);
#882=ORIENTED_EDGE('',*,*,#648,.F.);
#883=ORIENTED_EDGE('',*,*,#645,.F.);
#884=ORIENTED_EDGE('',*,*,#642,.F.);
#885=ORIENTED_EDGE('',*,*,#639,.F.);
#886=ORIENTED_EDGE('',*,*,#636,.F.);
#887=ORIENTED_EDGE('',*,*,#633,.F.);
#888=ORIENTED_EDGE('',*,*,#630,.F.);
#889=ORIENTED_EDGE('',*,*,#627,.F.);
#890=ORIENTED_EDGE('',*,*,#624,.F.);
#891=ORIENTED_EDGE('',*,*,#621,.F.);
#892=ORIENTED_EDGE('',*,*,#618,.F.);
#893=ORIENTED_EDGE('',*,*,#615,.F.);
#894=ORIENTED_EDGE('',*,*,#612,.F.);
#895=ORIENTED_EDGE('',*,*,#671,.F.);
#896=ORIENTED_EDGE('',*,*,#672,.F.);
#897=ORIENTED_EDGE('',*,*,#673,.F.);
#898=ORIENTED_EDGE('',*,*,#674,.F.);
#899=ORIENTED_EDGE('',*,*,#675,.F.);
#900=ORIENTED_EDGE('',*,*,#676,.F.);
#901=ORIENTED_EDGE('',*,*,#677,.F.);
#902=ORIENTED_EDGE('',*,*,#678,.F.);
#903=ORIENTED_EDGE('',*,*,#679,.F.);
#904=ORIENTED_EDGE('',*,*,#680,.T.);
#905=ORIENTED_EDGE('',*,*,#681,.T.);
#906=ORIENTED_EDGE('',*,*,#682,.T.);
#907=ORIENTED_EDGE('',*,*,#683,.T.);
#908=ORIENTED_EDGE('',*,*,#684,.T.);
#909=ORIENTED_EDGE('',*,*,#685,.T.);
#910=ORIENTED_EDGE('',*,*,#682,.F.);
#911=ORIENTED_EDGE('',*,*,#686,.T.);
#912=ORIENTED_EDGE('',*,*,#687,.T.);
#913=ORIENTED_EDGE('',*,*,#688,.T.);
#914=ORIENTED_EDGE('',*,*,#684,.F.);
#915=ORIENTED_EDGE('',*,*,#689,.T.);
#916=ORIENTED_EDGE('',*,*,#690,.T.);
#917=ORIENTED_EDGE('',*,*,#691,.T.);
#918=ORIENTED_EDGE('',*,*,#687,.F.);
#919=ORIENTED_EDGE('',*,*,#692,.T.);
#920=ORIENTED_EDGE('',*,*,#693,.T.);
#921=ORIENTED_EDGE('',*,*,#694,.T.);
#922=ORIENTED_EDGE('',*,*,#690,.F.);
#923=ORIENTED_EDGE('',*,*,#695,.T.);
#924=ORIENTED_EDGE('',*,*,#696,.T.);
#925=ORIENTED_EDGE('',*,*,#697,.T.);
#926=ORIENTED_EDGE('',*,*,#693,.F.);
#927=ORIENTED_EDGE('',*,*,#698,.T.);
#928=ORIENTED_EDGE('',*,*,#699,.T.);
#929=ORIENTED_EDGE('',*,*,#700,.T.);
#930=ORIENTED_EDGE('',*,*,#696,.F.);
#931=ORIENTED_EDGE('',*,*,#701,.T.);
#932=ORIENTED_EDGE('',*,*,#702,.T.);
#933=ORIENTED_EDGE('',*,*,#670,.T.);
#934=ORIENTED_EDGE('',*,*,#699,.F.);
#935=ORIENTED_EDGE('',*,*,#703,.T.);
#936=ORIENTED_EDGE('',*,*,#704,.T.);
#937=ORIENTED_EDGE('',*,*,#668,.T.);
#938=ORIENTED_EDGE('',*,*,#702,.F.);
#939=ORIENTED_EDGE('',*,*,#705,.T.);
#940=ORIENTED_EDGE('',*,*,#706,.T.);
#941=ORIENTED_EDGE('',*,*,#666,.T.);
#942=ORIENTED_EDGE('',*,*,#704,.F.);
#943=ORIENTED_EDGE('',*,*,#707,.T.);
#944=ORIENTED_EDGE('',*,*,#708,.T.);
#945=ORIENTED_EDGE('',*,*,#664,.T.);
#946=ORIENTED_EDGE('',*,*,#706,.F.);
#947=ORIENTED_EDGE('',*,*,#709,.T.);
#948=ORIENTED_EDGE('',*,*,#710,.T.);
#949=ORIENTED_EDGE('',*,*,#662,.T.);
#950=ORIENTED_EDGE('',*,*,#708,.F.);
#951=ORIENTED_EDGE('',*,*,#711,.T.);
#952=ORIENTED_EDGE('',*,*,#712,.T.);
#953=ORIENTED_EDGE('',*,*,#660,.T.);
#954=ORIENTED_EDGE('',*,*,#710,.F.);
#955=ORIENTED_EDGE('',*,*,#713,.T.);
#956=ORIENTED_EDGE('',*,*,#714,.T.);
#957=ORIENTED_EDGE('',*,*,#658,.T.);
#958=ORIENTED_EDGE('',*,*,#712,.F.);
#959=ORIENTED_EDGE('',*,*,#715,.T.);
#960=ORIENTED_EDGE('',*,*,#716,.T.);
#961=ORIENTED_EDGE('',*,*,#655,.T.);
#962=ORIENTED_EDGE('',*,*,#714,.F.);
#963=ORIENTED_EDGE('',*,*,#717,.T.);
#964=ORIENTED_EDGE('',*,*,#716,.F.);
#965=ORIENTED_EDGE('',*,*,#718,.T.);
#966=ORIENTED_EDGE('',*,*,#680,.F.);
#967=ORIENTED_EDGE('',*,*,#719,.T.);
#968=ORIENTED_EDGE('',*,*,#632,.F.);
#969=ORIENTED_EDGE('',*,*,#656,.T.);
#970=ORIENTED_EDGE('',*,*,#719,.F.);
#971=ORIENTED_EDGE('',*,*,#720,.F.);
#972=ORIENTED_EDGE('',*,*,#629,.F.);
#973=ORIENTED_EDGE('',*,*,#720,.T.);
#974=ORIENTED_EDGE('',*,*,#683,.F.);
#975=ORIENTED_EDGE('',*,*,#721,.T.);
#976=ORIENTED_EDGE('',*,*,#681,.F.);
#977=ORIENTED_EDGE('',*,*,#718,.F.);
#978=ORIENTED_EDGE('',*,*,#717,.F.);
#979=ORIENTED_EDGE('',*,*,#715,.F.);
#980=ORIENTED_EDGE('',*,*,#713,.F.);
#981=ORIENTED_EDGE('',*,*,#711,.F.);
#982=ORIENTED_EDGE('',*,*,#709,.F.);
#983=ORIENTED_EDGE('',*,*,#707,.F.);
#984=ORIENTED_EDGE('',*,*,#705,.F.);
#985=ORIENTED_EDGE('',*,*,#703,.F.);
#986=ORIENTED_EDGE('',*,*,#701,.F.);
#987=ORIENTED_EDGE('',*,*,#698,.F.);
#988=ORIENTED_EDGE('',*,*,#695,.F.);
#989=ORIENTED_EDGE('',*,*,#692,.F.);
#990=ORIENTED_EDGE('',*,*,#689,.F.);
#991=ORIENTED_EDGE('',*,*,#686,.F.);
#992=ORIENTED_EDGE('',*,*,#722,.F.);
#993=ORIENTED_EDGE('',*,*,#723,.F.);
#994=ORIENTED_EDGE('',*,*,#724,.F.);
#995=ORIENTED_EDGE('',*,*,#725,.F.);
#996=ORIENTED_EDGE('',*,*,#726,.F.);
#997=ORIENTED_EDGE('',*,*,#727,.F.);
#998=ORIENTED_EDGE('',*,*,#728,.F.);
#999=ORIENTED_EDGE('',*,*,#729,.F.);
#1000=ORIENTED_EDGE('',*,*,#730,.F.);
#1001=ORIENTED_EDGE('',*,*,#722,.T.);
#1002=ORIENTED_EDGE('',*,*,#731,.T.);
#1003=ORIENTED_EDGE('',*,*,#732,.T.);
#1004=ORIENTED_EDGE('',*,*,#731,.F.);
#1005=ORIENTED_EDGE('',*,*,#732,.F.);
#1006=ORIENTED_EDGE('',*,*,#733,.T.);
#1007=ORIENTED_EDGE('',*,*,#734,.F.);
#1008=ORIENTED_EDGE('',*,*,#733,.F.);
#1009=ORIENTED_EDGE('',*,*,#735,.T.);
#1010=ORIENTED_EDGE('',*,*,#736,.T.);
#1011=ORIENTED_EDGE('',*,*,#737,.T.);
#1012=ORIENTED_EDGE('',*,*,#736,.F.);
#1013=ORIENTED_EDGE('',*,*,#738,.F.);
#1014=ORIENTED_EDGE('',*,*,#739,.T.);
#1015=ORIENTED_EDGE('',*,*,#737,.F.);
#1016=ORIENTED_EDGE('',*,*,#739,.F.);
#1017=ORIENTED_EDGE('',*,*,#735,.F.);
#1018=ORIENTED_EDGE('',*,*,#740,.T.);
#1019=ORIENTED_EDGE('',*,*,#676,.T.);
#1020=ORIENTED_EDGE('',*,*,#740,.F.);
#1021=ORIENTED_EDGE('',*,*,#730,.T.);
#1022=ORIENTED_EDGE('',*,*,#741,.T.);
#1023=ORIENTED_EDGE('',*,*,#738,.T.);
#1024=ORIENTED_EDGE('',*,*,#741,.F.);
#1025=ORIENTED_EDGE('',*,*,#723,.T.);
#1026=ORIENTED_EDGE('',*,*,#742,.T.);
#1027=ORIENTED_EDGE('',*,*,#743,.T.);
#1028=ORIENTED_EDGE('',*,*,#742,.F.);
#1029=ORIENTED_EDGE('',*,*,#743,.F.);
#1030=ORIENTED_EDGE('',*,*,#744,.T.);
#1031=ORIENTED_EDGE('',*,*,#745,.F.);
#1032=ORIENTED_EDGE('',*,*,#744,.F.);
#1033=ORIENTED_EDGE('',*,*,#729,.T.);
#1034=ORIENTED_EDGE('',*,*,#746,.T.);
#1035=ORIENTED_EDGE('',*,*,#747,.T.);
#1036=ORIENTED_EDGE('',*,*,#746,.F.);
#1037=ORIENTED_EDGE('',*,*,#747,.F.);
#1038=ORIENTED_EDGE('',*,*,#748,.T.);
#1039=ORIENTED_EDGE('',*,*,#749,.F.);
#1040=ORIENTED_EDGE('',*,*,#748,.F.);
#1041=ORIENTED_EDGE('',*,*,#724,.T.);
#1042=ORIENTED_EDGE('',*,*,#750,.T.);
#1043=ORIENTED_EDGE('',*,*,#751,.T.);
#1044=ORIENTED_EDGE('',*,*,#750,.F.);
#1045=ORIENTED_EDGE('',*,*,#751,.F.);
#1046=ORIENTED_EDGE('',*,*,#752,.T.);
#1047=ORIENTED_EDGE('',*,*,#753,.F.);
#1048=ORIENTED_EDGE('',*,*,#752,.F.);
#1049=ORIENTED_EDGE('',*,*,#728,.T.);
#1050=ORIENTED_EDGE('',*,*,#754,.T.);
#1051=ORIENTED_EDGE('',*,*,#755,.T.);
#1052=ORIENTED_EDGE('',*,*,#754,.F.);
#1053=ORIENTED_EDGE('',*,*,#755,.F.);
#1054=ORIENTED_EDGE('',*,*,#756,.T.);
#1055=ORIENTED_EDGE('',*,*,#757,.F.);
#1056=ORIENTED_EDGE('',*,*,#756,.F.);
#1057=ORIENTED_EDGE('',*,*,#725,.T.);
#1058=ORIENTED_EDGE('',*,*,#758,.T.);
#1059=ORIENTED_EDGE('',*,*,#759,.T.);
#1060=ORIENTED_EDGE('',*,*,#758,.F.);
#1061=ORIENTED_EDGE('',*,*,#759,.F.);
#1062=ORIENTED_EDGE('',*,*,#760,.T.);
#1063=ORIENTED_EDGE('',*,*,#761,.F.);
#1064=ORIENTED_EDGE('',*,*,#760,.F.);
#1065=ORIENTED_EDGE('',*,*,#727,.T.);
#1066=ORIENTED_EDGE('',*,*,#762,.T.);
#1067=ORIENTED_EDGE('',*,*,#763,.T.);
#1068=ORIENTED_EDGE('',*,*,#762,.F.);
#1069=ORIENTED_EDGE('',*,*,#763,.F.);
#1070=ORIENTED_EDGE('',*,*,#764,.T.);
#1071=ORIENTED_EDGE('',*,*,#765,.F.);
#1072=ORIENTED_EDGE('',*,*,#764,.F.);
#1073=ORIENTED_EDGE('',*,*,#766,.T.);
#1074=ORIENTED_EDGE('',*,*,#767,.T.);
#1075=ORIENTED_EDGE('',*,*,#671,.T.);
#1076=ORIENTED_EDGE('',*,*,#767,.F.);
#1077=ORIENTED_EDGE('',*,*,#768,.F.);
#1078=ORIENTED_EDGE('',*,*,#769,.T.);
#1079=ORIENTED_EDGE('',*,*,#766,.F.);
#1080=ORIENTED_EDGE('',*,*,#769,.F.);
#1081=ORIENTED_EDGE('',*,*,#726,.T.);
#1082=ORIENTED_EDGE('',*,*,#770,.T.);
#1083=ORIENTED_EDGE('',*,*,#768,.T.);
#1084=ORIENTED_EDGE('',*,*,#770,.F.);
#1085=ORIENTED_EDGE('',*,*,#753,.T.);
#1086=ORIENTED_EDGE('',*,*,#771,.T.);
#1087=ORIENTED_EDGE('',*,*,#679,.T.);
#1088=ORIENTED_EDGE('',*,*,#771,.F.);
#1089=ORIENTED_EDGE('',*,*,#757,.T.);
#1090=ORIENTED_EDGE('',*,*,#772,.T.);
#1091=ORIENTED_EDGE('',*,*,#672,.T.);
#1092=ORIENTED_EDGE('',*,*,#772,.F.);
#1093=ORIENTED_EDGE('',*,*,#734,.T.);
#1094=ORIENTED_EDGE('',*,*,#773,.T.);
#1095=ORIENTED_EDGE('',*,*,#678,.T.);
#1096=ORIENTED_EDGE('',*,*,#773,.F.);
#1097=ORIENTED_EDGE('',*,*,#745,.T.);
#1098=ORIENTED_EDGE('',*,*,#774,.T.);
#1099=ORIENTED_EDGE('',*,*,#673,.T.);
#1100=ORIENTED_EDGE('',*,*,#774,.F.);
#1101=ORIENTED_EDGE('',*,*,#765,.T.);
#1102=ORIENTED_EDGE('',*,*,#775,.T.);
#1103=ORIENTED_EDGE('',*,*,#677,.T.);
#1104=ORIENTED_EDGE('',*,*,#775,.F.);
#1105=ORIENTED_EDGE('',*,*,#761,.T.);
#1106=ORIENTED_EDGE('',*,*,#776,.T.);
#1107=ORIENTED_EDGE('',*,*,#674,.T.);
#1108=ORIENTED_EDGE('',*,*,#776,.F.);
#1109=ORIENTED_EDGE('',*,*,#749,.T.);
#1110=ORIENTED_EDGE('',*,*,#777,.T.);
#1111=ORIENTED_EDGE('',*,*,#675,.T.);
#1112=ORIENTED_EDGE('',*,*,#777,.F.);
#1113=ORIENTED_EDGE('',*,*,#617,.F.);
#1114=ORIENTED_EDGE('',*,*,#778,.T.);
#1115=ORIENTED_EDGE('',*,*,#694,.F.);
#1116=ORIENTED_EDGE('',*,*,#779,.T.);
#1117=ORIENTED_EDGE('',*,*,#620,.F.);
#1118=ORIENTED_EDGE('',*,*,#780,.F.);
#1119=ORIENTED_EDGE('',*,*,#691,.F.);
#1120=ORIENTED_EDGE('',*,*,#778,.F.);
#1121=ORIENTED_EDGE('',*,*,#623,.F.);
#1122=ORIENTED_EDGE('',*,*,#781,.T.);
#1123=ORIENTED_EDGE('',*,*,#688,.F.);
#1124=ORIENTED_EDGE('',*,*,#780,.T.);
#1125=ORIENTED_EDGE('',*,*,#626,.F.);
#1126=ORIENTED_EDGE('',*,*,#721,.F.);
#1127=ORIENTED_EDGE('',*,*,#685,.F.);
#1128=ORIENTED_EDGE('',*,*,#781,.F.);
#1129=ORIENTED_EDGE('',*,*,#614,.F.);
#1130=ORIENTED_EDGE('',*,*,#779,.F.);
#1131=ORIENTED_EDGE('',*,*,#697,.F.);
#1132=ORIENTED_EDGE('',*,*,#782,.F.);
#1133=ORIENTED_EDGE('',*,*,#611,.F.);
#1134=ORIENTED_EDGE('',*,*,#782,.T.);
#1135=ORIENTED_EDGE('',*,*,#700,.F.);
#1136=ORIENTED_EDGE('',*,*,#669,.F.);
#1137=CYLINDRICAL_SURFACE('',#1262,0.1);
#1138=CYLINDRICAL_SURFACE('',#1269,0.1);
#1139=CYLINDRICAL_SURFACE('',#1275,0.1);
#1140=CYLINDRICAL_SURFACE('',#1281,0.1);
#1141=CYLINDRICAL_SURFACE('',#1287,0.1);
#1142=CYLINDRICAL_SURFACE('',#1293,0.1);
#1143=CYLINDRICAL_SURFACE('',#1299,0.1);
#1144=CYLINDRICAL_SURFACE('',#1305,0.1);
#1145=CYLINDRICAL_SURFACE('',#1310,1.99999999999999);
#1146=CYLINDRICAL_SURFACE('',#1313,0.5);
#1147=CYLINDRICAL_SURFACE('',#1316,0.5);
#1148=CYLINDRICAL_SURFACE('',#1319,0.5);
#1149=CYLINDRICAL_SURFACE('',#1337,0.1);
#1150=CYLINDRICAL_SURFACE('',#1343,0.1);
#1151=CYLINDRICAL_SURFACE('',#1349,0.1);
#1152=CYLINDRICAL_SURFACE('',#1355,0.1);
#1153=CYLINDRICAL_SURFACE('',#1360,0.1);
#1154=CYLINDRICAL_SURFACE('',#1365,0.1);
#1155=CYLINDRICAL_SURFACE('',#1370,0.1);
#1156=CYLINDRICAL_SURFACE('',#1375,0.1);
#1157=CYLINDRICAL_SURFACE('',#1377,0.5);
#1158=CYLINDRICAL_SURFACE('',#1390,0.8);
#1159=CYLINDRICAL_SURFACE('',#1395,0.800000000000001);
#1160=CYLINDRICAL_SURFACE('',#1401,1.2);
#1161=CYLINDRICAL_SURFACE('',#1405,1.2);
#1162=CYLINDRICAL_SURFACE('',#1409,1.2);
#1163=CYLINDRICAL_SURFACE('',#1413,1.2);
#1164=CYLINDRICAL_SURFACE('',#1417,1.2);
#1165=CYLINDRICAL_SURFACE('',#1421,1.2);
#1166=CYLINDRICAL_SURFACE('',#1425,1.2);
#1167=CYLINDRICAL_SURFACE('',#1435,0.5);
#1168=CYLINDRICAL_SURFACE('',#1437,0.5);
#1169=CYLINDRICAL_SURFACE('',#1440,1.00000000000001);
#1170=ADVANCED_FACE('',(#78),#1137,.T.);
#1171=ADVANCED_FACE('',(#79),#62,.T.);
#1172=ADVANCED_FACE('',(#80),#1138,.T.);
#1173=ADVANCED_FACE('',(#81),#63,.T.);
#1174=ADVANCED_FACE('',(#82),#1139,.T.);
#1175=ADVANCED_FACE('',(#83),#64,.T.);
#1176=ADVANCED_FACE('',(#84),#1140,.T.);
#1177=ADVANCED_FACE('',(#85),#65,.T.);
#1178=ADVANCED_FACE('',(#86),#1141,.T.);
#1179=ADVANCED_FACE('',(#87),#66,.T.);
#1180=ADVANCED_FACE('',(#88),#1142,.T.);
#1181=ADVANCED_FACE('',(#89),#67,.T.);
#1182=ADVANCED_FACE('',(#90),#1143,.T.);
#1183=ADVANCED_FACE('',(#91),#68,.T.);
#1184=ADVANCED_FACE('',(#92),#1144,.T.);
#1185=ADVANCED_FACE('',(#93),#69,.T.);
#1186=ADVANCED_FACE('',(#94),#1145,.F.);
#1187=ADVANCED_FACE('',(#95),#52,.T.);
#1188=ADVANCED_FACE('',(#96),#1146,.T.);
#1189=ADVANCED_FACE('',(#97),#53,.T.);
#1190=ADVANCED_FACE('',(#98),#1147,.T.);
#1191=ADVANCED_FACE('',(#99),#54,.T.);
#1192=ADVANCED_FACE('',(#100),#1148,.T.);
#1193=ADVANCED_FACE('',(#101),#55,.T.);
#1194=ADVANCED_FACE('',(#102,#34,#35,#36,#37,#38,#39,#40,#41,#42),#56,.F.);
#1195=ADVANCED_FACE('',(#103),#70,.T.);
#1196=ADVANCED_FACE('',(#104),#1149,.T.);
#1197=ADVANCED_FACE('',(#105),#71,.T.);
#1198=ADVANCED_FACE('',(#106),#1150,.T.);
#1199=ADVANCED_FACE('',(#107),#72,.T.);
#1200=ADVANCED_FACE('',(#108),#1151,.T.);
#1201=ADVANCED_FACE('',(#109),#73,.T.);
#1202=ADVANCED_FACE('',(#110),#1152,.T.);
#1203=ADVANCED_FACE('',(#111),#74,.T.);
#1204=ADVANCED_FACE('',(#112),#1153,.T.);
#1205=ADVANCED_FACE('',(#113),#75,.T.);
#1206=ADVANCED_FACE('',(#114),#1154,.T.);
#1207=ADVANCED_FACE('',(#115),#76,.T.);
#1208=ADVANCED_FACE('',(#116),#1155,.T.);
#1209=ADVANCED_FACE('',(#117),#77,.T.);
#1210=ADVANCED_FACE('',(#118),#1156,.T.);
#1211=ADVANCED_FACE('',(#119),#57,.T.);
#1212=ADVANCED_FACE('',(#120),#1157,.T.);
#1213=ADVANCED_FACE('',(#121,#43,#44,#45,#46,#47,#48,#49,#50,#51),#58,.T.);
#1214=ADVANCED_FACE('',(#122),#15,.F.);
#1215=ADVANCED_FACE('',(#123),#1158,.F.);
#1216=ADVANCED_FACE('',(#124),#16,.F.);
#1217=ADVANCED_FACE('',(#125),#1159,.F.);
#1218=ADVANCED_FACE('',(#126),#17,.F.);
#1219=ADVANCED_FACE('',(#127),#18,.F.);
#1220=ADVANCED_FACE('',(#128),#19,.F.);
#1221=ADVANCED_FACE('',(#129),#1160,.F.);
#1222=ADVANCED_FACE('',(#130),#20,.F.);
#1223=ADVANCED_FACE('',(#131),#1161,.F.);
#1224=ADVANCED_FACE('',(#132),#21,.F.);
#1225=ADVANCED_FACE('',(#133),#1162,.F.);
#1226=ADVANCED_FACE('',(#134),#22,.F.);
#1227=ADVANCED_FACE('',(#135),#1163,.F.);
#1228=ADVANCED_FACE('',(#136),#23,.F.);
#1229=ADVANCED_FACE('',(#137),#1164,.F.);
#1230=ADVANCED_FACE('',(#138),#24,.F.);
#1231=ADVANCED_FACE('',(#139),#1165,.F.);
#1232=ADVANCED_FACE('',(#140),#25,.F.);
#1233=ADVANCED_FACE('',(#141),#1166,.F.);
#1234=ADVANCED_FACE('',(#142),#26,.F.);
#1235=ADVANCED_FACE('',(#143),#27,.F.);
#1236=ADVANCED_FACE('',(#144),#28,.F.);
#1237=ADVANCED_FACE('',(#145),#29,.F.);
#1238=ADVANCED_FACE('',(#146),#30,.F.);
#1239=ADVANCED_FACE('',(#147),#31,.F.);
#1240=ADVANCED_FACE('',(#148),#32,.F.);
#1241=ADVANCED_FACE('',(#149),#33,.F.);
#1242=ADVANCED_FACE('',(#150),#1167,.T.);
#1243=ADVANCED_FACE('',(#151),#59,.T.);
#1244=ADVANCED_FACE('',(#152),#1168,.T.);
#1245=ADVANCED_FACE('',(#153),#60,.T.);
#1246=ADVANCED_FACE('',(#154),#61,.T.);
#1247=ADVANCED_FACE('',(#155),#1169,.F.);
#1248=CLOSED_SHELL('',(#1170,#1171,#1172,#1173,#1174,#1175,#1176,#1177,
#1178,#1179,#1180,#1181,#1182,#1183,#1184,#1185,#1186,#1187,#1188,#1189,
#1190,#1191,#1192,#1193,#1194,#1195,#1196,#1197,#1198,#1199,#1200,#1201,
#1202,#1203,#1204,#1205,#1206,#1207,#1208,#1209,#1210,#1211,#1212,#1213,
#1214,#1215,#1216,#1217,#1218,#1219,#1220,#1221,#1222,#1223,#1224,#1225,
#1226,#1227,#1228,#1229,#1230,#1231,#1232,#1233,#1234,#1235,#1236,#1237,
#1238,#1239,#1240,#1241,#1242,#1243,#1244,#1245,#1246,#1247));
#1249=DERIVED_UNIT_ELEMENT(#1251,1.);
#1250=DERIVED_UNIT_ELEMENT(#2239,-3.);
#1251=(
MASS_UNIT()
NAMED_UNIT(*)
SI_UNIT(.KILO.,.GRAM.)
);
#1252=DERIVED_UNIT((#1249,#1250));
#1253=MEASURE_REPRESENTATION_ITEM('density measure',
POSITIVE_RATIO_MEASURE(7850.),#1252);
#1254=PROPERTY_DEFINITION_REPRESENTATION(#1259,#1256);
#1255=PROPERTY_DEFINITION_REPRESENTATION(#1260,#1257);
#1256=REPRESENTATION('material name',(#1258),#2236);
#1257=REPRESENTATION('density',(#1253),#2236);
#1258=DESCRIPTIVE_REPRESENTATION_ITEM('Steel','Steel');
#1259=PROPERTY_DEFINITION('material property','material name',#2246);
#1260=PROPERTY_DEFINITION('material property','density of part',#2246);
#1261=AXIS2_PLACEMENT_3D('',#1877,#1441,#1442);
#1262=AXIS2_PLACEMENT_3D('',#1878,#1443,#1444);
#1263=AXIS2_PLACEMENT_3D('',#1881,#1445,#1446);
#1264=AXIS2_PLACEMENT_3D('',#1885,#1448,#1449);
#1265=AXIS2_PLACEMENT_3D('',#1887,#1451,#1452);
#1266=AXIS2_PLACEMENT_3D('',#1890,#1453,#1454);
#1267=AXIS2_PLACEMENT_3D('',#1891,#1455,#1456);
#1268=AXIS2_PLACEMENT_3D('',#1892,#1457,#1458);
#1269=AXIS2_PLACEMENT_3D('',#1893,#1459,#1460);
#1270=AXIS2_PLACEMENT_3D('',#1896,#1461,#1462);
#1271=AXIS2_PLACEMENT_3D('',#1899,#1465,#1466);
#1272=AXIS2_PLACEMENT_3D('',#1902,#1467,#1468);
#1273=AXIS2_PLACEMENT_3D('',#1903,#1469,#1470);
#1274=AXIS2_PLACEMENT_3D('',#1904,#1471,#1472);
#1275=AXIS2_PLACEMENT_3D('',#1905,#1473,#1474);
#1276=AXIS2_PLACEMENT_3D('',#1908,#1475,#1476);
#1277=AXIS2_PLACEMENT_3D('',#1911,#1479,#1480);
#1278=AXIS2_PLACEMENT_3D('',#1914,#1481,#1482);
#1279=AXIS2_PLACEMENT_3D('',#1915,#1483,#1484);
#1280=AXIS2_PLACEMENT_3D('',#1916,#1485,#1486);
#1281=AXIS2_PLACEMENT_3D('',#1917,#1487,#1488);
#1282=AXIS2_PLACEMENT_3D('',#1920,#1489,#1490);
#1283=AXIS2_PLACEMENT_3D('',#1923,#1493,#1494);
#1284=AXIS2_PLACEMENT_3D('',#1926,#1495,#1496);
#1285=AXIS2_PLACEMENT_3D('',#1927,#1497,#1498);
#1286=AXIS2_PLACEMENT_3D('',#1928,#1499,#1500);
#1287=AXIS2_PLACEMENT_3D('',#1929,#1501,#1502);
#1288=AXIS2_PLACEMENT_3D('',#1932,#1503,#1504);
#1289=AXIS2_PLACEMENT_3D('',#1935,#1507,#1508);
#1290=AXIS2_PLACEMENT_3D('',#1938,#1509,#1510);
#1291=AXIS2_PLACEMENT_3D('',#1939,#1511,#1512);
#1292=AXIS2_PLACEMENT_3D('',#1940,#1513,#1514);
#1293=AXIS2_PLACEMENT_3D('',#1941,#1515,#1516);
#1294=AXIS2_PLACEMENT_3D('',#1944,#1517,#1518);
#1295=AXIS2_PLACEMENT_3D('',#1947,#1521,#1522);
#1296=AXIS2_PLACEMENT_3D('',#1950,#1523,#1524);
#1297=AXIS2_PLACEMENT_3D('',#1951,#1525,#1526);
#1298=AXIS2_PLACEMENT_3D('',#1952,#1527,#1528);
#1299=AXIS2_PLACEMENT_3D('',#1953,#1529,#1530);
#1300=AXIS2_PLACEMENT_3D('',#1956,#1531,#1532);
#1301=AXIS2_PLACEMENT_3D('',#1959,#1535,#1536);
#1302=AXIS2_PLACEMENT_3D('',#1962,#1537,#1538);
#1303=AXIS2_PLACEMENT_3D('',#1963,#1539,#1540);
#1304=AXIS2_PLACEMENT_3D('',#1964,#1541,#1542);
#1305=AXIS2_PLACEMENT_3D('',#1965,#1543,#1544);
#1306=AXIS2_PLACEMENT_3D('',#1968,#1545,#1546);
#1307=AXIS2_PLACEMENT_3D('',#1971,#1549,#1550);
#1308=AXIS2_PLACEMENT_3D('',#1972,#1551,#1552);
#1309=AXIS2_PLACEMENT_3D('',#1973,#1553,#1554);
#1310=AXIS2_PLACEMENT_3D('',#1974,#1555,#1556);
#1311=AXIS2_PLACEMENT_3D('',#1978,#1558,#1559);
#1312=AXIS2_PLACEMENT_3D('',#1980,#1561,#1562);
#1313=AXIS2_PLACEMENT_3D('',#1984,#1565,#1566);
#1314=AXIS2_PLACEMENT_3D('',#1987,#1568,#1569);
#1315=AXIS2_PLACEMENT_3D('',#1988,#1570,#1571);
#1316=AXIS2_PLACEMENT_3D('',#1992,#1574,#1575);
#1317=AXIS2_PLACEMENT_3D('',#1995,#1577,#1578);
#1318=AXIS2_PLACEMENT_3D('',#1996,#1579,#1580);
#1319=AXIS2_PLACEMENT_3D('',#2000,#1583,#1584);
#1320=AXIS2_PLACEMENT_3D('',#2003,#1586,#1587);
#1321=AXIS2_PLACEMENT_3D('',#2004,#1588,#1589);
#1322=AXIS2_PLACEMENT_3D('',#2008,#1592,#1593);
#1323=AXIS2_PLACEMENT_3D('',#2010,#1594,#1595);
#1324=AXIS2_PLACEMENT_3D('',#2012,#1596,#1597);
#1325=AXIS2_PLACEMENT_3D('',#2014,#1598,#1599);
#1326=AXIS2_PLACEMENT_3D('',#2016,#1600,#1601);
#1327=AXIS2_PLACEMENT_3D('',#2018,#1602,#1603);
#1328=AXIS2_PLACEMENT_3D('',#2020,#1604,#1605);
#1329=AXIS2_PLACEMENT_3D('',#2022,#1606,#1607);
#1330=AXIS2_PLACEMENT_3D('',#2024,#1608,#1609);
#1331=AXIS2_PLACEMENT_3D('',#2026,#1610,#1611);
#1332=AXIS2_PLACEMENT_3D('',#2027,#1612,#1613);
#1333=AXIS2_PLACEMENT_3D('',#2030,#1614,#1615);
#1334=AXIS2_PLACEMENT_3D('',#2032,#1616,#1617);
#1335=AXIS2_PLACEMENT_3D('',#2034,#1618,#1619);
#1336=AXIS2_PLACEMENT_3D('',#2035,#1620,#1621);
#1337=AXIS2_PLACEMENT_3D('',#2036,#1622,#1623);
#1338=AXIS2_PLACEMENT_3D('',#2039,#1624,#1625);
#1339=AXIS2_PLACEMENT_3D('',#2042,#1628,#1629);
#1340=AXIS2_PLACEMENT_3D('',#2045,#1630,#1631);
#1341=AXIS2_PLACEMENT_3D('',#2046,#1632,#1633);
#1342=AXIS2_PLACEMENT_3D('',#2047,#1634,#1635);
#1343=AXIS2_PLACEMENT_3D('',#2048,#1636,#1637);
#1344=AXIS2_PLACEMENT_3D('',#2051,#1638,#1639);
#1345=AXIS2_PLACEMENT_3D('',#2054,#1642,#1643);
#1346=AXIS2_PLACEMENT_3D('',#2057,#1644,#1645);
#1347=AXIS2_PLACEMENT_3D('',#2058,#1646,#1647);
#1348=AXIS2_PLACEMENT_3D('',#2059,#1648,#1649);
#1349=AXIS2_PLACEMENT_3D('',#2060,#1650,#1651);
#1350=AXIS2_PLACEMENT_3D('',#2063,#1652,#1653);
#1351=AXIS2_PLACEMENT_3D('',#2066,#1656,#1657);
#1352=AXIS2_PLACEMENT_3D('',#2068,#1658,#1659);
#1353=AXIS2_PLACEMENT_3D('',#2069,#1660,#1661);
#1354=AXIS2_PLACEMENT_3D('',#2070,#1662,#1663);
#1355=AXIS2_PLACEMENT_3D('',#2071,#1664,#1665);
#1356=AXIS2_PLACEMENT_3D('',#2073,#1666,#1667);
#1357=AXIS2_PLACEMENT_3D('',#2075,#1669,#1670);
#1358=AXIS2_PLACEMENT_3D('',#2077,#1671,#1672);
#1359=AXIS2_PLACEMENT_3D('',#2078,#1673,#1674);
#1360=AXIS2_PLACEMENT_3D('',#2079,#1675,#1676);
#1361=AXIS2_PLACEMENT_3D('',#2081,#1677,#1678);
#1362=AXIS2_PLACEMENT_3D('',#2083,#1680,#1681);
#1363=AXIS2_PLACEMENT_3D('',#2085,#1682,#1683);
#1364=AXIS2_PLACEMENT_3D('',#2086,#1684,#1685);
#1365=AXIS2_PLACEMENT_3D('',#2087,#1686,#1687);
#1366=AXIS2_PLACEMENT_3D('',#2089,#1688,#1689);
#1367=AXIS2_PLACEMENT_3D('',#2091,#1691,#1692);
#1368=AXIS2_PLACEMENT_3D('',#2093,#1693,#1694);
#1369=AXIS2_PLACEMENT_3D('',#2094,#1695,#1696);
#1370=AXIS2_PLACEMENT_3D('',#2095,#1697,#1698);
#1371=AXIS2_PLACEMENT_3D('',#2097,#1699,#1700);
#1372=AXIS2_PLACEMENT_3D('',#2099,#1702,#1703);
#1373=AXIS2_PLACEMENT_3D('',#2101,#1704,#1705);
#1374=AXIS2_PLACEMENT_3D('',#2102,#1706,#1707);
#1375=AXIS2_PLACEMENT_3D('',#2103,#1708,#1709);
#1376=AXIS2_PLACEMENT_3D('',#2106,#1712,#1713);
#1377=AXIS2_PLACEMENT_3D('',#2108,#1715,#1716);
#1378=AXIS2_PLACEMENT_3D('',#2110,#1718,#1719);
#1379=AXIS2_PLACEMENT_3D('',#2112,#1720,#1721);
#1380=AXIS2_PLACEMENT_3D('',#2114,#1722,#1723);
#1381=AXIS2_PLACEMENT_3D('',#2116,#1724,#1725);
#1382=AXIS2_PLACEMENT_3D('',#2118,#1726,#1727);
#1383=AXIS2_PLACEMENT_3D('',#2120,#1728,#1729);
#1384=AXIS2_PLACEMENT_3D('',#2122,#1730,#1731);
#1385=AXIS2_PLACEMENT_3D('',#2124,#1732,#1733);
#1386=AXIS2_PLACEMENT_3D('',#2126,#1734,#1735);
#1387=AXIS2_PLACEMENT_3D('',#2128,#1736,#1737);
#1388=AXIS2_PLACEMENT_3D('',#2129,#1738,#1739);
#1389=AXIS2_PLACEMENT_3D('',#2132,#1741,#1742);
#1390=AXIS2_PLACEMENT_3D('',#2133,#1743,#1744);
#1391=AXIS2_PLACEMENT_3D('',#2136,#1746,#1747);
#1392=AXIS2_PLACEMENT_3D('',#2137,#1748,#1749);
#1393=AXIS2_PLACEMENT_3D('',#2139,#1750,#1751);
#1394=AXIS2_PLACEMENT_3D('',#2142,#1753,#1754);
#1395=AXIS2_PLACEMENT_3D('',#2143,#1755,#1756);
#1396=AXIS2_PLACEMENT_3D('',#2145,#1757,#1758);
#1397=AXIS2_PLACEMENT_3D('',#2147,#1760,#1761);
#1398=AXIS2_PLACEMENT_3D('',#2149,#1763,#1764);
#1399=AXIS2_PLACEMENT_3D('',#2151,#1766,#1767);
#1400=AXIS2_PLACEMENT_3D('',#2154,#1769,#1770);
#1401=AXIS2_PLACEMENT_3D('',#2155,#1771,#1772);
#1402=AXIS2_PLACEMENT_3D('',#2158,#1774,#1775);
#1403=AXIS2_PLACEMENT_3D('',#2159,#1776,#1777);
#1404=AXIS2_PLACEMENT_3D('',#2162,#1779,#1780);
#1405=AXIS2_PLACEMENT_3D('',#2163,#1781,#1782);
#1406=AXIS2_PLACEMENT_3D('',#2166,#1784,#1785);
#1407=AXIS2_PLACEMENT_3D('',#2167,#1786,#1787);
#1408=AXIS2_PLACEMENT_3D('',#2170,#1789,#1790);
#1409=AXIS2_PLACEMENT_3D('',#2171,#1791,#1792);
#1410=AXIS2_PLACEMENT_3D('',#2174,#1794,#1795);
#1411=AXIS2_PLACEMENT_3D('',#2175,#1796,#1797);
#1412=AXIS2_PLACEMENT_3D('',#2178,#1799,#1800);
#1413=AXIS2_PLACEMENT_3D('',#2179,#1801,#1802);
#1414=AXIS2_PLACEMENT_3D('',#2182,#1804,#1805);
#1415=AXIS2_PLACEMENT_3D('',#2183,#1806,#1807);
#1416=AXIS2_PLACEMENT_3D('',#2186,#1809,#1810);
#1417=AXIS2_PLACEMENT_3D('',#2187,#1811,#1812);
#1418=AXIS2_PLACEMENT_3D('',#2190,#1814,#1815);
#1419=AXIS2_PLACEMENT_3D('',#2191,#1816,#1817);
#1420=AXIS2_PLACEMENT_3D('',#2194,#1819,#1820);
#1421=AXIS2_PLACEMENT_3D('',#2195,#1821,#1822);
#1422=AXIS2_PLACEMENT_3D('',#2198,#1824,#1825);
#1423=AXIS2_PLACEMENT_3D('',#2199,#1826,#1827);
#1424=AXIS2_PLACEMENT_3D('',#2201,#1828,#1829);
#1425=AXIS2_PLACEMENT_3D('',#2203,#1831,#1832);
#1426=AXIS2_PLACEMENT_3D('',#2205,#1833,#1834);
#1427=AXIS2_PLACEMENT_3D('',#2207,#1836,#1837);
#1428=AXIS2_PLACEMENT_3D('',#2209,#1839,#1840);
#1429=AXIS2_PLACEMENT_3D('',#2211,#1842,#1843);
#1430=AXIS2_PLACEMENT_3D('',#2213,#1845,#1846);
#1431=AXIS2_PLACEMENT_3D('',#2215,#1848,#1849);
#1432=AXIS2_PLACEMENT_3D('',#2217,#1851,#1852);
#1433=AXIS2_PLACEMENT_3D('',#2219,#1854,#1855);
#1434=AXIS2_PLACEMENT_3D('',#2221,#1857,#1858);
#1435=AXIS2_PLACEMENT_3D('',#2223,#1860,#1861);
#1436=AXIS2_PLACEMENT_3D('',#2226,#1864,#1865);
#1437=AXIS2_PLACEMENT_3D('',#2228,#1867,#1868);
#1438=AXIS2_PLACEMENT_3D('',#2230,#1870,#1871);
#1439=AXIS2_PLACEMENT_3D('',#2231,#1872,#1873);
#1440=AXIS2_PLACEMENT_3D('',#2233,#1875,#1876);
#1441=DIRECTION('axis',(0.,0.,1.));
#1442=DIRECTION('refdir',(1.,0.,0.));
#1443=DIRECTION('center_axis',(-1.,0.,0.));
#1444=DIRECTION('ref_axis',(0.,0.70710678118654,-0.707106781186555));
#1445=DIRECTION('center_axis',(-1.,0.,0.));
#1446=DIRECTION('ref_axis',(0.,1.,0.));
#1447=DIRECTION('',(-1.,0.,0.));
#1448=DIRECTION('center_axis',(1.,0.,0.));
#1449=DIRECTION('ref_axis',(0.,0.,-1.));
#1450=DIRECTION('',(1.,0.,0.));
#1451=DIRECTION('center_axis',(0.,0.,1.));
#1452=DIRECTION('ref_axis',(1.,0.,0.));
#1453=DIRECTION('center_axis',(0.,-1.,0.));
#1454=DIRECTION('ref_axis',(0.,0.,-1.));
#1455=DIRECTION('center_axis',(0.,0.,1.));
#1456=DIRECTION('ref_axis',(-0.707106781186548,-0.707106781186548,0.));
#1457=DIRECTION('center_axis',(0.,0.,-1.));
#1458=DIRECTION('ref_axis',(-0.707106781186547,-0.707106781186547,0.));
#1459=DIRECTION('center_axis',(2.92163953848725E-16,-1.,0.));
#1460=DIRECTION('ref_axis',(0.70710678118654,0.,-0.707106781186555));
#1461=DIRECTION('center_axis',(0.,-1.,0.));
#1462=DIRECTION('ref_axis',(0.,0.,-1.));
#1463=DIRECTION('',(2.92163953848725E-16,-1.,0.));
#1464=DIRECTION('',(-2.92163953848725E-16,1.,0.));
#1465=DIRECTION('center_axis',(0.,0.,1.));
#1466=DIRECTION('ref_axis',(1.,0.,0.));
#1467=DIRECTION('center_axis',(1.,0.,0.));
#1468=DIRECTION('ref_axis',(0.,0.,-1.));
#1469=DIRECTION('center_axis',(0.,0.,-1.));
#1470=DIRECTION('ref_axis',(0.707106781186548,0.707106781186548,0.));
#1471=DIRECTION('center_axis',(0.,0.,1.));
#1472=DIRECTION('ref_axis',(0.707106781186548,0.707106781186548,0.));
#1473=DIRECTION('center_axis',(1.,0.,0.));
#1474=DIRECTION('ref_axis',(0.,0.70710678118654,-0.707106781186555));
#1475=DIRECTION('center_axis',(1.,-2.22044604925036E-14,0.));
#1476=DIRECTION('ref_axis',(0.,0.,-1.));
#1477=DIRECTION('',(1.,0.,0.));
#1478=DIRECTION('',(-1.,0.,0.));
#1479=DIRECTION('center_axis',(0.,0.,1.));
#1480=DIRECTION('ref_axis',(1.,0.,0.));
#1481=DIRECTION('center_axis',(0.,1.,0.));
#1482=DIRECTION('ref_axis',(0.,0.,-1.));
#1483=DIRECTION('center_axis',(0.,0.,-1.));
#1484=DIRECTION('ref_axis',(-0.707106781186548,0.707106781186547,0.));
#1485=DIRECTION('center_axis',(0.,0.,1.));
#1486=DIRECTION('ref_axis',(-0.707106781186548,0.707106781186547,0.));
#1487=DIRECTION('center_axis',(1.23259516440783E-32,1.,0.));
#1488=DIRECTION('ref_axis',(-0.707106781186548,0.,-0.707106781186547));
#1489=DIRECTION('center_axis',(0.,1.,0.));
#1490=DIRECTION('ref_axis',(0.,0.,-1.));
#1491=DIRECTION('',(1.23259516440783E-32,1.,0.));
#1492=DIRECTION('',(-1.23259516440783E-32,-1.,0.));
#1493=DIRECTION('center_axis',(0.,0.,1.));
#1494=DIRECTION('ref_axis',(1.,0.,0.));
#1495=DIRECTION('center_axis',(-1.,1.38777878078146E-15,0.));
#1496=DIRECTION('ref_axis',(0.,0.,-1.));
#1497=DIRECTION('center_axis',(0.,0.,-1.));
#1498=DIRECTION('ref_axis',(-0.707106781186547,-0.707106781186548,0.));
#1499=DIRECTION('center_axis',(0.,0.,1.));
#1500=DIRECTION('ref_axis',(-0.707106781186547,-0.707106781186548,0.));
#1501=DIRECTION('center_axis',(-1.,2.92163953848725E-16,0.));
#1502=DIRECTION('ref_axis',(0.,-0.707106781186548,-0.707106781186547));
#1503=DIRECTION('center_axis',(-1.,5.55111512312578E-15,0.));
#1504=DIRECTION('ref_axis',(0.,0.,-1.));
#1505=DIRECTION('',(-1.,2.92163953848725E-16,0.));
#1506=DIRECTION('',(1.,-2.92163953848725E-16,0.));
#1507=DIRECTION('center_axis',(0.,0.,1.));
#1508=DIRECTION('ref_axis',(1.,0.,0.));
#1509=DIRECTION('center_axis',(0.,1.,0.));
#1510=DIRECTION('ref_axis',(0.,0.,-1.));
#1511=DIRECTION('center_axis',(0.,0.,1.));
#1512=DIRECTION('ref_axis',(0.707106781186548,0.707106781186548,0.));
#1513=DIRECTION('center_axis',(0.,0.,-1.));
#1514=DIRECTION('ref_axis',(0.707106781186548,0.707106781186548,0.));
#1515=DIRECTION('center_axis',(0.,1.,0.));
#1516=DIRECTION('ref_axis',(-0.707106781186548,0.,-0.707106781186547));
#1517=DIRECTION('center_axis',(-2.77555756156289E-15,1.,0.));
#1518=DIRECTION('ref_axis',(0.,0.,-1.));
#1519=DIRECTION('',(0.,1.,0.));
#1520=DIRECTION('',(0.,-1.,0.));
#1521=DIRECTION('center_axis',(0.,0.,1.));
#1522=DIRECTION('ref_axis',(1.,0.,0.));
#1523=DIRECTION('center_axis',(-1.,0.,0.));
#1524=DIRECTION('ref_axis',(0.,0.,-1.));
#1525=DIRECTION('center_axis',(0.,0.,-1.));
#1526=DIRECTION('ref_axis',(-0.707106781186548,-0.707106781186547,0.));
#1527=DIRECTION('center_axis',(0.,0.,1.));
#1528=DIRECTION('ref_axis',(-0.707106781186548,-0.707106781186547,0.));
#1529=DIRECTION('center_axis',(1.,0.,0.));
#1530=DIRECTION('ref_axis',(0.,-0.707106781186548,-0.707106781186547));
#1531=DIRECTION('center_axis',(-1.,0.,0.));
#1532=DIRECTION('ref_axis',(0.,0.,-1.));
#1533=DIRECTION('',(-1.,0.,0.));
#1534=DIRECTION('',(1.,0.,0.));
#1535=DIRECTION('center_axis',(0.,0.,1.));
#1536=DIRECTION('ref_axis',(1.,0.,0.));
#1537=DIRECTION('center_axis',(0.,-1.,0.));
#1538=DIRECTION('ref_axis',(0.,0.,-1.));
#1539=DIRECTION('center_axis',(0.,0.,-1.));
#1540=DIRECTION('ref_axis',(0.707106781186547,-0.707106781186548,0.));
#1541=DIRECTION('center_axis',(0.,0.,1.));
#1542=DIRECTION('ref_axis',(0.707106781186547,-0.707106781186548,0.));
#1543=DIRECTION('center_axis',(0.,1.,0.));
#1544=DIRECTION('ref_axis',(0.70710678118654,0.,-0.707106781186555));
#1545=DIRECTION('center_axis',(0.,-1.,0.));
#1546=DIRECTION('ref_axis',(0.,0.,-1.));
#1547=DIRECTION('',(0.,-1.,0.));
#1548=DIRECTION('',(0.,1.,0.));
#1549=DIRECTION('center_axis',(0.,0.,1.));
#1550=DIRECTION('ref_axis',(1.,0.,0.));
#1551=DIRECTION('center_axis',(0.,0.,-1.));
#1552=DIRECTION('ref_axis',(0.707106781186548,0.707106781186548,0.));
#1553=DIRECTION('center_axis',(0.,0.,1.));
#1554=DIRECTION('ref_axis',(0.707106781186548,0.707106781186548,0.));
#1555=DIRECTION('center_axis',(0.,0.,1.));
#1556=DIRECTION('ref_axis',(1.,-2.22044604925032E-15,0.));
#1557=DIRECTION('',(0.,0.,1.));
#1558=DIRECTION('center_axis',(0.,0.,-1.));
#1559=DIRECTION('ref_axis',(0.707106781186548,0.707106781186548,0.));
#1560=DIRECTION('',(0.,0.,1.));
#1561=DIRECTION('center_axis',(-1.,0.,0.));
#1562=DIRECTION('ref_axis',(0.,-1.,0.));
#1563=DIRECTION('',(0.,0.,-1.));
#1564=DIRECTION('',(0.,-1.,0.));
#1565=DIRECTION('center_axis',(0.,0.,1.));
#1566=DIRECTION('ref_axis',(-0.707106781186548,-0.707106781186547,0.));
#1567=DIRECTION('',(0.,0.,1.));
#1568=DIRECTION('center_axis',(0.,0.,1.));
#1569=DIRECTION('ref_axis',(-0.707106781186548,-0.707106781186547,0.));
#1570=DIRECTION('center_axis',(0.,-1.,0.));
#1571=DIRECTION('ref_axis',(1.,0.,0.));
#1572=DIRECTION('',(0.,0.,-1.));
#1573=DIRECTION('',(1.,0.,0.));
#1574=DIRECTION('center_axis',(0.,0.,1.));
#1575=DIRECTION('ref_axis',(0.707106781186546,-0.707106781186549,0.));
#1576=DIRECTION('',(0.,0.,1.));
#1577=DIRECTION('center_axis',(0.,0.,1.));
#1578=DIRECTION('ref_axis',(0.707106781186547,-0.707106781186548,0.));
#1579=DIRECTION('center_axis',(1.,0.,0.));
#1580=DIRECTION('ref_axis',(0.,1.,0.));
#1581=DIRECTION('',(0.,0.,-1.));
#1582=DIRECTION('',(0.,1.,0.));
#1583=DIRECTION('center_axis',(0.,0.,1.));
#1584=DIRECTION('ref_axis',(0.707106781186548,0.707106781186548,0.));
#1585=DIRECTION('',(0.,0.,1.));
#1586=DIRECTION('center_axis',(0.,0.,1.));
#1587=DIRECTION('ref_axis',(0.707106781186548,0.707106781186548,0.));
#1588=DIRECTION('center_axis',(0.,1.,0.));
#1589=DIRECTION('ref_axis',(-1.,0.,0.));
#1590=DIRECTION('',(0.,0.,1.));
#1591=DIRECTION('',(-1.,0.,0.));
#1592=DIRECTION('center_axis',(0.,0.,1.));
#1593=DIRECTION('ref_axis',(1.,0.,0.));
#1594=DIRECTION('center_axis',(0.,0.,-1.));
#1595=DIRECTION('ref_axis',(1.,0.,0.));
#1596=DIRECTION('center_axis',(0.,0.,-1.));
#1597=DIRECTION('ref_axis',(1.,0.,0.));
#1598=DIRECTION('center_axis',(0.,0.,-1.));
#1599=DIRECTION('ref_axis',(1.,0.,0.));
#1600=DIRECTION('center_axis',(0.,0.,-1.));
#1601=DIRECTION('ref_axis',(1.,0.,0.));
#1602=DIRECTION('center_axis',(0.,0.,-1.));
#1603=DIRECTION('ref_axis',(1.,0.,0.));
#1604=DIRECTION('center_axis',(0.,0.,-1.));
#1605=DIRECTION('ref_axis',(1.,0.,0.));
#1606=DIRECTION('center_axis',(0.,0.,-1.));
#1607=DIRECTION('ref_axis',(1.,0.,0.));
#1608=DIRECTION('center_axis',(0.,0.,-1.));
#1609=DIRECTION('ref_axis',(1.,0.,0.));
#1610=DIRECTION('center_axis',(0.,0.,-1.));
#1611=DIRECTION('ref_axis',(1.,0.,0.));
#1612=DIRECTION('center_axis',(0.,0.,-1.));
#1613=DIRECTION('ref_axis',(-1.,0.,0.));
#1614=DIRECTION('center_axis',(-1.,1.38777878078146E-15,0.));
#1615=DIRECTION('ref_axis',(-1.38777878078146E-15,-1.,0.));
#1616=DIRECTION('center_axis',(0.,0.,-1.));
#1617=DIRECTION('ref_axis',(-0.707106781186547,-0.707106781186548,0.));
#1618=DIRECTION('center_axis',(0.,-1.,0.));
#1619=DIRECTION('ref_axis',(0.,0.,1.));
#1620=DIRECTION('center_axis',(0.,0.,1.));
#1621=DIRECTION('ref_axis',(-0.707106781186547,-0.707106781186548,0.));
#1622=DIRECTION('center_axis',(-1.23259516440783E-32,-1.,0.));
#1623=DIRECTION('ref_axis',(-0.707106781186548,0.,0.707106781186548));
#1624=DIRECTION('center_axis',(0.,-1.,0.));
#1625=DIRECTION('ref_axis',(0.,0.,1.));
#1626=DIRECTION('',(-1.23259516440783E-32,-1.,0.));
#1627=DIRECTION('',(1.23259516440783E-32,1.,0.));
#1628=DIRECTION('center_axis',(0.,0.,-1.));
#1629=DIRECTION('ref_axis',(-1.,0.,0.));
#1630=DIRECTION('center_axis',(-1.,0.,0.));
#1631=DIRECTION('ref_axis',(0.,0.,1.));
#1632=DIRECTION('center_axis',(0.,0.,1.));
#1633=DIRECTION('ref_axis',(-0.707106781186548,0.707106781186547,0.));
#1634=DIRECTION('center_axis',(0.,0.,-1.));
#1635=DIRECTION('ref_axis',(-0.707106781186548,0.707106781186547,0.));
#1636=DIRECTION('center_axis',(-1.,0.,0.));
#1637=DIRECTION('ref_axis',(0.,0.70710678118654,0.707106781186555));
#1638=DIRECTION('center_axis',(-1.,0.,0.));
#1639=DIRECTION('ref_axis',(0.,0.,1.));
#1640=DIRECTION('',(-1.,0.,0.));
#1641=DIRECTION('',(1.,0.,0.));
#1642=DIRECTION('center_axis',(0.,0.,-1.));
#1643=DIRECTION('ref_axis',(-1.,0.,0.));
#1644=DIRECTION('center_axis',(0.,1.,0.));
#1645=DIRECTION('ref_axis',(0.,0.,1.));
#1646=DIRECTION('center_axis',(0.,0.,1.));
#1647=DIRECTION('ref_axis',(0.707106781186548,0.707106781186548,0.));
#1648=DIRECTION('center_axis',(0.,0.,-1.));
#1649=DIRECTION('ref_axis',(0.707106781186548,0.707106781186548,0.));
#1650=DIRECTION('center_axis',(-2.92163953848725E-16,1.,0.));
#1651=DIRECTION('ref_axis',(0.70710678118654,0.,0.707106781186555));
#1652=DIRECTION('center_axis',(0.,1.,0.));
#1653=DIRECTION('ref_axis',(0.,0.,1.));
#1654=DIRECTION('',(-2.92163953848725E-16,1.,0.));
#1655=DIRECTION('',(2.92163953848725E-16,-1.,0.));
#1656=DIRECTION('center_axis',(0.,0.,-1.));
#1657=DIRECTION('ref_axis',(-1.,0.,0.));
#1658=DIRECTION('center_axis',(-1.,0.,0.));
#1659=DIRECTION('ref_axis',(0.,0.,1.));
#1660=DIRECTION('center_axis',(0.,0.,-1.));
#1661=DIRECTION('ref_axis',(-0.707106781186548,-0.707106781186548,0.));
#1662=DIRECTION('center_axis',(0.,0.,1.));
#1663=DIRECTION('ref_axis',(-0.707106781186547,-0.707106781186547,0.));
#1664=DIRECTION('center_axis',(-1.,0.,0.));
#1665=DIRECTION('ref_axis',(0.,0.70710678118654,0.707106781186555));
#1666=DIRECTION('center_axis',(-1.,0.,0.));
#1667=DIRECTION('ref_axis',(0.,0.,1.));
#1668=DIRECTION('',(1.,0.,0.));
#1669=DIRECTION('center_axis',(0.,0.,-1.));
#1670=DIRECTION('ref_axis',(-1.,0.,0.));
#1671=DIRECTION('center_axis',(0.,1.,0.));
#1672=DIRECTION('ref_axis',(0.,0.,1.));
#1673=DIRECTION('center_axis',(0.,0.,-1.));
#1674=DIRECTION('ref_axis',(0.707106781186548,0.707106781186548,0.));
#1675=DIRECTION('center_axis',(0.,1.,0.));
#1676=DIRECTION('ref_axis',(0.70710678118654,0.,0.707106781186555));
#1677=DIRECTION('center_axis',(4.16333634234443E-15,1.,0.));
#1678=DIRECTION('ref_axis',(0.,0.,1.));
#1679=DIRECTION('',(0.,-1.,0.));
#1680=DIRECTION('center_axis',(0.,0.,-1.));
#1681=DIRECTION('ref_axis',(-1.,0.,0.));
#1682=DIRECTION('center_axis',(1.,0.,0.));
#1683=DIRECTION('ref_axis',(0.,0.,1.));
#1684=DIRECTION('center_axis',(0.,0.,-1.));
#1685=DIRECTION('ref_axis',(0.707106781186547,-0.707106781186548,0.));
#1686=DIRECTION('center_axis',(1.,0.,0.));
#1687=DIRECTION('ref_axis',(0.,-0.707106781186548,0.707106781186548));
#1688=DIRECTION('center_axis',(1.,0.,0.));
#1689=DIRECTION('ref_axis',(0.,0.,1.));
#1690=DIRECTION('',(-1.,0.,0.));
#1691=DIRECTION('center_axis',(0.,0.,-1.));
#1692=DIRECTION('ref_axis',(-1.,0.,0.));
#1693=DIRECTION('center_axis',(0.,-1.,0.));
#1694=DIRECTION('ref_axis',(0.,0.,1.));
#1695=DIRECTION('center_axis',(0.,0.,-1.));
#1696=DIRECTION('ref_axis',(-0.707106781186548,-0.707106781186547,0.));
#1697=DIRECTION('center_axis',(0.,-1.,0.));
#1698=DIRECTION('ref_axis',(-0.707106781186548,0.,0.707106781186548));
#1699=DIRECTION('center_axis',(0.,-1.,0.));
#1700=DIRECTION('ref_axis',(0.,0.,1.));
#1701=DIRECTION('',(0.,1.,0.));
#1702=DIRECTION('center_axis',(0.,0.,-1.));
#1703=DIRECTION('ref_axis',(-1.,0.,0.));
#1704=DIRECTION('center_axis',(1.,5.55111512312578E-15,0.));
#1705=DIRECTION('ref_axis',(0.,0.,1.));
#1706=DIRECTION('center_axis',(0.,0.,1.));
#1707=DIRECTION('ref_axis',(0.707106781186548,0.707106781186548,0.));
#1708=DIRECTION('center_axis',(1.,-2.92163953848725E-16,0.));
#1709=DIRECTION('ref_axis',(0.,-0.707106781186548,0.707106781186548));
#1710=DIRECTION('',(-1.,2.92163953848725E-16,0.));
#1711=DIRECTION('',(1.,-2.92163953848725E-16,0.));
#1712=DIRECTION('center_axis',(-2.92163953848725E-16,-1.,0.));
#1713=DIRECTION('ref_axis',(1.,-2.92163953848725E-16,0.));
#1714=DIRECTION('',(0.,0.,1.));
#1715=DIRECTION('center_axis',(0.,0.,1.));
#1716=DIRECTION('ref_axis',(-0.707106781186549,-0.707106781186546,0.));
#1717=DIRECTION('',(0.,0.,-1.));
#1718=DIRECTION('center_axis',(0.,0.,1.));
#1719=DIRECTION('ref_axis',(1.,0.,0.));
#1720=DIRECTION('center_axis',(0.,0.,1.));
#1721=DIRECTION('ref_axis',(1.,0.,0.));
#1722=DIRECTION('center_axis',(0.,0.,1.));
#1723=DIRECTION('ref_axis',(1.,0.,0.));
#1724=DIRECTION('center_axis',(0.,0.,1.));
#1725=DIRECTION('ref_axis',(1.,0.,0.));
#1726=DIRECTION('center_axis',(0.,0.,1.));
#1727=DIRECTION('ref_axis',(1.,0.,0.));
#1728=DIRECTION('center_axis',(0.,0.,1.));
#1729=DIRECTION('ref_axis',(1.,0.,0.));
#1730=DIRECTION('center_axis',(0.,0.,1.));
#1731=DIRECTION('ref_axis',(1.,0.,0.));
#1732=DIRECTION('center_axis',(0.,0.,1.));
#1733=DIRECTION('ref_axis',(1.,0.,0.));
#1734=DIRECTION('center_axis',(0.,0.,1.));
#1735=DIRECTION('ref_axis',(1.,0.,0.));
#1736=DIRECTION('center_axis',(0.,0.,1.));
#1737=DIRECTION('ref_axis',(1.,0.,0.));
#1738=DIRECTION('center_axis',(0.,0.,1.));
#1739=DIRECTION('ref_axis',(1.,0.,0.));
#1740=DIRECTION('',(0.707106781186548,8.65956056235494E-17,-0.707106781186548));
#1741=DIRECTION('center_axis',(0.,0.,-1.));
#1742=DIRECTION('ref_axis',(1.,0.,0.));
#1743=DIRECTION('center_axis',(0.,0.,1.));
#1744=DIRECTION('ref_axis',(1.,0.,0.));
#1745=DIRECTION('',(0.,0.,-1.));
#1746=DIRECTION('center_axis',(0.,0.,1.));
#1747=DIRECTION('ref_axis',(1.,0.,0.));
#1748=DIRECTION('center_axis',(0.,0.,-1.));
#1749=DIRECTION('ref_axis',(1.,0.,0.));
#1750=DIRECTION('center_axis',(0.,6.47499960504256E-16,-1.));
#1751=DIRECTION('ref_axis',(1.,0.,0.));
#1752=DIRECTION('',(0.38268343236508,-4.68652040532617E-17,0.923879532511291));
#1753=DIRECTION('center_axis',(0.,0.,1.));
#1754=DIRECTION('ref_axis',(1.,0.,0.));
#1755=DIRECTION('center_axis',(0.,0.,1.));
#1756=DIRECTION('ref_axis',(1.,0.,0.));
#1757=DIRECTION('center_axis',(0.,0.,-1.));
#1758=DIRECTION('ref_axis',(1.,0.,0.));
#1759=DIRECTION('',(0.,0.,-1.));
#1760=DIRECTION('center_axis',(0.,0.,-1.));
#1761=DIRECTION('ref_axis',(1.,0.,0.));
#1762=DIRECTION('',(-0.70710678118654,-8.65956056235484E-17,-0.707106781186555));
#1763=DIRECTION('center_axis',(0.,0.,1.));
#1764=DIRECTION('ref_axis',(1.,0.,0.));
#1765=DIRECTION('',(0.70710678118654,8.65956056235484E-17,-0.707106781186555));
#1766=DIRECTION('center_axis',(0.,0.,1.));
#1767=DIRECTION('ref_axis',(1.,0.,0.));
#1768=DIRECTION('',(0.707106781186548,8.65956056235493E-17,-0.707106781186548));
#1769=DIRECTION('center_axis',(0.,0.,-1.));
#1770=DIRECTION('ref_axis',(1.,0.,0.));
#1771=DIRECTION('center_axis',(0.,0.,1.));
#1772=DIRECTION('ref_axis',(1.,0.,0.));
#1773=DIRECTION('',(0.,0.,-1.));
#1774=DIRECTION('center_axis',(0.,0.,1.));
#1775=DIRECTION('ref_axis',(1.,0.,0.));
#1776=DIRECTION('center_axis',(0.,0.,1.));
#1777=DIRECTION('ref_axis',(1.,0.,0.));
#1778=DIRECTION('',(0.707106781186548,8.65956056235493E-17,-0.707106781186548));
#1779=DIRECTION('center_axis',(0.,0.,-1.));
#1780=DIRECTION('ref_axis',(1.,0.,0.));
#1781=DIRECTION('center_axis',(0.,0.,1.));
#1782=DIRECTION('ref_axis',(1.,0.,0.));
#1783=DIRECTION('',(0.,0.,-1.));
#1784=DIRECTION('center_axis',(0.,0.,1.));
#1785=DIRECTION('ref_axis',(1.,0.,0.));
#1786=DIRECTION('center_axis',(0.,0.,1.));
#1787=DIRECTION('ref_axis',(1.,0.,0.));
#1788=DIRECTION('',(0.70710678118654,8.65956056235484E-17,-0.707106781186555));
#1789=DIRECTION('center_axis',(0.,0.,-1.));
#1790=DIRECTION('ref_axis',(1.,0.,0.));
#1791=DIRECTION('center_axis',(0.,0.,1.));
#1792=DIRECTION('ref_axis',(1.,0.,0.));
#1793=DIRECTION('',(0.,0.,-1.));
#1794=DIRECTION('center_axis',(0.,0.,1.));
#1795=DIRECTION('ref_axis',(1.,0.,0.));
#1796=DIRECTION('center_axis',(0.,0.,1.));
#1797=DIRECTION('ref_axis',(1.,0.,0.));
#1798=DIRECTION('',(0.70710678118654,8.65956056235484E-17,-0.707106781186555));
#1799=DIRECTION('center_axis',(0.,0.,-1.));
#1800=DIRECTION('ref_axis',(1.,0.,0.));
#1801=DIRECTION('center_axis',(0.,0.,1.));
#1802=DIRECTION('ref_axis',(1.,0.,0.));
#1803=DIRECTION('',(0.,0.,-1.));
#1804=DIRECTION('center_axis',(0.,0.,1.));
#1805=DIRECTION('ref_axis',(1.,0.,0.));
#1806=DIRECTION('center_axis',(0.,0.,1.));
#1807=DIRECTION('ref_axis',(1.,0.,0.));
#1808=DIRECTION('',(0.70710678118654,8.65956056235484E-17,-0.707106781186555));
#1809=DIRECTION('center_axis',(0.,0.,-1.));
#1810=DIRECTION('ref_axis',(1.,0.,0.));
#1811=DIRECTION('center_axis',(0.,0.,1.));
#1812=DIRECTION('ref_axis',(1.,0.,0.));
#1813=DIRECTION('',(0.,0.,-1.));
#1814=DIRECTION('center_axis',(0.,0.,1.));
#1815=DIRECTION('ref_axis',(1.,0.,0.));
#1816=DIRECTION('center_axis',(0.,0.,1.));
#1817=DIRECTION('ref_axis',(1.,0.,0.));
#1818=DIRECTION('',(0.70710678118654,8.65956056235484E-17,-0.707106781186555));
#1819=DIRECTION('center_axis',(0.,0.,-1.));
#1820=DIRECTION('ref_axis',(1.,0.,0.));
#1821=DIRECTION('center_axis',(0.,0.,1.));
#1822=DIRECTION('ref_axis',(1.,0.,0.));
#1823=DIRECTION('',(0.,0.,-1.));
#1824=DIRECTION('center_axis',(0.,0.,1.));
#1825=DIRECTION('ref_axis',(1.,0.,0.));
#1826=DIRECTION('center_axis',(0.,0.,-1.));
#1827=DIRECTION('ref_axis',(1.,0.,0.));
#1828=DIRECTION('center_axis',(0.,0.,1.));
#1829=DIRECTION('ref_axis',(1.,0.,0.));
#1830=DIRECTION('',(-0.707106781186548,-8.65956056235493E-17,-0.707106781186547));
#1831=DIRECTION('center_axis',(0.,0.,1.));
#1832=DIRECTION('ref_axis',(1.,0.,0.));
#1833=DIRECTION('center_axis',(0.,0.,-1.));
#1834=DIRECTION('ref_axis',(1.,0.,0.));
#1835=DIRECTION('',(0.,0.,-1.));
#1836=DIRECTION('center_axis',(0.,0.,1.));
#1837=DIRECTION('ref_axis',(1.,0.,0.));
#1838=DIRECTION('',(0.707106781186548,8.65956056235493E-17,-0.707106781186548));
#1839=DIRECTION('center_axis',(0.,0.,-1.));
#1840=DIRECTION('ref_axis',(1.,0.,0.));
#1841=DIRECTION('',(-0.70710678118654,-8.65956056235484E-17,-0.707106781186555));
#1842=DIRECTION('center_axis',(0.,0.,-1.));
#1843=DIRECTION('ref_axis',(1.,0.,0.));
#1844=DIRECTION('',(-0.70710678118654,-8.65956056235484E-17,-0.707106781186555));
#1845=DIRECTION('center_axis',(0.,0.,-1.));
#1846=DIRECTION('ref_axis',(1.,0.,0.));
#1847=DIRECTION('',(-0.707106781186548,-8.65956056235494E-17,-0.707106781186547));
#1848=DIRECTION('center_axis',(0.,0.,-1.));
#1849=DIRECTION('ref_axis',(1.,0.,0.));
#1850=DIRECTION('',(-0.707106781186548,-8.65956056235494E-17,-0.707106781186547));
#1851=DIRECTION('center_axis',(0.,0.,-1.));
#1852=DIRECTION('ref_axis',(1.,0.,0.));
#1853=DIRECTION('',(-0.70710678118654,-8.65956056235484E-17,-0.707106781186555));
#1854=DIRECTION('center_axis',(0.,0.,-1.));
#1855=DIRECTION('ref_axis',(1.,0.,0.));
#1856=DIRECTION('',(-0.70710678118654,-8.65956056235484E-17,-0.707106781186555));
#1857=DIRECTION('center_axis',(0.,0.,-1.));
#1858=DIRECTION('ref_axis',(1.,0.,0.));
#1859=DIRECTION('',(-0.707106781186548,-8.65956056235494E-17,-0.707106781186547));
#1860=DIRECTION('center_axis',(0.,0.,1.));
#1861=DIRECTION('ref_axis',(0.707106781186548,0.707106781186548,0.));
#1862=DIRECTION('',(0.,0.,1.));
#1863=DIRECTION('',(0.,0.,-1.));
#1864=DIRECTION('center_axis',(0.,1.,0.));
#1865=DIRECTION('ref_axis',(-1.,0.,0.));
#1866=DIRECTION('',(0.,0.,-1.));
#1867=DIRECTION('center_axis',(0.,0.,1.));
#1868=DIRECTION('ref_axis',(-0.707106781186549,0.707106781186546,0.));
#1869=DIRECTION('',(0.,0.,1.));
#1870=DIRECTION('center_axis',(-1.,1.23259516440783E-32,0.));
#1871=DIRECTION('ref_axis',(-1.23259516440783E-32,-1.,0.));
#1872=DIRECTION('center_axis',(1.,2.92163953848725E-16,0.));
#1873=DIRECTION('ref_axis',(-2.92163953848725E-16,1.,0.));
#1874=DIRECTION('',(0.,0.,1.));
#1875=DIRECTION('center_axis',(0.,0.,1.));
#1876=DIRECTION('ref_axis',(-1.,-8.88178419700117E-15,0.));
#1877=CARTESIAN_POINT('',(0.,0.,0.));
#1878=CARTESIAN_POINT('Origin',(28.65,21.9,0.1));
#1879=CARTESIAN_POINT('',(37.7,22.,0.1));
#1880=CARTESIAN_POINT('',(37.7,21.9,0.));
#1881=CARTESIAN_POINT('Origin',(37.7,21.9,0.1));
#1882=CARTESIAN_POINT('',(23.,21.9,0.));
#1883=CARTESIAN_POINT('',(28.65,21.9,0.));
#1884=CARTESIAN_POINT('',(23.,22.,0.1));
#1885=CARTESIAN_POINT('Origin',(23.,21.9,0.1));
#1886=CARTESIAN_POINT('',(28.65,22.,0.1));
#1887=CARTESIAN_POINT('Origin',(23.,23.,0.1));
#1888=CARTESIAN_POINT('',(21.9,23.,0.));
#1889=CARTESIAN_POINT('',(22.,23.,0.1));
#1890=CARTESIAN_POINT('Origin',(21.9,23.,0.1));
#1891=CARTESIAN_POINT('Origin',(23.,23.,0.1));
#1892=CARTESIAN_POINT('Origin',(23.,23.,0.));
#1893=CARTESIAN_POINT('Origin',(21.9,21.05,0.1));
#1894=CARTESIAN_POINT('',(21.9,37.7,0.));
#1895=CARTESIAN_POINT('',(22.,37.7,0.1));
#1896=CARTESIAN_POINT('Origin',(21.9,37.7,0.1));
#1897=CARTESIAN_POINT('',(22.,21.05,0.1));
#1898=CARTESIAN_POINT('',(21.9,21.05,0.));
#1899=CARTESIAN_POINT('Origin',(21.5,37.7,0.1));
#1900=CARTESIAN_POINT('',(21.5,38.1,0.));
#1901=CARTESIAN_POINT('',(21.5,38.2,0.1));
#1902=CARTESIAN_POINT('Origin',(21.5,38.1,0.1));
#1903=CARTESIAN_POINT('Origin',(21.5,37.7,0.1));
#1904=CARTESIAN_POINT('Origin',(21.5,37.7,0.));
#1905=CARTESIAN_POINT('Origin',(20.55,38.1,0.1));
#1906=CARTESIAN_POINT('',(0.499999999999998,38.1,0.));
#1907=CARTESIAN_POINT('',(0.5,38.2,0.1));
#1908=CARTESIAN_POINT('Origin',(0.499999999999998,38.1,0.1));
#1909=CARTESIAN_POINT('',(20.55,38.2,0.1));
#1910=CARTESIAN_POINT('',(20.55,38.1,0.));
#1911=CARTESIAN_POINT('Origin',(0.5,37.7,0.1));
#1912=CARTESIAN_POINT('',(0.1,37.7,0.));
#1913=CARTESIAN_POINT('',(0.,37.7,0.1));
#1914=CARTESIAN_POINT('Origin',(0.1,37.7,0.1));
#1915=CARTESIAN_POINT('Origin',(0.5,37.7,0.1));
#1916=CARTESIAN_POINT('Origin',(0.5,37.7,0.));
#1917=CARTESIAN_POINT('Origin',(0.1,28.65,0.1));
#1918=CARTESIAN_POINT('',(0.1,6.3,0.));
#1919=CARTESIAN_POINT('',(0.,6.3,0.1));
#1920=CARTESIAN_POINT('Origin',(0.1,6.3,0.1));
#1921=CARTESIAN_POINT('',(0.,28.65,0.1));
#1922=CARTESIAN_POINT('',(0.1,28.65,0.));
#1923=CARTESIAN_POINT('Origin',(0.5,6.3,0.1));
#1924=CARTESIAN_POINT('',(0.5,5.9,0.));
#1925=CARTESIAN_POINT('',(0.5,5.8,0.1));
#1926=CARTESIAN_POINT('Origin',(0.5,5.9,0.1));
#1927=CARTESIAN_POINT('Origin',(0.5,6.3,0.1));
#1928=CARTESIAN_POINT('Origin',(0.5,6.3,0.));
#1929=CARTESIAN_POINT('Origin',(9.55,5.9,0.1));
#1930=CARTESIAN_POINT('',(3.8,5.9,0.));
#1931=CARTESIAN_POINT('',(3.8,5.8,0.1));
#1932=CARTESIAN_POINT('Origin',(3.8,5.9,0.1));
#1933=CARTESIAN_POINT('',(9.55,5.8,0.1));
#1934=CARTESIAN_POINT('',(9.55,5.9,0.));
#1935=CARTESIAN_POINT('Origin',(3.80000000000001,3.80000000000001,0.1));
#1936=CARTESIAN_POINT('',(5.9,3.8,0.));
#1937=CARTESIAN_POINT('',(5.8,3.8,0.1));
#1938=CARTESIAN_POINT('Origin',(5.9,3.8,0.1));
#1939=CARTESIAN_POINT('Origin',(3.80000000000001,3.80000000000001,0.1));
#1940=CARTESIAN_POINT('Origin',(3.80000000000001,3.80000000000001,0.));
#1941=CARTESIAN_POINT('Origin',(5.9,11.45,0.1));
#1942=CARTESIAN_POINT('',(5.9,0.5,0.));
#1943=CARTESIAN_POINT('',(5.8,0.5,0.1));
#1944=CARTESIAN_POINT('Origin',(5.9,0.5,0.1));
#1945=CARTESIAN_POINT('',(5.8,11.45,0.1));
#1946=CARTESIAN_POINT('',(5.9,11.45,0.));
#1947=CARTESIAN_POINT('Origin',(6.3,0.5,0.1));
#1948=CARTESIAN_POINT('',(6.3,0.1,0.));
#1949=CARTESIAN_POINT('',(6.3,0.,0.1));
#1950=CARTESIAN_POINT('Origin',(6.3,0.1,0.1));
#1951=CARTESIAN_POINT('Origin',(6.3,0.5,0.1));
#1952=CARTESIAN_POINT('Origin',(6.3,0.5,0.));
#1953=CARTESIAN_POINT('Origin',(12.45,0.1,0.1));
#1954=CARTESIAN_POINT('',(37.7,0.1,0.));
#1955=CARTESIAN_POINT('',(37.7,0.,0.1));
#1956=CARTESIAN_POINT('Origin',(37.7,0.1,0.1));
#1957=CARTESIAN_POINT('',(12.45,0.,0.1));
#1958=CARTESIAN_POINT('',(12.45,0.1,0.));
#1959=CARTESIAN_POINT('Origin',(37.7,0.5,0.1));
#1960=CARTESIAN_POINT('',(38.1,0.5,0.));
#1961=CARTESIAN_POINT('',(38.2,0.5,0.1));
#1962=CARTESIAN_POINT('Origin',(38.1,0.5,0.1));
#1963=CARTESIAN_POINT('Origin',(37.7,0.5,0.1));
#1964=CARTESIAN_POINT('Origin',(37.7,0.5,0.));
#1965=CARTESIAN_POINT('Origin',(38.1,9.55,0.1));
#1966=CARTESIAN_POINT('',(38.1,21.5,0.));
#1967=CARTESIAN_POINT('',(38.2,21.5,0.1));
#1968=CARTESIAN_POINT('Origin',(38.1,21.5,0.1));
#1969=CARTESIAN_POINT('',(38.2,9.55,0.1));
#1970=CARTESIAN_POINT('',(38.1,9.55,0.));
#1971=CARTESIAN_POINT('Origin',(37.7,21.5,0.1));
#1972=CARTESIAN_POINT('Origin',(37.7,21.5,0.1));
#1973=CARTESIAN_POINT('Origin',(37.7,21.5,0.));
#1974=CARTESIAN_POINT('Origin',(3.80000000000001,3.80000000000001,0.));
#1975=CARTESIAN_POINT('',(5.8,3.8,2.6));
#1976=CARTESIAN_POINT('',(5.8,3.8,0.));
#1977=CARTESIAN_POINT('',(3.8,5.8,2.6));
#1978=CARTESIAN_POINT('Origin',(3.80000000000001,3.80000000000001,2.6));
#1979=CARTESIAN_POINT('',(3.8,5.8,0.));
#1980=CARTESIAN_POINT('Origin',(5.8,3.8,0.));
#1981=CARTESIAN_POINT('',(5.8,0.5,2.6));
#1982=CARTESIAN_POINT('',(5.8,0.5,0.));
#1983=CARTESIAN_POINT('',(5.8,11.45,2.6));
#1984=CARTESIAN_POINT('Origin',(6.3,0.5,0.));
#1985=CARTESIAN_POINT('',(6.3,0.,2.6));
#1986=CARTESIAN_POINT('',(6.3,0.,0.));
#1987=CARTESIAN_POINT('Origin',(6.3,0.5,2.6));
#1988=CARTESIAN_POINT('Origin',(5.8,0.,0.));
#1989=CARTESIAN_POINT('',(37.7,0.,2.6));
#1990=CARTESIAN_POINT('',(37.7,0.,0.));
#1991=CARTESIAN_POINT('',(12.45,0.,2.6));
#1992=CARTESIAN_POINT('Origin',(37.7,0.5,0.));
#1993=CARTESIAN_POINT('',(38.2,0.5,2.6));
#1994=CARTESIAN_POINT('',(38.2,0.5,0.));
#1995=CARTESIAN_POINT('Origin',(37.7,0.5,2.6));
#1996=CARTESIAN_POINT('Origin',(38.2,0.,0.));
#1997=CARTESIAN_POINT('',(38.2,21.5,2.6));
#1998=CARTESIAN_POINT('',(38.2,21.5,0.));
#1999=CARTESIAN_POINT('',(38.2,9.55,2.6));
#2000=CARTESIAN_POINT('Origin',(37.7,21.5,0.));
#2001=CARTESIAN_POINT('',(37.7,22.,2.6));
#2002=CARTESIAN_POINT('',(37.7,22.,0.));
#2003=CARTESIAN_POINT('Origin',(37.7,21.5,2.6));
#2004=CARTESIAN_POINT('Origin',(38.2,22.,0.));
#2005=CARTESIAN_POINT('',(23.,22.,2.6));
#2006=CARTESIAN_POINT('',(23.,22.,0.));
#2007=CARTESIAN_POINT('',(28.65,22.,2.6));
#2008=CARTESIAN_POINT('Origin',(19.1,19.1,0.));
#2009=CARTESIAN_POINT('',(1.2,35.7,0.));
#2010=CARTESIAN_POINT('Origin',(2.5,35.7,0.));
#2011=CARTESIAN_POINT('',(34.4,19.5,0.));
#2012=CARTESIAN_POINT('Origin',(35.7,19.5,0.));
#2013=CARTESIAN_POINT('',(1.2,8.3,0.));
#2014=CARTESIAN_POINT('Origin',(2.5,8.3,0.));
#2015=CARTESIAN_POINT('',(18.2,19.5,0.));
#2016=CARTESIAN_POINT('Origin',(19.5,19.5,0.));
#2017=CARTESIAN_POINT('',(7.,2.5,0.));
#2018=CARTESIAN_POINT('Origin',(8.3,2.5,0.));
#2019=CARTESIAN_POINT('',(18.6,2.5,0.));
#2020=CARTESIAN_POINT('Origin',(19.5,2.5,0.));
#2021=CARTESIAN_POINT('',(18.2,35.7,0.));
#2022=CARTESIAN_POINT('Origin',(19.5,35.7,0.));
#2023=CARTESIAN_POINT('',(1.6,19.5,0.));
#2024=CARTESIAN_POINT('Origin',(2.5,19.5,0.));
#2025=CARTESIAN_POINT('',(34.4,2.5,0.));
#2026=CARTESIAN_POINT('Origin',(35.7,2.5,0.));
#2027=CARTESIAN_POINT('Origin',(0.5,6.3,2.6));
#2028=CARTESIAN_POINT('',(0.5,5.8,2.6));
#2029=CARTESIAN_POINT('',(0.5,5.9,2.7));
#2030=CARTESIAN_POINT('Origin',(0.5,5.9,2.6));
#2031=CARTESIAN_POINT('',(0.1,6.3,2.7));
#2032=CARTESIAN_POINT('Origin',(0.5,6.3,2.7));
#2033=CARTESIAN_POINT('',(0.,6.3,2.6));
#2034=CARTESIAN_POINT('Origin',(0.1,6.3,2.6));
#2035=CARTESIAN_POINT('Origin',(0.5,6.3,2.6));
#2036=CARTESIAN_POINT('Origin',(0.1,28.65,2.6));
#2037=CARTESIAN_POINT('',(0.1,37.7,2.7));
#2038=CARTESIAN_POINT('',(0.,37.7,2.6));
#2039=CARTESIAN_POINT('Origin',(0.1,37.7,2.6));
#2040=CARTESIAN_POINT('',(0.,28.65,2.6));
#2041=CARTESIAN_POINT('',(0.1,28.65,2.7));
#2042=CARTESIAN_POINT('Origin',(0.5,37.7,2.6));
#2043=CARTESIAN_POINT('',(0.5,38.1,2.7));
#2044=CARTESIAN_POINT('',(0.5,38.2,2.6));
#2045=CARTESIAN_POINT('Origin',(0.5,38.1,2.6));
#2046=CARTESIAN_POINT('Origin',(0.5,37.7,2.6));
#2047=CARTESIAN_POINT('Origin',(0.5,37.7,2.7));
#2048=CARTESIAN_POINT('Origin',(20.55,38.1,2.6));
#2049=CARTESIAN_POINT('',(21.5,38.1,2.7));
#2050=CARTESIAN_POINT('',(21.5,38.2,2.6));
#2051=CARTESIAN_POINT('Origin',(21.5,38.1,2.6));
#2052=CARTESIAN_POINT('',(20.55,38.2,2.6));
#2053=CARTESIAN_POINT('',(20.55,38.1,2.7));
#2054=CARTESIAN_POINT('Origin',(21.5,37.7,2.6));
#2055=CARTESIAN_POINT('',(21.9,37.7,2.7));
#2056=CARTESIAN_POINT('',(22.,37.7,2.6));
#2057=CARTESIAN_POINT('Origin',(21.9,37.7,2.6));
#2058=CARTESIAN_POINT('Origin',(21.5,37.7,2.6));
#2059=CARTESIAN_POINT('Origin',(21.5,37.7,2.7));
#2060=CARTESIAN_POINT('Origin',(21.9,21.05,2.6));
#2061=CARTESIAN_POINT('',(21.9,23.,2.7));
#2062=CARTESIAN_POINT('',(22.,23.,2.6));
#2063=CARTESIAN_POINT('Origin',(21.9,23.,2.6));
#2064=CARTESIAN_POINT('',(22.,21.05,2.6));
#2065=CARTESIAN_POINT('',(21.9,21.05,2.7));
#2066=CARTESIAN_POINT('Origin',(23.,23.,2.6));
#2067=CARTESIAN_POINT('',(23.,21.9,2.7));
#2068=CARTESIAN_POINT('Origin',(23.,21.9,2.6));
#2069=CARTESIAN_POINT('Origin',(23.,23.,2.6));
#2070=CARTESIAN_POINT('Origin',(23.,23.,2.7));
#2071=CARTESIAN_POINT('Origin',(28.65,21.9,2.6));
#2072=CARTESIAN_POINT('',(37.7,21.9,2.7));
#2073=CARTESIAN_POINT('Origin',(37.7,21.9,2.6));
#2074=CARTESIAN_POINT('',(28.65,21.9,2.7));
#2075=CARTESIAN_POINT('Origin',(37.7,21.5,2.6));
#2076=CARTESIAN_POINT('',(38.1,21.5,2.7));
#2077=CARTESIAN_POINT('Origin',(38.1,21.5,2.6));
#2078=CARTESIAN_POINT('Origin',(37.7,21.5,2.7));
#2079=CARTESIAN_POINT('Origin',(38.1,9.55,2.6));
#2080=CARTESIAN_POINT('',(38.1,0.5,2.7));
#2081=CARTESIAN_POINT('Origin',(38.1,0.5,2.6));
#2082=CARTESIAN_POINT('',(38.1,9.55,2.7));
#2083=CARTESIAN_POINT('Origin',(37.7,0.5,2.6));
#2084=CARTESIAN_POINT('',(37.7,0.1,2.7));
#2085=CARTESIAN_POINT('Origin',(37.7,0.1,2.6));
#2086=CARTESIAN_POINT('Origin',(37.7,0.5,2.7));
#2087=CARTESIAN_POINT('Origin',(12.45,0.1,2.6));
#2088=CARTESIAN_POINT('',(6.3,0.1,2.7));
#2089=CARTESIAN_POINT('Origin',(6.3,0.1,2.6));
#2090=CARTESIAN_POINT('',(12.45,0.1,2.7));
#2091=CARTESIAN_POINT('Origin',(6.3,0.5,2.6));
#2092=CARTESIAN_POINT('',(5.9,0.5,2.7));
#2093=CARTESIAN_POINT('Origin',(5.9,0.5,2.6));
#2094=CARTESIAN_POINT('Origin',(6.3,0.5,2.7));
#2095=CARTESIAN_POINT('Origin',(5.9,11.45,2.6));
#2096=CARTESIAN_POINT('',(5.9,3.8,2.7));
#2097=CARTESIAN_POINT('Origin',(5.9,3.8,2.6));
#2098=CARTESIAN_POINT('',(5.9,11.45,2.7));
#2099=CARTESIAN_POINT('Origin',(3.80000000000001,3.80000000000001,2.6));
#2100=CARTESIAN_POINT('',(3.8,5.9,2.7));
#2101=CARTESIAN_POINT('Origin',(3.8,5.9,2.6));
#2102=CARTESIAN_POINT('Origin',(3.80000000000001,3.80000000000001,2.7));
#2103=CARTESIAN_POINT('Origin',(9.55,5.9,2.6));
#2104=CARTESIAN_POINT('',(9.55,5.9,2.7));
#2105=CARTESIAN_POINT('',(9.55,5.8,2.6));
#2106=CARTESIAN_POINT('Origin',(0.,5.8,0.));
#2107=CARTESIAN_POINT('',(0.5,5.8,0.));
#2108=CARTESIAN_POINT('Origin',(0.5,6.3,0.));
#2109=CARTESIAN_POINT('',(0.,6.3,0.));
#2110=CARTESIAN_POINT('Origin',(19.1,19.1,2.7));
#2111=CARTESIAN_POINT('',(1.6,19.5,2.7));
#2112=CARTESIAN_POINT('Origin',(2.5,19.5,2.7));
#2113=CARTESIAN_POINT('',(1.2,8.3,2.7));
#2114=CARTESIAN_POINT('Origin',(2.5,8.3,2.7));
#2115=CARTESIAN_POINT('',(34.4,2.5,2.7));
#2116=CARTESIAN_POINT('Origin',(35.7,2.5,2.7));
#2117=CARTESIAN_POINT('',(18.2,19.5,2.7));
#2118=CARTESIAN_POINT('Origin',(19.5,19.5,2.7));
#2119=CARTESIAN_POINT('',(1.2,35.7,2.7));
#2120=CARTESIAN_POINT('Origin',(2.5,35.7,2.7));
#2121=CARTESIAN_POINT('',(18.2,35.7,2.7));
#2122=CARTESIAN_POINT('Origin',(19.5,35.7,2.7));
#2123=CARTESIAN_POINT('',(34.4,19.5,2.7));
#2124=CARTESIAN_POINT('Origin',(35.7,19.5,2.7));
#2125=CARTESIAN_POINT('',(7.,2.5,2.7));
#2126=CARTESIAN_POINT('Origin',(8.3,2.5,2.7));
#2127=CARTESIAN_POINT('',(18.6,2.5,2.7));
#2128=CARTESIAN_POINT('Origin',(19.5,2.5,2.7));
#2129=CARTESIAN_POINT('Origin',(2.5,19.5,2.65));
#2130=CARTESIAN_POINT('',(1.7,19.5,2.6));
#2131=CARTESIAN_POINT('',(1.65,19.5,2.65));
#2132=CARTESIAN_POINT('Origin',(2.5,19.5,2.6));
#2133=CARTESIAN_POINT('Origin',(2.5,19.5,0.));
#2134=CARTESIAN_POINT('',(1.7,19.5,0.1));
#2135=CARTESIAN_POINT('',(1.7,19.5,0.));
#2136=CARTESIAN_POINT('Origin',(2.5,19.5,0.1));
#2137=CARTESIAN_POINT('Origin',(19.5,2.5,0.114644660940673));
#2138=CARTESIAN_POINT('',(18.6292893218813,2.5,0.0292893218813452));
#2139=CARTESIAN_POINT('Origin',(19.5,2.5,0.0292893218813452));
#2140=CARTESIAN_POINT('',(18.7,2.5,0.200000000000001));
#2141=CARTESIAN_POINT('',(18.6646446609407,2.5,0.114644660940673));
#2142=CARTESIAN_POINT('Origin',(19.5,2.5,0.200000000000001));
#2143=CARTESIAN_POINT('Origin',(19.5,2.5,0.));
#2144=CARTESIAN_POINT('',(18.7,2.5,2.6));
#2145=CARTESIAN_POINT('Origin',(19.5,2.5,2.6));
#2146=CARTESIAN_POINT('',(18.7,2.5,0.));
#2147=CARTESIAN_POINT('Origin',(19.5,2.5,0.05));
#2148=CARTESIAN_POINT('',(18.65,2.5,0.05));
#2149=CARTESIAN_POINT('Origin',(19.5,2.5,2.65));
#2150=CARTESIAN_POINT('',(18.65,2.5,2.65));
#2151=CARTESIAN_POINT('Origin',(2.5,8.3,2.65));
#2152=CARTESIAN_POINT('',(1.3,8.3,2.6));
#2153=CARTESIAN_POINT('',(1.25,8.3,2.65));
#2154=CARTESIAN_POINT('Origin',(2.5,8.3,2.6));
#2155=CARTESIAN_POINT('Origin',(2.5,8.3,0.));
#2156=CARTESIAN_POINT('',(1.3,8.3,0.1));
#2157=CARTESIAN_POINT('',(1.3,8.3,0.));
#2158=CARTESIAN_POINT('Origin',(2.5,8.3,0.1));
#2159=CARTESIAN_POINT('Origin',(8.3,2.5,2.65));
#2160=CARTESIAN_POINT('',(7.1,2.5,2.6));
#2161=CARTESIAN_POINT('',(7.05,2.5,2.65));
#2162=CARTESIAN_POINT('Origin',(8.3,2.5,2.6));
#2163=CARTESIAN_POINT('Origin',(8.3,2.5,0.));
#2164=CARTESIAN_POINT('',(7.1,2.5,0.1));
#2165=CARTESIAN_POINT('',(7.1,2.5,0.));
#2166=CARTESIAN_POINT('Origin',(8.3,2.5,0.1));
#2167=CARTESIAN_POINT('Origin',(35.7,2.5,2.65));
#2168=CARTESIAN_POINT('',(34.5,2.5,2.6));
#2169=CARTESIAN_POINT('',(34.45,2.5,2.65));
#2170=CARTESIAN_POINT('Origin',(35.7,2.5,2.6));
#2171=CARTESIAN_POINT('Origin',(35.7,2.5,0.));
#2172=CARTESIAN_POINT('',(34.5,2.5,0.1));
#2173=CARTESIAN_POINT('',(34.5,2.5,0.));
#2174=CARTESIAN_POINT('Origin',(35.7,2.5,0.1));
#2175=CARTESIAN_POINT('Origin',(35.7,19.5,2.65));
#2176=CARTESIAN_POINT('',(34.5,19.5,2.6));
#2177=CARTESIAN_POINT('',(34.45,19.5,2.65));
#2178=CARTESIAN_POINT('Origin',(35.7,19.5,2.6));
#2179=CARTESIAN_POINT('Origin',(35.7,19.5,0.));
#2180=CARTESIAN_POINT('',(34.5,19.5,0.1));
#2181=CARTESIAN_POINT('',(34.5,19.5,0.));
#2182=CARTESIAN_POINT('Origin',(35.7,19.5,0.1));
#2183=CARTESIAN_POINT('Origin',(19.5,19.5,2.65));
#2184=CARTESIAN_POINT('',(18.3,19.5,2.6));
#2185=CARTESIAN_POINT('',(18.25,19.5,2.65));
#2186=CARTESIAN_POINT('Origin',(19.5,19.5,2.6));
#2187=CARTESIAN_POINT('Origin',(19.5,19.5,0.));
#2188=CARTESIAN_POINT('',(18.3,19.5,0.1));
#2189=CARTESIAN_POINT('',(18.3,19.5,0.));
#2190=CARTESIAN_POINT('Origin',(19.5,19.5,0.1));
#2191=CARTESIAN_POINT('Origin',(19.5,35.7,2.65));
#2192=CARTESIAN_POINT('',(18.3,35.7,2.6));
#2193=CARTESIAN_POINT('',(18.25,35.7,2.65));
#2194=CARTESIAN_POINT('Origin',(19.5,35.7,2.6));
#2195=CARTESIAN_POINT('Origin',(19.5,35.7,0.));
#2196=CARTESIAN_POINT('',(18.3,35.7,0.1));
#2197=CARTESIAN_POINT('',(18.3,35.7,0.));
#2198=CARTESIAN_POINT('Origin',(19.5,35.7,0.1));
#2199=CARTESIAN_POINT('Origin',(2.5,35.7,0.05));
#2200=CARTESIAN_POINT('',(1.3,35.7,0.1));
#2201=CARTESIAN_POINT('Origin',(2.5,35.7,0.1));
#2202=CARTESIAN_POINT('',(1.25,35.7,0.05));
#2203=CARTESIAN_POINT('Origin',(2.5,35.7,0.));
#2204=CARTESIAN_POINT('',(1.3,35.7,2.6));
#2205=CARTESIAN_POINT('Origin',(2.5,35.7,2.6));
#2206=CARTESIAN_POINT('',(1.3,35.7,0.));
#2207=CARTESIAN_POINT('Origin',(2.5,35.7,2.65));
#2208=CARTESIAN_POINT('',(1.25,35.7,2.65));
#2209=CARTESIAN_POINT('Origin',(35.7,2.5,0.05));
#2210=CARTESIAN_POINT('',(34.45,2.5,0.05));
#2211=CARTESIAN_POINT('Origin',(35.7,19.5,0.05));
#2212=CARTESIAN_POINT('',(34.45,19.5,0.05));
#2213=CARTESIAN_POINT('Origin',(2.5,19.5,0.05));
#2214=CARTESIAN_POINT('',(1.65,19.5,0.05));
#2215=CARTESIAN_POINT('Origin',(2.5,8.3,0.05));
#2216=CARTESIAN_POINT('',(1.25,8.3,0.05));
#2217=CARTESIAN_POINT('Origin',(19.5,35.7,0.05));
#2218=CARTESIAN_POINT('',(18.25,35.7,0.05));
#2219=CARTESIAN_POINT('Origin',(19.5,19.5,0.05));
#2220=CARTESIAN_POINT('',(18.25,19.5,0.05));
#2221=CARTESIAN_POINT('Origin',(8.3,2.5,0.05));
#2222=CARTESIAN_POINT('',(7.05,2.5,0.05));
#2223=CARTESIAN_POINT('Origin',(21.5,37.7,0.));
#2224=CARTESIAN_POINT('',(21.5,38.2,0.));
#2225=CARTESIAN_POINT('',(22.,37.7,0.));
#2226=CARTESIAN_POINT('Origin',(22.,38.2,0.));
#2227=CARTESIAN_POINT('',(0.5,38.2,0.));
#2228=CARTESIAN_POINT('Origin',(0.5,37.7,0.));
#2229=CARTESIAN_POINT('',(0.,37.7,0.));
#2230=CARTESIAN_POINT('Origin',(3.99360833268137E-31,38.2,0.));
#2231=CARTESIAN_POINT('Origin',(22.,23.,0.));
#2232=CARTESIAN_POINT('',(22.,23.,0.));
#2233=CARTESIAN_POINT('Origin',(23.,23.,0.));
#2234=UNCERTAINTY_MEASURE_WITH_UNIT(LENGTH_MEASURE(0.01),#2238,
'DISTANCE_ACCURACY_VALUE',
'Maximum model space distance between geometric entities at asserted c
onnectivities');
#2235=UNCERTAINTY_MEASURE_WITH_UNIT(LENGTH_MEASURE(0.01),#2238,
'DISTANCE_ACCURACY_VALUE',
'Maximum model space distance between geometric entities at asserted c
onnectivities');
#2236=(
GEOMETRIC_REPRESENTATION_CONTEXT(3)
GLOBAL_UNCERTAINTY_ASSIGNED_CONTEXT((#2234))
GLOBAL_UNIT_ASSIGNED_CONTEXT((#2238,#2240,#2241))
REPRESENTATION_CONTEXT('','3D')
);
#2237=(
GEOMETRIC_REPRESENTATION_CONTEXT(3)
GLOBAL_UNCERTAINTY_ASSIGNED_CONTEXT((#2235))
GLOBAL_UNIT_ASSIGNED_CONTEXT((#2238,#2240,#2241))
REPRESENTATION_CONTEXT('','3D')
);
#2238=(
LENGTH_UNIT()
NAMED_UNIT(*)
SI_UNIT(.MILLI.,.METRE.)
);
#2239=(
LENGTH_UNIT()
NAMED_UNIT(*)
SI_UNIT($,.METRE.)
);
#2240=(
NAMED_UNIT(*)
PLANE_ANGLE_UNIT()
SI_UNIT($,.RADIAN.)
);
#2241=(
NAMED_UNIT(*)
SI_UNIT($,.STERADIAN.)
SOLID_ANGLE_UNIT()
);
#2242=SHAPE_DEFINITION_REPRESENTATION(#2243,#2244);
#2243=PRODUCT_DEFINITION_SHAPE('',$,#2246);
#2244=SHAPE_REPRESENTATION('',(#1261),#2236);
#2245=PRODUCT_DEFINITION_CONTEXT('part definition',#2250,'design');
#2246=PRODUCT_DEFINITION('2026-07-04-18-00-45-893','PLATE',#2247,#2245);
#2247=PRODUCT_DEFINITION_FORMATION('',$,#2252);
#2248=PRODUCT_RELATED_PRODUCT_CATEGORY('PLATE','PLATE',(#2252));
#2249=APPLICATION_PROTOCOL_DEFINITION('international standard',
'automotive_design',2009,#2250);
#2250=APPLICATION_CONTEXT(
'Core Data for Automotive Mechanical Design Process');
#2251=PRODUCT_CONTEXT('part definition',#2250,'mechanical');
#2252=PRODUCT('2026-07-04-18-00-45-893','PLATE',$,(#2251));
#2253=PRESENTATION_STYLE_ASSIGNMENT((#2255));
#2254=PRESENTATION_STYLE_ASSIGNMENT((#2256));
#2255=SURFACE_STYLE_USAGE(.BOTH.,#2257);
#2256=SURFACE_STYLE_USAGE(.BOTH.,#2258);
#2257=SURFACE_SIDE_STYLE('',(#2259));
#2258=SURFACE_SIDE_STYLE('',(#2260));
#2259=SURFACE_STYLE_FILL_AREA(#2261);
#2260=SURFACE_STYLE_FILL_AREA(#2262);
#2261=FILL_AREA_STYLE('Steel - Satin',(#2263));
#2262=FILL_AREA_STYLE('Aluminum - Satin',(#2264));
#2263=FILL_AREA_STYLE_COLOUR('Steel - Satin',#2265);
#2264=FILL_AREA_STYLE_COLOUR('Aluminum - Satin',#2266);
#2265=COLOUR_RGB('Steel - Satin',0.627450980392157,0.627450980392157,0.627450980392157);
#2266=COLOUR_RGB('Aluminum - Satin',0.96078431372549,0.96078431372549,0.964705882352941);
ENDSEC;
END-ISO-10303-21;
